<?xml version="1.0" encoding="utf-8"?>
<!-- Generator: Adobe Illustrator 23.0.5, SVG Export Plug-In . SVG Version: 6.00 Build 0)  -->
<svg version="1.1" xmlns="http://www.w3.org/2000/svg" xmlns:xlink="http://www.w3.org/1999/xlink" x="0px" y="0px"
	 viewBox="0 0 500 500" style="enable-background:new 0 0 500 500;" xml:space="preserve">
<style type="text/css">
	.st0{fill:#EBEBEB;}
	.st1{fill:#E0E0E0;}
	.st2{fill:#F0F0F0;}
	.st3{fill:#FAFAFA;}
	.st4{fill:#FFFFFF;}
	.st5{fill:#F5F5F5;}
	.st6{fill:#8559FA;}
	.st7{opacity:0.6;fill:#8559FA;enable-background:new    ;}
	.st8{fill:#263238;}
	.st9{opacity:0.5;fill:#FFFFFF;}
	.st10{opacity:0.2;enable-background:new    ;}
	.st11{fill:url(#SVGID_1_);}
	.st12{fill:url(#SVGID_2_);}
</style>
<g id="Background_Complete">
	<g>
		<rect y="382.4" class="st0" width="500" height="0.2"/>
		<rect x="416.8" y="398.5" class="st0" width="33.1" height="0.2"/>
		<rect x="322.5" y="401.2" class="st0" width="8.7" height="0.2"/>
		<rect x="396.6" y="389.2" class="st0" width="19.2" height="0.2"/>
		<rect x="52.5" y="390.9" class="st0" width="43.2" height="0.2"/>
		<rect x="104.6" y="390.9" class="st0" width="6.3" height="0.2"/>
		<rect x="131.5" y="395.1" class="st0" width="93.7" height="0.2"/>
		<path class="st0" d="M237,337.8H43.9c-3.1,0-5.7-2.6-5.7-5.7V60.7c0-3.1,2.6-5.7,5.7-5.7H237c3.1,0,5.7,2.6,5.7,5.7v271.4
			C242.7,335.2,240.2,337.8,237,337.8z M43.9,55.2c-3,0-5.5,2.4-5.5,5.5v271.4c0,3,2.4,5.5,5.5,5.5H237c3,0,5.5-2.4,5.5-5.5V60.7
			c0-3-2.4-5.5-5.5-5.5H43.9z"/>
		<path class="st0" d="M453.3,337.8H260.2c-3.1,0-5.7-2.6-5.7-5.7V60.7c0-3.1,2.6-5.7,5.7-5.7h193.1c3.1,0,5.7,2.6,5.7,5.7v271.4
			C459,335.2,456.5,337.8,453.3,337.8z M260.2,55.2c-3,0-5.5,2.4-5.5,5.5v271.4c0,3,2.4,5.5,5.5,5.5h193.1c3,0,5.5-2.4,5.5-5.5V60.7
			c0-3-2.4-5.5-5.5-5.5H260.2z"/>
	</g>
	<g>
		<g>
			<rect x="387.6" y="264.2" class="st1" width="27.7" height="27.7"/>
			<rect x="384.7" y="268.2" class="st1" width="33.6" height="19.4"/>
			<rect x="394.2" y="252" class="st1" width="14.5" height="8.9"/>
			<rect x="392.2" y="253.9" class="st1" width="18.7" height="4.8"/>
			<g>
				<rect x="418.3" y="264.2" class="st1" width="3.8" height="3.8"/>
				<rect x="422.1" y="253.9" class="st1" width="3" height="10.3"/>
				<rect x="418.2" y="275.6" class="st1" width="3.8" height="3.8"/>
				<rect x="422" y="271.7" class="st1" width="4" height="4"/>
				<rect x="426" y="266.1" class="st1" width="3.9" height="5.6"/>
				
					<rect x="381" y="264.2" transform="matrix(-1 -1.224647e-16 1.224647e-16 -1 765.7724 532.1408)" class="st1" width="3.8" height="3.8"/>
				
					<rect x="377.9" y="253.9" transform="matrix(-1 -1.224647e-16 1.224647e-16 -1 758.7669 518.1154)" class="st1" width="3" height="10.3"/>
				
					<rect x="381" y="275.6" transform="matrix(-1 -1.224647e-16 1.224647e-16 -1 765.8459 555.0675)" class="st1" width="3.8" height="3.8"/>
				
					<rect x="377.1" y="271.7" transform="matrix(-1 -1.224647e-16 1.224647e-16 -1 758.0639 547.2856)" class="st1" width="4" height="4"/>
				
					<rect x="373.2" y="266.1" transform="matrix(-1 -1.224647e-16 1.224647e-16 -1 750.2372 537.7352)" class="st1" width="3.9" height="5.6"/>
			</g>
			<g>
				
					<rect x="384" y="291.8" transform="matrix(-1 -1.224647e-16 1.224647e-16 -1 771.7508 587.2726)" class="st1" width="3.8" height="3.8"/>
				
					<rect x="380.9" y="295.5" transform="matrix(-1 -1.224647e-16 1.224647e-16 -1 764.7453 601.298)" class="st1" width="3" height="10.3"/>
				
					<rect x="381" y="281.7" transform="matrix(-1 -1.224647e-16 1.224647e-16 -1 765.7743 567.1485)" class="st1" width="3.8" height="3.8"/>
				
					<rect x="377" y="285.5" transform="matrix(-1 -1.224647e-16 1.224647e-16 -1 757.9924 574.9304)" class="st1" width="4" height="4"/>
				
					<rect x="373.1" y="289.4" transform="matrix(-1 -1.224647e-16 1.224647e-16 -1 750.1658 584.4807)" class="st1" width="3.9" height="5.6"/>
				<rect x="415.3" y="291.8" class="st1" width="3.8" height="3.8"/>
				<rect x="419.2" y="295.5" class="st1" width="3" height="10.3"/>
				<rect x="418.1" y="281.7" class="st1" width="3.8" height="3.8"/>
				<rect x="422" y="285.5" class="st1" width="4" height="4"/>
				<rect x="426" y="289.4" class="st1" width="3.9" height="5.6"/>
			</g>
		</g>
		<g>
			<rect x="222" y="158.3" class="st1" width="27.7" height="27.7"/>
			<rect x="219" y="162.3" class="st1" width="33.6" height="19.4"/>
			<rect x="228.6" y="146.1" class="st1" width="14.5" height="8.9"/>
			<rect x="226.5" y="148" class="st1" width="18.7" height="4.8"/>
			<g>
				<rect x="252.6" y="158.3" class="st1" width="3.8" height="3.8"/>
				<rect x="256.5" y="148" class="st1" width="3" height="10.3"/>
				<rect x="252.5" y="169.7" class="st1" width="3.8" height="3.8"/>
				<rect x="256.3" y="165.7" class="st1" width="4" height="4"/>
				<rect x="260.3" y="160.1" class="st1" width="3.9" height="5.6"/>
				
					<rect x="215.3" y="158.3" transform="matrix(-1 -1.224647e-16 1.224647e-16 -1 434.4406 320.2526)" class="st1" width="3.8" height="3.8"/>
				
					<rect x="212.2" y="148" transform="matrix(-1 -1.224647e-16 1.224647e-16 -1 427.4351 306.2272)" class="st1" width="3" height="10.3"/>
				
					<rect x="215.3" y="169.7" transform="matrix(-1 -1.224647e-16 1.224647e-16 -1 434.5141 343.1793)" class="st1" width="3.8" height="3.8"/>
				
					<rect x="211.4" y="165.7" transform="matrix(-1 -1.224647e-16 1.224647e-16 -1 426.7321 335.3974)" class="st1" width="4" height="4"/>
				
					<rect x="207.5" y="160.1" transform="matrix(-1 -1.224647e-16 1.224647e-16 -1 418.9054 325.847)" class="st1" width="3.9" height="5.6"/>
			</g>
			<g>
				
					<rect x="218.3" y="185.8" transform="matrix(-1 -1.224647e-16 1.224647e-16 -1 440.419 375.3844)" class="st1" width="3.8" height="3.8"/>
				
					<rect x="215.2" y="189.6" transform="matrix(-1 -1.224647e-16 1.224647e-16 -1 433.4135 389.4098)" class="st1" width="3" height="10.3"/>
				
					<rect x="215.3" y="175.7" transform="matrix(-1 -1.224647e-16 1.224647e-16 -1 434.4425 355.2603)" class="st1" width="3.8" height="3.8"/>
				
					<rect x="211.4" y="179.5" transform="matrix(-1 -1.224647e-16 1.224647e-16 -1 426.6606 363.0422)" class="st1" width="4" height="4"/>
				
					<rect x="207.5" y="183.5" transform="matrix(-1 -1.224647e-16 1.224647e-16 -1 418.834 372.5926)" class="st1" width="3.9" height="5.6"/>
				<rect x="249.7" y="185.8" class="st1" width="3.8" height="3.8"/>
				<rect x="253.5" y="189.6" class="st1" width="3" height="10.3"/>
				<rect x="252.5" y="175.7" class="st1" width="3.8" height="3.8"/>
				<rect x="256.3" y="179.5" class="st1" width="4" height="4"/>
				<rect x="260.3" y="183.5" class="st1" width="3.9" height="5.6"/>
			</g>
		</g>
		<g>
			<rect x="223.2" y="76.3" class="st2" width="17.4" height="17.4"/>
			<rect x="221.3" y="78.8" class="st2" width="21.1" height="12.2"/>
			<rect x="227.3" y="68.7" class="st2" width="9.1" height="5.6"/>
			<rect x="226" y="69.9" class="st2" width="11.7" height="3"/>
			<g>
				<rect x="242.4" y="76.3" class="st2" width="2.4" height="2.4"/>
				<rect x="244.9" y="69.9" class="st2" width="1.9" height="6.5"/>
				<rect x="242.4" y="83.5" class="st2" width="2.4" height="2.4"/>
				<rect x="244.8" y="81" class="st2" width="2.5" height="2.5"/>
				<rect x="247.3" y="77.5" class="st2" width="2.4" height="3.5"/>
				
					<rect x="219" y="76.3" transform="matrix(-1 -1.224647e-16 1.224647e-16 -1 440.4237 155.0229)" class="st2" width="2.4" height="2.4"/>
				
					<rect x="217.1" y="69.9" transform="matrix(-1 -1.224647e-16 1.224647e-16 -1 436.0232 146.2127)" class="st2" width="1.9" height="6.5"/>
				
					<rect x="219" y="83.5" transform="matrix(-1 -1.224647e-16 1.224647e-16 -1 440.4699 169.4245)" class="st2" width="2.4" height="2.4"/>
				
					<rect x="216.5" y="81" transform="matrix(-1 -1.224647e-16 1.224647e-16 -1 435.5816 164.5362)" class="st2" width="2.5" height="2.5"/>
				
					<rect x="214.1" y="77.5" transform="matrix(-1 -1.224647e-16 1.224647e-16 -1 430.6653 158.537)" class="st2" width="2.4" height="3.5"/>
			</g>
			<g>
				
					<rect x="220.9" y="93.6" transform="matrix(-1 -1.224647e-16 1.224647e-16 -1 444.1791 189.6544)" class="st2" width="2.4" height="2.4"/>
				
					<rect x="218.9" y="96" transform="matrix(-1 -1.224647e-16 1.224647e-16 -1 439.7786 198.4646)" class="st2" width="1.9" height="6.5"/>
				
					<rect x="219" y="87.3" transform="matrix(-1 -1.224647e-16 1.224647e-16 -1 440.425 177.0131)" class="st2" width="2.4" height="2.4"/>
				
					<rect x="216.5" y="89.7" transform="matrix(-1 -1.224647e-16 1.224647e-16 -1 435.5367 181.9014)" class="st2" width="2.5" height="2.5"/>
				
					<rect x="214.1" y="92.2" transform="matrix(-1 -1.224647e-16 1.224647e-16 -1 430.6203 187.9006)" class="st2" width="2.4" height="3.5"/>
				<rect x="240.6" y="93.6" class="st2" width="2.4" height="2.4"/>
				<rect x="243" y="96" class="st2" width="1.9" height="6.5"/>
				<rect x="242.4" y="87.3" class="st2" width="2.4" height="2.4"/>
				<rect x="244.8" y="89.7" class="st2" width="2.5" height="2.5"/>
				<rect x="247.3" y="92.2" class="st2" width="2.4" height="3.5"/>
			</g>
		</g>
		<g>
			<rect x="68" y="84" class="st2" width="10.8" height="10.8"/>
			<rect x="66.9" y="85.5" class="st2" width="13.1" height="7.6"/>
			<rect x="70.6" y="79.2" class="st2" width="5.7" height="3.5"/>
			<rect x="69.8" y="80" class="st2" width="7.3" height="1.9"/>
			<g>
				<rect x="80" y="84" class="st2" width="1.5" height="1.5"/>
				<rect x="81.5" y="80" class="st2" width="1.2" height="4"/>
				<rect x="79.9" y="88.4" class="st2" width="1.5" height="1.5"/>
				<rect x="81.4" y="86.9" class="st2" width="1.5" height="1.5"/>
				<rect x="83" y="84.7" class="st2" width="1.5" height="2.2"/>
				
					<rect x="65.4" y="84" transform="matrix(-1 -1.224647e-16 1.224647e-16 -1 132.344 169.4061)" class="st2" width="1.5" height="1.5"/>
				
					<rect x="64.2" y="80" transform="matrix(-1 -1.224647e-16 1.224647e-16 -1 129.6136 163.9396)" class="st2" width="1.2" height="4"/>
				
					<rect x="65.4" y="88.4" transform="matrix(-1 -1.224647e-16 1.224647e-16 -1 132.3726 178.342)" class="st2" width="1.5" height="1.5"/>
				
					<rect x="63.9" y="86.9" transform="matrix(-1 -1.224647e-16 1.224647e-16 -1 129.3395 175.3089)" class="st2" width="1.5" height="1.5"/>
				
					<rect x="62.4" y="84.7" transform="matrix(-1 -1.224647e-16 1.224647e-16 -1 126.289 171.5865)" class="st2" width="1.5" height="2.2"/>
			</g>
			<g>
				
					<rect x="66.6" y="94.7" transform="matrix(-1 -1.224647e-16 1.224647e-16 -1 134.6742 190.8943)" class="st2" width="1.5" height="1.5"/>
				
					<rect x="65.4" y="96.2" transform="matrix(-1 -1.224647e-16 1.224647e-16 -1 131.9438 196.3608)" class="st2" width="1.2" height="4"/>
				
					<rect x="65.4" y="90.8" transform="matrix(-1 -1.224647e-16 1.224647e-16 -1 132.3448 183.0506)" class="st2" width="1.5" height="1.5"/>
				
					<rect x="63.9" y="92.3" transform="matrix(-1 -1.224647e-16 1.224647e-16 -1 129.3117 186.0837)" class="st2" width="1.5" height="1.5"/>
				
					<rect x="62.4" y="93.8" transform="matrix(-1 -1.224647e-16 1.224647e-16 -1 126.2612 189.8061)" class="st2" width="1.5" height="2.2"/>
				<rect x="78.8" y="94.7" class="st2" width="1.5" height="1.5"/>
				<rect x="80.3" y="96.2" class="st2" width="1.2" height="4"/>
				<rect x="79.9" y="90.8" class="st2" width="1.5" height="1.5"/>
				<rect x="81.4" y="92.3" class="st2" width="1.5" height="1.5"/>
				<rect x="83" y="93.8" class="st2" width="1.5" height="2.2"/>
			</g>
		</g>
		<g>
			<rect x="48.6" y="186.2" class="st1" width="37.2" height="26.5"/>
			<rect x="51.9" y="184.2" class="st1" width="30.6" height="30.6"/>
			<g>
				<rect x="52.4" y="175.3" class="st1" width="4.1" height="7.3"/>
				<rect x="77.9" y="175.3" class="st1" width="4.1" height="7.3"/>
				<rect x="56.4" y="171.3" class="st1" width="21.5" height="4.2"/>
			</g>
			<rect x="62.7" y="193.4" class="st3" width="9" height="6.1"/>
			<rect x="65.6" y="197.2" class="st3" width="3.2" height="9.3"/>
		</g>
		<g>
			<rect x="312.2" y="109.8" class="st1" width="37.2" height="26.5"/>
			<rect x="315.5" y="107.7" class="st1" width="30.6" height="30.6"/>
			<g>
				<rect x="316" y="98.9" class="st1" width="4.1" height="7.3"/>
				<rect x="341.5" y="98.9" class="st1" width="4.1" height="7.3"/>
				<rect x="320.1" y="94.8" class="st1" width="21.5" height="4.2"/>
			</g>
			<rect x="326.3" y="116.9" class="st3" width="9" height="6.1"/>
			<rect x="329.2" y="120.8" class="st3" width="3.2" height="9.3"/>
		</g>
		<g>
			<rect x="300.5" y="324.8" class="st1" width="37.2" height="26.5"/>
			<rect x="303.8" y="322.7" class="st1" width="30.6" height="30.6"/>
			<g>
				<rect x="304.3" y="313.9" class="st1" width="4.1" height="7.3"/>
				<rect x="329.8" y="313.9" class="st1" width="4.1" height="7.3"/>
				<rect x="308.4" y="309.8" class="st1" width="21.5" height="4.2"/>
			</g>
			<rect x="314.6" y="331.9" class="st3" width="9" height="6.1"/>
			<rect x="317.5" y="335.8" class="st3" width="3.2" height="9.3"/>
		</g>
		<g>
			<rect x="298.9" y="235.3" class="st2" width="20.2" height="14.4"/>
			<rect x="300.7" y="234.2" class="st2" width="16.6" height="16.6"/>
			<g>
				<rect x="301" y="229.4" class="st2" width="2.2" height="3.9"/>
				<rect x="314.9" y="229.4" class="st2" width="2.2" height="3.9"/>
				<rect x="303.2" y="227.2" class="st2" width="11.7" height="2.3"/>
			</g>
			<rect x="306.6" y="239.2" class="st4" width="4.9" height="3.3"/>
			<rect x="308.2" y="241.3" class="st4" width="1.7" height="5.1"/>
		</g>
		<g>
			<g>
				<rect x="134.1" y="82.4" class="st1" width="31.3" height="39.3"/>
				<rect x="127.6" y="84.4" class="st1" width="44.3" height="21.9"/>
				<rect x="130.2" y="101.7" class="st1" width="39.1" height="13.7"/>
				<rect x="139.1" y="118.1" class="st1" width="21.2" height="7.4"/>
				<rect x="146.9" y="123" class="st1" width="5.6" height="6"/>
			</g>
			<g>
				<rect x="135.3" y="97" class="st3" width="4.7" height="4.7"/>
				<rect x="140" y="101.9" class="st3" width="4.8" height="4.8"/>
				<rect x="144.9" y="106.7" class="st3" width="5.8" height="4.3"/>
				<rect x="150.7" y="100.6" class="st3" width="4.4" height="6.1"/>
				<rect x="155" y="95.1" class="st3" width="4.4" height="5.5"/>
				<rect x="159.4" y="90.5" class="st3" width="4.7" height="4.7"/>
			</g>
		</g>
		<g>
			<g>
				<rect x="412.5" y="93.6" class="st2" width="19.4" height="24.4"/>
				<rect x="408.5" y="94.8" class="st2" width="27.4" height="13.6"/>
				<rect x="410.1" y="105.5" class="st2" width="24.2" height="8.5"/>
				<rect x="415.6" y="115.7" class="st2" width="13.2" height="4.6"/>
				<rect x="420.5" y="118.7" class="st2" width="3.5" height="3.7"/>
			</g>
			<g>
				<rect x="413.3" y="102.6" class="st4" width="2.9" height="2.9"/>
				<rect x="416.2" y="105.6" class="st4" width="3" height="3"/>
				<rect x="419.2" y="108.6" class="st4" width="3.6" height="2.7"/>
				<rect x="422.8" y="104.8" class="st4" width="2.7" height="3.8"/>
				<rect x="425.5" y="101.4" class="st4" width="2.7" height="3.4"/>
				<rect x="428.2" y="98.5" class="st4" width="2.9" height="2.9"/>
			</g>
		</g>
		<g>
			<g>
				<rect x="250.4" y="323.8" class="st2" width="13.7" height="17.2"/>
				<rect x="247.6" y="324.7" class="st2" width="19.3" height="9.6"/>
				<rect x="248.7" y="332.2" class="st2" width="17.1" height="6"/>
				<rect x="252.6" y="339.4" class="st2" width="9.3" height="3.2"/>
				<rect x="256" y="341.5" class="st2" width="2.5" height="2.6"/>
			</g>
			<g>
				<rect x="251" y="330.2" class="st4" width="2.1" height="2.1"/>
				<rect x="253" y="332.3" class="st4" width="2.1" height="2.1"/>
				<rect x="255.1" y="334.4" class="st4" width="2.5" height="1.9"/>
				<rect x="257.7" y="331.7" class="st4" width="1.9" height="2.7"/>
				<rect x="259.6" y="329.3" class="st4" width="1.9" height="2.4"/>
				<rect x="261.5" y="327.3" class="st4" width="2.1" height="2.1"/>
			</g>
		</g>
	</g>
</g>
<g id="Shadow_1_">
	<ellipse id="_x3C_Path_x3E__359_" class="st5" cx="250" cy="416.2" rx="193.9" ry="11.3"/>
</g>
<g id="interface">
	<g>
		<g>
			<path class="st6" d="M445.5,232.4H338.5c-1.3,0-2.3-1-2.3-2.3v-87.2c0-1.3,1-2.3,2.3-2.3h106.9c1.3,0,2.3,1,2.3,2.3v87.2
				C447.8,231.4,446.8,232.4,445.5,232.4z"/>
			<path class="st7" d="M447.8,142.9v87.2c0,1.3-1,2.3-2.3,2.3H338.5c-1.3,0-2.3-1-2.3-2.3v-87.2c0-1.3,1-2.3,2.3-2.3h106.9
				C446.8,140.6,447.8,141.7,447.8,142.9z"/>
		</g>
		<rect x="338.6" y="150" class="st8" width="106.8" height="79.8"/>
		<g>
			<path class="st9" d="M347.3,159.9c0.1,0.1,0.3,0.1,0.4,0.1c0.2,0,0.5-0.1,0.6-0.3c0.2-0.3,0.2-0.8-0.2-1l-2.2-1.6l2.2-1.6
				c0.3-0.2,0.4-0.7,0.2-1c-0.2-0.3-0.7-0.4-1-0.2l-3,2.2c-0.2,0.1-0.3,0.4-0.3,0.6c0,0.2,0.1,0.5,0.3,0.6L347.3,159.9z"/>
			<path class="st9" d="M357.5,157.1l-2.2,1.6c-0.3,0.2-0.4,0.7-0.2,1c0.1,0.2,0.4,0.3,0.6,0.3c0.2,0,0.3,0,0.4-0.1l3-2.2
				c0.2-0.1,0.3-0.4,0.3-0.6c0-0.2-0.1-0.5-0.3-0.6l-3-2.2c-0.3-0.2-0.8-0.2-1,0.2c-0.2,0.3-0.2,0.8,0.2,1L357.5,157.1z"/>
			<path class="st9" d="M350.7,160c0.1,0,0.2,0,0.2,0c0.3,0,0.6-0.2,0.7-0.5l1.6-4.5c0.1-0.4-0.1-0.8-0.5-1c-0.4-0.1-0.8,0.1-1,0.5
				l-1.6,4.5C350.1,159.5,350.3,159.9,350.7,160z"/>
			<path class="st9" d="M363.2,160.3h4c0.6,0,1-0.4,1-1c0-0.6-0.4-1-1-1h-4c-0.6,0-1,0.4-1,1C362.2,159.9,362.6,160.3,363.2,160.3z"
				/>
			<path class="st9" d="M427.3,216.9H379h-6.8h-6.9c-0.6,0-1,0.4-1,1c0,0.6,0.4,1,1,1h6.9h6.8h48.2c0.6,0,1-0.4,1-1
				C428.3,217.3,427.8,216.9,427.3,216.9z"/>
			<path class="st4" d="M440.8,216.9h-7.6c-0.6,0-1,0.4-1,1c0,0.6,0.4,1,1,1h7.6c0.6,0,1-0.4,1-1
				C441.8,217.3,441.4,216.9,440.8,216.9z"/>
			<path class="st4" d="M384,212.6h24.9c0.6,0,1-0.4,1-1c0-0.6-0.4-1-1-1H384c-0.6,0-1,0.4-1,1C383,212.1,383.5,212.6,384,212.6z"/>
			<path class="st9" d="M427.3,212.6c0.6,0,1-0.4,1-1c0-0.6-0.4-1-1-1h-14.1c-0.6,0-1,0.4-1,1c0,0.6,0.4,1,1,1H427.3z"/>
			<path class="st9" d="M440.8,210.6h-7.5c-0.6,0-1,0.4-1,1c0,0.6,0.4,1,1,1h7.5c0.6,0,1-0.4,1-1C441.8,211,441.4,210.6,440.8,210.6
				z"/>
			<path class="st4" d="M427.4,204.2H394c-0.6,0-1,0.4-1,1c0,0.6,0.4,1,1,1h33.3c0.6,0,1-0.4,1-1
				C428.4,204.7,427.9,204.2,427.4,204.2z"/>
			<path class="st4" d="M440.8,204.2h-7.6c-0.6,0-1,0.4-1,1c0,0.6,0.4,1,1,1h7.6c0.6,0,1-0.4,1-1
				C441.8,204.7,441.4,204.2,440.8,204.2z"/>
			<path class="st9" d="M409,198.9c0-0.6-0.4-1-1-1h-34c-0.6,0-1,0.4-1,1c0,0.6,0.4,1,1,1h34C408.6,199.9,409,199.5,409,198.9z"/>
			<path class="st9" d="M414.2,197.9c-0.6,0-1,0.4-1,1c0,0.6,0.4,1,1,1h13.2c0.6,0,1-0.4,1-1c0-0.6-0.4-1-1-1H414.2z"/>
			<path class="st4" d="M440.8,197.9h-7.5c-0.6,0-1,0.4-1,1c0,0.6,0.4,1,1,1h7.5c0.6,0,1-0.4,1-1
				C441.8,198.3,441.4,197.9,440.8,197.9z"/>
			<path class="st4" d="M416,193.6h6.5c0.6,0,1-0.4,1-1s-0.4-1-1-1H416c-0.6,0-1,0.4-1,1S415.5,193.6,416,193.6z"/>
			<path class="st9" d="M427.2,193.6h13.6c0.6,0,1-0.4,1-1s-0.4-1-1-1h-13.6c-0.6,0-1,0.4-1,1S426.7,193.6,427.2,193.6z"/>
			<path class="st4" d="M379.4,186.2c0-0.6-0.4-1-1-1H344c-0.6,0-1,0.4-1,1c0,0.6,0.4,1,1,1h34.3
				C378.9,187.2,379.4,186.8,379.4,186.2z"/>
			<path class="st9" d="M383.7,187.2h10.1c0.6,0,1-0.4,1-1c0-0.6-0.4-1-1-1h-10.1c-0.6,0-1,0.4-1,1
				C382.7,186.8,383.2,187.2,383.7,187.2z"/>
			<path class="st9" d="M344,180.9h13c0.6,0,1-0.4,1-1c0-0.6-0.4-1-1-1h-13c-0.6,0-1,0.4-1,1C343,180.5,343.5,180.9,344,180.9z"/>
			<path class="st4" d="M404.8,179.9c0-0.6-0.4-1-1-1h-40.4c-0.6,0-1,0.4-1,1c0,0.6,0.4,1,1,1h40.4
				C404.4,180.9,404.8,180.5,404.8,179.9z"/>
			<path class="st4" d="M344,174.6h23.6c0.6,0,1-0.4,1-1c0-0.6-0.4-1-1-1H344c-0.6,0-1,0.4-1,1C343,174.1,343.5,174.6,344,174.6z"/>
			<path class="st9" d="M372,173.6c0,0.6,0.4,1,1,1h5.8c0.6,0,1-0.4,1-1c0-0.6-0.4-1-1-1H373C372.5,172.6,372,173,372,173.6z"/>
			<path class="st9" d="M344,168.3h27.8c0.6,0,1-0.4,1-1c0-0.6-0.4-1-1-1H344c-0.6,0-1,0.4-1,1C343,167.8,343.5,168.3,344,168.3z"/>
			<path class="st4" d="M392.5,168.3h21.3c0.6,0,1-0.4,1-1c0-0.6-0.4-1-1-1h-21.3c-0.6,0-1,0.4-1,1
				C391.5,167.8,392,168.3,392.5,168.3z"/>
		</g>
		<path class="st10" d="M400.1,140.6v24.9c0,2.8-2.2,5-5,5h-58.9v-27.6c0-1.3,1-2.3,2.3-2.3H400.1z"/>
	</g>
	<g>
		<g>
			<path class="st6" d="M392.6,162.6H271.6c-1.3,0-2.3-1-2.3-2.3V73.2c0-1.3,1-2.3,2.3-2.3h120.9c1.3,0,2.3,1,2.3,2.3v87.2
				C394.9,161.6,393.8,162.6,392.6,162.6z"/>
			<path class="st7" d="M394.9,73.2v87.2c0,1.3-1,2.3-2.3,2.3h-121c-1.3,0-2.3-1-2.3-2.3V73.2c0-1.3,1-2.3,2.3-2.3h121
				C393.8,70.9,394.9,71.9,394.9,73.2z"/>
		</g>
		<rect x="271.7" y="80.2" class="st8" width="120.8" height="79.8"/>
		<g>
			<path class="st4" d="M280.4,90.1c0.1,0.1,0.3,0.1,0.4,0.1c0.2,0,0.5-0.1,0.6-0.3c0.2-0.3,0.2-0.8-0.2-1l-2.2-1.6l2.2-1.6
				c0.3-0.2,0.4-0.7,0.2-1c-0.2-0.3-0.7-0.4-1-0.2l-3,2.2c-0.2,0.1-0.3,0.4-0.3,0.6c0,0.2,0.1,0.5,0.3,0.6L280.4,90.1z"/>
			<path class="st4" d="M290.5,87.3l-2.2,1.6c-0.3,0.2-0.4,0.7-0.2,1c0.1,0.2,0.4,0.3,0.6,0.3c0.2,0,0.3,0,0.4-0.1l3-2.2
				c0.2-0.1,0.3-0.4,0.3-0.6c0-0.2-0.1-0.5-0.3-0.6l-3-2.2c-0.3-0.2-0.8-0.2-1,0.2c-0.2,0.3-0.2,0.8,0.2,1L290.5,87.3z"/>
			<path class="st4" d="M283.8,90.2c0.1,0,0.2,0,0.2,0c0.3,0,0.6-0.2,0.7-0.5l1.6-4.5c0.1-0.4-0.1-0.8-0.5-1c-0.4-0.1-0.8,0.1-1,0.5
				l-1.6,4.5C283.2,89.7,283.4,90.1,283.8,90.2z"/>
			<path class="st9" d="M296.3,90.5h4c0.6,0,1-0.4,1-1c0-0.6-0.4-1-1-1h-4c-0.6,0-1,0.4-1,1C295.3,90.1,295.7,90.5,296.3,90.5z"/>
			<path class="st9" d="M347.6,98.5h5.3c0.6,0,1-0.4,1-1c0-0.6-0.4-1-1-1h-5.3c-0.6,0-1,0.4-1,1C346.6,98,347,98.5,347.6,98.5z"/>
			<path class="st4" d="M289.7,97.5c0,0.6,0.4,1,1,1h50c0.6,0,1-0.4,1-1c0-0.6-0.4-1-1-1h-50C290.1,96.5,289.7,96.9,289.7,97.5z"/>
			<path class="st9" d="M277.1,98.5h7.6c0.6,0,1-0.4,1-1c0-0.6-0.4-1-1-1h-7.6c-0.6,0-1,0.4-1,1C276.1,98,276.6,98.5,277.1,98.5z"/>
			<path class="st4" d="M328.9,104.8c0.6,0,1-0.4,1-1c0-0.6-0.4-1-1-1H309c-0.6,0-1,0.4-1,1c0,0.6,0.4,1,1,1H328.9z"/>
			<path class="st4" d="M290.7,104.8h14.1c0.6,0,1-0.4,1-1c0-0.6-0.4-1-1-1h-14.1c-0.6,0-1,0.4-1,1
				C289.7,104.4,290.1,104.8,290.7,104.8z"/>
			<path class="st9" d="M277.1,104.8h7.5c0.6,0,1-0.4,1-1c0-0.6-0.4-1-1-1h-7.5c-0.6,0-1,0.4-1,1
				C276.1,104.4,276.6,104.8,277.1,104.8z"/>
			<path class="st4" d="M319.9,110.1c0-0.6-0.4-1-1-1h-28.3c-0.6,0-1,0.4-1,1c0,0.6,0.4,1,1,1h28.3
				C319.5,111.1,319.9,110.7,319.9,110.1z"/>
			<path class="st9" d="M277.1,111.1h7.6c0.6,0,1-0.4,1-1c0-0.6-0.4-1-1-1h-7.6c-0.6,0-1,0.4-1,1
				C276.1,110.7,276.6,111.1,277.1,111.1z"/>
			<path class="st4" d="M310,117.5h29c0.6,0,1-0.4,1-1c0-0.6-0.4-1-1-1h-29c-0.6,0-1,0.4-1,1C309,117,309.4,117.5,310,117.5z"/>
			<path class="st4" d="M290.6,115.5c-0.6,0-1,0.4-1,1c0,0.6,0.4,1,1,1h13.2c0.6,0,1-0.4,1-1c0-0.6-0.4-1-1-1H290.6z"/>
			<path class="st9" d="M277.1,117.5h7.5c0.6,0,1-0.4,1-1c0-0.6-0.4-1-1-1h-7.5c-0.6,0-1,0.4-1,1C276.1,117,276.6,117.5,277.1,117.5
				z"/>
			<path class="st4" d="M301.9,121.8h-6.5c-0.6,0-1,0.4-1,1c0,0.6,0.4,1,1,1h6.5c0.6,0,1-0.4,1-1
				C302.9,122.2,302.5,121.8,301.9,121.8z"/>
			<path class="st4" d="M290.7,121.8h-13.6c-0.6,0-1,0.4-1,1c0,0.6,0.4,1,1,1h13.6c0.6,0,1-0.4,1-1
				C291.7,122.2,291.3,121.8,290.7,121.8z"/>
			<path class="st4" d="M333.6,129.1c0,0.6,0.4,1,1,1h53.3c0.6,0,1-0.4,1-1c0-0.6-0.4-1-1-1h-53.3
				C334,128.1,333.6,128.6,333.6,129.1z"/>
			<path class="st9" d="M319.1,128.1c-0.6,0-1,0.4-1,1c0,0.6,0.4,1,1,1h10.1c0.6,0,1-0.4,1-1c0-0.6-0.4-1-1-1H319.1z"/>
			<path class="st9" d="M387.9,134.5h-13c-0.6,0-1,0.4-1,1c0,0.6,0.4,1,1,1h13c0.6,0,1-0.4,1-1C388.9,134.9,388.5,134.5,387.9,134.5
				z"/>
			<path class="st4" d="M369.5,135.5c0-0.6-0.4-1-1-1h-54.4c-0.6,0-1,0.4-1,1c0,0.6,0.4,1,1,1h54.4C369,136.5,369.5,136,369.5,135.5
				z"/>
			<path class="st4" d="M387.9,140.8h-23.6c-0.6,0-1,0.4-1,1c0,0.6,0.4,1,1,1h23.6c0.6,0,1-0.4,1-1
				C388.9,141.2,388.5,140.8,387.9,140.8z"/>
			<path class="st9" d="M353.1,140.8c-0.6,0-1,0.4-1,1c0,0.6,0.4,1,1,1h5.8c0.6,0,1-0.4,1-1c0-0.6-0.4-1-1-1H353.1z"/>
			<path class="st4" d="M387.9,147.1h-46.8c-0.6,0-1,0.4-1,1c0,0.6,0.4,1,1,1h46.8c0.6,0,1-0.4,1-1
				C388.9,147.6,388.5,147.1,387.9,147.1z"/>
			<path class="st4" d="M320.4,147.1h-16.3c-0.6,0-1,0.4-1,1c0,0.6,0.4,1,1,1h16.3c0.6,0,1-0.4,1-1
				C321.4,147.6,321,147.1,320.4,147.1z"/>
		</g>
		<path class="st10" d="M336.2,110.3v52.3h-64.6c-1.3,0-2.3-1-2.3-2.3v-54.4h62.5C334.3,105.9,336.2,107.9,336.2,110.3z"/>
	</g>
	<g>
		<g>
			<path class="st6" d="M325.7,201.5H185.8c-1.3,0-2.3-1-2.3-2.3v-87.2c0-1.3,1-2.3,2.3-2.3h139.9c1.3,0,2.3,1,2.3,2.3v87.2
				C328,200.5,327,201.5,325.7,201.5z"/>
			<path class="st7" d="M325.7,201.5H185.8c-1.3,0-2.3-1-2.3-2.3v-87.2c0-1.3,1-2.3,2.3-2.3h139.9c1.3,0,2.3,1,2.3,2.3v87.2
				C328,200.5,327,201.5,325.7,201.5z"/>
		</g>
		<rect x="185.8" y="119.1" class="st8" width="139.8" height="79.8"/>
		<g>
			<path class="st4" d="M213.6,135.8h-22.4c-0.6,0-1,0.4-1,1c0,0.6,0.4,1,1,1h22.4c0.6,0,1-0.4,1-1
				C214.6,136.3,214.2,135.8,213.6,135.8z"/>
			<path class="st4" d="M213.6,142.1h-19.4c-0.6,0-1,0.4-1,1c0,0.6,0.4,1,1,1h19.4c0.6,0,1-0.4,1-1
				C214.6,142.5,214.2,142.1,213.6,142.1z"/>
			<path class="st9" d="M213.6,148.3h-22.4c-0.6,0-1,0.4-1,1s0.4,1,1,1h22.4c0.6,0,1-0.4,1-1S214.2,148.3,213.6,148.3z"/>
			<path class="st4" d="M213.6,154.6h-13.4c-0.6,0-1,0.4-1,1c0,0.6,0.4,1,1,1h13.4c0.6,0,1-0.4,1-1
				C214.6,155,214.2,154.6,213.6,154.6z"/>
			<path class="st4" d="M213.6,160.8h-22.4c-0.6,0-1,0.4-1,1c0,0.6,0.4,1,1,1h22.4c0.6,0,1-0.4,1-1
				C214.6,161.3,214.2,160.8,213.6,160.8z"/>
			<path class="st4" d="M213.6,167h-18.4c-0.6,0-1,0.4-1,1c0,0.6,0.4,1,1,1h18.4c0.6,0,1-0.4,1-1C214.6,167.5,214.2,167,213.6,167z"
				/>
			<path class="st4" d="M213.6,173.3h-18.4c-0.6,0-1,0.4-1,1c0,0.6,0.4,1,1,1h18.4c0.6,0,1-0.4,1-1
				C214.6,173.7,214.2,173.3,213.6,173.3z"/>
			<path class="st4" d="M213.6,179.5h-20.4c-0.6,0-1,0.4-1,1c0,0.6,0.4,1,1,1h20.4c0.6,0,1-0.4,1-1
				C214.6,180,214.2,179.5,213.6,179.5z"/>
			<path class="st9" d="M213.6,185.8h-13.4c-0.6,0-1,0.4-1,1c0,0.6,0.4,1,1,1h13.4c0.6,0,1-0.4,1-1
				C214.6,186.2,214.2,185.8,213.6,185.8z"/>
			<path class="st9" d="M213.6,129.6h-16.4c-0.6,0-1,0.4-1,1c0,0.6,0.4,1,1,1h16.4c0.6,0,1-0.4,1-1
				C214.6,130.1,214.2,129.6,213.6,129.6z"/>
			<path class="st4" d="M213.6,123.4h-22.4c-0.6,0-1,0.4-1,1c0,0.6,0.4,1,1,1h22.4c0.6,0,1-0.4,1-1
				C214.6,123.8,214.2,123.4,213.6,123.4z"/>
			<path class="st4" d="M213.6,192h-22.4c-0.6,0-1,0.4-1,1c0,0.6,0.4,1,1,1h22.4c0.6,0,1-0.4,1-1C214.6,192.5,214.2,192,213.6,192z"
				/>
			<rect x="221.3" y="135.6" class="st9" width="4.4" height="2.5"/>
			<rect x="221.3" y="141.8" class="st9" width="4.4" height="2.5"/>
			<rect x="221.3" y="148.1" class="st9" width="4.4" height="2.5"/>
			<rect x="221.3" y="154.3" class="st9" width="4.4" height="2.5"/>
			<rect x="221.3" y="160.6" class="st9" width="4.4" height="2.5"/>
			<rect x="221.3" y="166.8" class="st9" width="4.4" height="2.5"/>
			<rect x="221.3" y="173" class="st9" width="4.4" height="2.5"/>
			<rect x="221.3" y="179.3" class="st9" width="4.4" height="2.5"/>
			<rect x="221.3" y="185.5" class="st9" width="4.4" height="2.5"/>
			<rect x="221.3" y="129.4" class="st9" width="4.4" height="2.5"/>
			<rect x="221.3" y="123.1" class="st9" width="4.4" height="2.5"/>
			<rect x="221.3" y="191.8" class="st9" width="4.4" height="2.5"/>
			<path class="st4" d="M248.3,136.8c0,0.6,0.4,1,1,1h72.4c0.6,0,1-0.4,1-1c0-0.6-0.4-1-1-1h-72.4
				C248.7,135.8,248.3,136.3,248.3,136.8z"/>
			<path class="st4" d="M321.6,142.1H282c-0.6,0-1,0.4-1,1c0,0.6,0.4,1,1,1h39.6c0.6,0,1-0.4,1-1
				C322.6,142.5,322.2,142.1,321.6,142.1z"/>
			<path class="st9" d="M272.6,142.1h-12.3c-0.6,0-1,0.4-1,1c0,0.6,0.4,1,1,1h12.3c0.6,0,1-0.4,1-1
				C273.6,142.5,273.1,142.1,272.6,142.1z"/>
			<path class="st4" d="M297.6,148.3h-55c-0.6,0-1,0.4-1,1s0.4,1,1,1h55c0.6,0,1-0.4,1-1S298.2,148.3,297.6,148.3z"/>
			<path class="st9" d="M231.3,150.3h3.9c0.6,0,1-0.4,1-1s-0.4-1-1-1h-3.9c-0.6,0-1,0.4-1,1S230.7,150.3,231.3,150.3z"/>
			<path class="st4" d="M304.6,155.6c0-0.6-0.4-1-1-1h-51c-0.6,0-1,0.4-1,1c0,0.6,0.4,1,1,1h51C304.2,156.6,304.6,156.1,304.6,155.6
				z"/>
			<path class="st4" d="M231.3,156.6h14.4c0.6,0,1-0.4,1-1c0-0.6-0.4-1-1-1h-14.4c-0.6,0-1,0.4-1,1
				C230.3,156.1,230.7,156.6,231.3,156.6z"/>
			<path class="st4" d="M231.3,162.8h54.4c0.6,0,1-0.4,1-1c0-0.6-0.4-1-1-1h-54.4c-0.6,0-1,0.4-1,1
				C230.3,162.4,230.7,162.8,231.3,162.8z"/>
			<path class="st4" d="M266.4,167c-0.6,0-1,0.4-1,1c0,0.6,0.4,1,1,1h28.2c0.6,0,1-0.4,1-1c0-0.6-0.4-1-1-1H266.4z"/>
			<path class="st4" d="M231.3,169h24.4c0.6,0,1-0.4,1-1c0-0.6-0.4-1-1-1h-24.4c-0.6,0-1,0.4-1,1C230.3,168.6,230.7,169,231.3,169z"
				/>
			<path class="st4" d="M321.6,173.3h-66.4c-0.6,0-1,0.4-1,1c0,0.6,0.4,1,1,1h66.4c0.6,0,1-0.4,1-1
				C322.6,173.7,322.2,173.3,321.6,173.3z"/>
			<path class="st4" d="M321.6,179.5h-57.4c-0.6,0-1,0.4-1,1c0,0.6,0.4,1,1,1h57.4c0.6,0,1-0.4,1-1
				C322.6,180,322.2,179.5,321.6,179.5z"/>
			<path class="st9" d="M321.6,185.8h-11.8c-0.6,0-1,0.4-1,1c0,0.6,0.4,1,1,1h11.8c0.6,0,1-0.4,1-1
				C322.6,186.2,322.2,185.8,321.6,185.8z"/>
			<path class="st4" d="M301.6,185.8h-43.3c-0.6,0-1,0.4-1,1c0,0.6,0.4,1,1,1h43.3c0.6,0,1-0.4,1-1
				C302.6,186.2,302.1,185.8,301.6,185.8z"/>
			<path class="st4" d="M231.3,131.6h46.4c0.6,0,1-0.4,1-1c0-0.6-0.4-1-1-1h-46.4c-0.6,0-1,0.4-1,1
				C230.3,131.2,230.7,131.6,231.3,131.6z"/>
			<path class="st4" d="M231.3,125.4h72.4c0.6,0,1-0.4,1-1c0-0.6-0.4-1-1-1h-72.4c-0.6,0-1,0.4-1,1
				C230.3,124.9,230.7,125.4,231.3,125.4z"/>
			<path class="st4" d="M298.6,192h-30.7c-0.6,0-1,0.4-1,1c0,0.6,0.4,1,1,1h30.7c0.6,0,1-0.4,1-1C299.6,192.5,299.2,192,298.6,192z"
				/>
			<path class="st9" d="M259.2,192h-27.9c-0.6,0-1,0.4-1,1c0,0.6,0.4,1,1,1h27.9c0.6,0,1-0.4,1-1C260.2,192.5,259.7,192,259.2,192z"
				/>
			<path class="st9" d="M287.9,131.6c0.6,0,1-0.4,1-1c0-0.6-0.4-1-1-1h-3.6c-0.6,0-1,0.4-1,1c0,0.6,0.4,1,1,1H287.9z"/>
			<path class="st9" d="M244.1,136.8c0-0.6-0.4-1-1-1h-4.8c-0.6,0-1,0.4-1,1c0,0.6,0.4,1,1,1h4.8
				C243.6,137.8,244.1,137.4,244.1,136.8z"/>
			<path class="st9" d="M299.2,161.8c0-0.6-0.4-1-1-1h-5.3c-0.6,0-1,0.4-1,1c0,0.6,0.4,1,1,1h5.3
				C298.8,162.8,299.2,162.4,299.2,161.8z"/>
			<path class="st9" d="M316.5,156.6c0.6,0,1-0.4,1-1c0-0.6-0.4-1-1-1h-4.3c-0.6,0-1,0.4-1,1c0,0.6,0.4,1,1,1H316.5z"/>
			<path class="st9" d="M247.2,173.3c-0.6,0-1,0.4-1,1c0,0.6,0.4,1,1,1h4.3c0.6,0,1-0.4,1-1c0-0.6-0.4-1-1-1H247.2z"/>
		</g>
	</g>
</g>
<g id="Bubble">
	<g>
		<path class="st6" d="M139.6,183.7h-33.1c-1.9,0-3.4-1.5-3.4-3.4v-17.9c0-1.9,1.5-3.4,3.4-3.4h33.1c1.9,0,3.4,1.5,3.4,3.4v17.9
			C143,182.2,141.5,183.7,139.6,183.7z"/>
		<path class="st6" d="M129.1,182.4c0,0,1.5,6.9,10.3,9.6c0,0-4.6-4.1-3.5-9.6H129.1z"/>
		<g>
			<path class="st4" d="M108.3,162.9v4.1h-0.4v-3.8h-1v-0.4H108.3z"/>
			<path class="st4" d="M109.3,165c0-1.3,0.7-2.1,1.7-2.1c1,0,1.7,0.8,1.7,2.1c0,1.3-0.7,2.1-1.7,2.1
				C110,167.1,109.3,166.3,109.3,165z M112.2,165c0-1.1-0.5-1.7-1.2-1.7c-0.7,0-1.2,0.6-1.2,1.7c0,1.1,0.5,1.7,1.2,1.7
				C111.7,166.7,112.2,166.1,112.2,165z"/>
			<path class="st4" d="M113.2,165c0-1.3,0.7-2.1,1.7-2.1c1,0,1.7,0.8,1.7,2.1c0,1.3-0.7,2.1-1.7,2.1
				C113.9,167.1,113.2,166.3,113.2,165z M116.1,165c0-1.1-0.5-1.7-1.2-1.7c-0.7,0-1.2,0.6-1.2,1.7c0,1.1,0.5,1.7,1.2,1.7
				C115.6,166.7,116.1,166.1,116.1,165z"/>
			<path class="st4" d="M118.3,162.9v4.1h-0.4v-3.8h-1v-0.4H118.3z"/>
			<path class="st4" d="M120.4,162.9v4.1H120v-3.8h-1v-0.4H120.4z"/>
			<path class="st4" d="M121.4,165c0-1.3,0.7-2.1,1.7-2.1c1,0,1.7,0.8,1.7,2.1c0,1.3-0.7,2.1-1.7,2.1
				C122.1,167.1,121.4,166.3,121.4,165z M124.3,165c0-1.1-0.5-1.7-1.2-1.7c-0.7,0-1.2,0.6-1.2,1.7c0,1.1,0.5,1.7,1.2,1.7
				C123.8,166.7,124.3,166.1,124.3,165z"/>
			<path class="st4" d="M126.5,162.9v4.1H126v-3.8h-1v-0.4H126.5z"/>
			<path class="st4" d="M127.5,165c0-1.3,0.7-2.1,1.7-2.1c1,0,1.7,0.8,1.7,2.1c0,1.3-0.7,2.1-1.7,2.1
				C128.2,167.1,127.5,166.3,127.5,165z M130.3,165c0-1.1-0.5-1.7-1.2-1.7c-0.7,0-1.2,0.6-1.2,1.7c0,1.1,0.5,1.7,1.2,1.7
				C129.8,166.7,130.3,166.1,130.3,165z"/>
			<path class="st4" d="M131.4,165c0-1.3,0.7-2.1,1.7-2.1c1,0,1.7,0.8,1.7,2.1c0,1.3-0.7,2.1-1.7,2.1
				C132.1,167.1,131.4,166.3,131.4,165z M134.3,165c0-1.1-0.5-1.7-1.2-1.7c-0.7,0-1.2,0.6-1.2,1.7c0,1.1,0.5,1.7,1.2,1.7
				C133.8,166.7,134.3,166.1,134.3,165z"/>
			<path class="st4" d="M136.4,162.9v4.1H136v-3.8h-1v-0.4H136.4z"/>
			<path class="st4" d="M138.6,162.9v4.1h-0.4v-3.8h-1v-0.4H138.6z"/>
		</g>
		<g>
			<path class="st4" d="M107.2,171c0-1.3,0.7-2.1,1.7-2.1c1,0,1.7,0.8,1.7,2.1c0,1.3-0.7,2.1-1.7,2.1
				C107.9,173.1,107.2,172.3,107.2,171z M110.1,171c0-1.1-0.5-1.7-1.2-1.7c-0.7,0-1.2,0.6-1.2,1.7c0,1.1,0.5,1.7,1.2,1.7
				C109.6,172.7,110.1,172.1,110.1,171z"/>
			<path class="st4" d="M111.1,171c0-1.3,0.7-2.1,1.7-2.1c1,0,1.7,0.8,1.7,2.1c0,1.3-0.7,2.1-1.7,2.1
				C111.8,173.1,111.1,172.3,111.1,171z M114,171c0-1.1-0.5-1.7-1.2-1.7c-0.7,0-1.2,0.6-1.2,1.7c0,1.1,0.5,1.7,1.2,1.7
				C113.5,172.7,114,172.1,114,171z"/>
			<path class="st4" d="M116.2,168.9v4.1h-0.4v-3.8h-1v-0.4H116.2z"/>
			<path class="st4" d="M118.3,168.9v4.1h-0.4v-3.8h-1v-0.4H118.3z"/>
			<path class="st4" d="M119.3,171c0-1.3,0.7-2.1,1.7-2.1c1,0,1.7,0.8,1.7,2.1c0,1.3-0.7,2.1-1.7,2.1
				C120,173.1,119.3,172.3,119.3,171z M122.2,171c0-1.1-0.5-1.7-1.2-1.7c-0.7,0-1.2,0.6-1.2,1.7c0,1.1,0.5,1.7,1.2,1.7
				C121.7,172.7,122.2,172.1,122.2,171z"/>
			<path class="st4" d="M124.3,168.9v4.1h-0.4v-3.8h-1v-0.4H124.3z"/>
			<path class="st4" d="M125.3,171c0-1.3,0.7-2.1,1.7-2.1c1,0,1.7,0.8,1.7,2.1c0,1.3-0.7,2.1-1.7,2.1
				C126,173.1,125.3,172.3,125.3,171z M128.2,171c0-1.1-0.5-1.7-1.2-1.7c-0.7,0-1.2,0.6-1.2,1.7c0,1.1,0.5,1.7,1.2,1.7
				C127.7,172.7,128.2,172.1,128.2,171z"/>
			<path class="st4" d="M129.2,171c0-1.3,0.7-2.1,1.7-2.1c1,0,1.7,0.8,1.7,2.1c0,1.3-0.7,2.1-1.7,2.1
				C129.9,173.1,129.2,172.3,129.2,171z M132.1,171c0-1.1-0.5-1.7-1.2-1.7c-0.7,0-1.2,0.6-1.2,1.7c0,1.1,0.5,1.7,1.2,1.7
				C131.6,172.7,132.1,172.1,132.1,171z"/>
			<path class="st4" d="M134.3,168.9v4.1h-0.4v-3.8h-1v-0.4H134.3z"/>
			<path class="st4" d="M136.4,168.9v4.1H136v-3.8h-1v-0.4H136.4z"/>
			<path class="st4" d="M138.6,168.9v4.1h-0.4v-3.8h-1v-0.4H138.6z"/>
		</g>
		<g>
			<path class="st4" d="M108.3,174.9v4.1h-0.4v-3.8h-1v-0.4H108.3z"/>
			<path class="st4" d="M110.5,174.9v4.1H110v-3.8h-1v-0.4H110.5z"/>
			<path class="st4" d="M111.5,177c0-1.3,0.7-2.1,1.7-2.1c1,0,1.7,0.8,1.7,2.1c0,1.3-0.7,2.1-1.7,2.1
				C112.2,179.1,111.5,178.3,111.5,177z M114.3,177c0-1.1-0.5-1.7-1.2-1.7c-0.7,0-1.2,0.6-1.2,1.7c0,1.1,0.5,1.7,1.2,1.7
				C113.8,178.7,114.3,178.1,114.3,177z"/>
			<path class="st4" d="M115.4,177c0-1.3,0.7-2.1,1.7-2.1c1,0,1.7,0.8,1.7,2.1c0,1.3-0.7,2.1-1.7,2.1
				C116.1,179.1,115.4,178.3,115.4,177z M118.2,177c0-1.1-0.5-1.7-1.2-1.7c-0.7,0-1.2,0.6-1.2,1.7c0,1.1,0.5,1.7,1.2,1.7
				C117.8,178.7,118.2,178.1,118.2,177z"/>
			<path class="st4" d="M120.4,174.9v4.1H120v-3.8h-1v-0.4H120.4z"/>
			<path class="st4" d="M122.6,174.9v4.1h-0.4v-3.8h-1v-0.4H122.6z"/>
			<path class="st4" d="M123.6,177c0-1.3,0.7-2.1,1.7-2.1c1,0,1.7,0.8,1.7,2.1c0,1.3-0.7,2.1-1.7,2.1
				C124.2,179.1,123.6,178.3,123.6,177z M126.4,177c0-1.1-0.5-1.7-1.2-1.7c-0.7,0-1.2,0.6-1.2,1.7c0,1.1,0.5,1.7,1.2,1.7
				C125.9,178.7,126.4,178.1,126.4,177z"/>
			<path class="st4" d="M127.5,177c0-1.3,0.7-2.1,1.7-2.1c1,0,1.7,0.8,1.7,2.1c0,1.3-0.7,2.1-1.7,2.1
				C128.2,179.1,127.5,178.3,127.5,177z M130.3,177c0-1.1-0.5-1.7-1.2-1.7c-0.7,0-1.2,0.6-1.2,1.7c0,1.1,0.5,1.7,1.2,1.7
				C129.8,178.7,130.3,178.1,130.3,177z"/>
			<path class="st4" d="M132.5,174.9v4.1h-0.4v-3.8h-1v-0.4H132.5z"/>
			<path class="st4" d="M133.5,177c0-1.3,0.7-2.1,1.7-2.1c1,0,1.7,0.8,1.7,2.1c0,1.3-0.7,2.1-1.7,2.1
				C134.2,179.1,133.5,178.3,133.5,177z M136.4,177c0-1.1-0.5-1.7-1.2-1.7c-0.7,0-1.2,0.6-1.2,1.7c0,1.1,0.5,1.7,1.2,1.7
				C135.9,178.7,136.4,178.1,136.4,177z"/>
			<path class="st4" d="M138.6,174.9v4.1h-0.4v-3.8h-1v-0.4H138.6z"/>
		</g>
	</g>
	
		<linearGradient id="SVGID_1_" gradientUnits="userSpaceOnUse" x1="87.0418" y1="74.5562" x2="214.321" y2="201.8354" gradientTransform="matrix(1 0 0 -1 0 462)">
		<stop  offset="0" style="stop-color:#8559FA"/>
		<stop  offset="1" style="stop-color:#C856FA"/>
	</linearGradient>
	<circle class="st11" cx="150.7" cy="323.8" r="90"/>
	<path class="st4" d="M177,284c-18.5-12.3-43.7-10.3-60.1,6.1s-18.4,41.5-6.1,60.1l-14.2,14.2l13.5,13.5l14.2-14.2
		c18.5,12.3,43.7,10.3,60.1-6.1s18.4-41.5,6.1-60.1l14.2-14.2l-13.5-13.5L177,284z M170.9,344.1c-8.8,8.8-22,10.7-32.6,5.6
		c-2.9-1.4-5.5-3.2-7.9-5.6c-2.4-2.4-4.2-5-5.6-7.9c-5.1-10.6-3.2-23.8,5.6-32.6s22-10.7,32.6-5.6c2.9,1.4,5.5,3.2,7.9,5.6
		s4.2,5,5.6,7.9C181.6,322.1,179.8,335.2,170.9,344.1z"/>
	
		<linearGradient id="SVGID_2_" gradientUnits="userSpaceOnUse" x1="357.6841" y1="58.5511" x2="419.9095" y2="120.7765" gradientTransform="matrix(1 0 0 -1 0 462)">
		<stop  offset="0" style="stop-color:#8559FA"/>
		<stop  offset="1" style="stop-color:#C856FA"/>
	</linearGradient>
	<circle class="st12" cx="388.8" cy="372.3" r="44"/>
	<path class="st4" d="M401.7,352.9c-9.1-6-21.4-5-29.4,3s-9,20.3-3,29.4l-6.9,6.9l6.6,6.6l6.9-6.9c9.1,6,21.4,5,29.4-3
		s9-20.3,3-29.4l6.9-6.9l-6.6-6.6L401.7,352.9z M398.7,382.2c-4.3,4.3-10.7,5.2-15.9,2.7c-1.4-0.7-2.7-1.6-3.9-2.7s-2.1-2.5-2.7-3.9
		c-2.5-5.2-1.6-11.6,2.7-15.9s10.7-5.2,15.9-2.7c1.4,0.7,2.7,1.6,3.9,2.7c1.2,1.2,2.1,2.5,2.7,3.9
		C403.9,371.5,403,377.9,398.7,382.2z"/>
</g>
</svg>
