<?xml version="1.0" encoding="utf-8"?>
<!-- Generator: Adobe Illustrator 23.0.5, SVG Export Plug-In . SVG Version: 6.00 Build 0)  -->
<svg version="1.1" id="Layer_1" xmlns="http://www.w3.org/2000/svg" xmlns:xlink="http://www.w3.org/1999/xlink" x="0px" y="0px"
	 viewBox="0 0 512 512" style="enable-background:new 0 0 512 512;" xml:space="preserve">
<style type="text/css">
	.st0{fill:#9559FF;}
	.st1{fill:url(#SVGID_1_);}
</style>
<g>
	<g>
		<path class="st0" d="M392.6,346.9l-9.6-11.5l18.9-45.7l14.9-1.3c5.2-0.5,9.1-4.8,9.1-10v-44.9c0-5.2-4-9.5-9.1-10l-14.9-1.3
			L383,176.6l9.6-11.5c3.3-4,3.1-9.8-0.6-13.5l-31.7-31.7c-3.7-3.7-9.5-3.9-13.5-0.6l-11.5,9.6L289.6,110l-1.3-14.9
			c-0.5-5.2-4.8-9.1-10-9.1h-44.9c-5.2,0-9.5,4-10,9.1l-1.3,14.9l-45.7,18.9l-11.5-9.6c-4-3.3-9.8-3.1-13.5,0.6l-31.7,31.7
			c-3.7,3.7-3.9,9.5-0.6,13.5l9.6,11.5l-18.9,45.7L95,223.6c-5.2,0.5-9.1,4.8-9.1,10v44.9c0,5.2,4,9.5,9.1,10l14.9,1.3l18.9,45.7
			l-9.6,11.5c-3.3,4-3.1,9.8,0.6,13.5l31.7,31.7c3.7,3.7,9.5,3.9,13.5,0.6l11.5-9.6l45.7,18.9l1.3,14.9c0.5,5.2,4.8,9.1,10,9.1h44.9
			c5.2,0,9.5-4,10-9.1l1.3-14.9l45.7-18.9l11.5,9.6c4,3.3,9.8,3.1,13.5-0.6l31.7-31.7C395.7,356.7,396,350.8,392.6,346.9z
			 M352.6,371.5l-9.1-7.6c-2.9-2.4-6.8-3-10.3-1.6l-56.9,23.6c-3.4,1.4-5.8,4.7-6.1,8.4l-1,11.9h-26.6l-1-11.9
			c-0.3-3.7-2.7-6.9-6.1-8.4l-56.9-23.6c-3.4-1.4-7.4-0.8-10.3,1.6l-9.1,7.6l-18.8-18.8l7.7-9.1c2.4-2.9,3-6.8,1.6-10.3l-23.6-56.9
			c-1.4-3.4-4.7-5.8-8.4-6.1l-11.9-1v-26.6l11.9-1c3.7-0.3,6.9-2.7,8.4-6.1l23.6-56.9c1.4-3.4,0.8-7.4-1.6-10.3l-7.6-9.1l18.8-18.8
			l9.1,7.6c2.9,2.4,6.8,3,10.3,1.6l56.9-23.6c3.4-1.4,5.8-4.7,6.1-8.4l1-11.9h26.6l1,11.9c0.3,3.7,2.7,6.9,6.1,8.4l56.9,23.6
			c3.4,1.4,7.4,0.8,10.3-1.6l9.1-7.6l18.8,18.8l-7.6,9.1c-2.4,2.9-3,6.8-1.6,10.3l23.6,56.9c1.4,3.4,4.7,5.8,8.4,6.1l11.9,1v26.6
			l-11.9,1c-3.7,0.3-6.9,2.7-8.4,6.1l-23.6,56.9c-1.4,3.4-0.8,7.4,1.6,10.3l7.7,9.1L352.6,371.5z"/>
		<path class="st0" d="M255.9,59.9c16.5,0,30-13.5,30-30c-1.6-39.8-58.4-39.8-60,0C225.9,46.5,239.4,59.9,255.9,59.9L255.9,59.9z
			 M255.9,19.9c5.5,0,10,4.5,10,10c-0.5,13.3-19.5,13.3-20,0C245.9,24.4,250.4,19.9,255.9,19.9L255.9,19.9z"/>
		<path class="st0" d="M482,226c-16.5,0-30,13.5-30,30c1.6,39.8,58.4,39.8,60,0C512,239.5,498.5,226,482,226z M482,266
			c-5.5,0-10-4.5-10-10c0.6-13.3,19.5-13.3,20,0C492,261.5,487.5,266,482,266z"/>
		<path class="st0" d="M255.9,452.1c-16.5,0-30,13.5-30,30c1.6,39.8,58.4,39.8,60,0C285.9,465.5,272.5,452.1,255.9,452.1
			L255.9,452.1z M255.9,492.1c-5.5,0-10-4.5-10-10c0.5-13.3,19.5-13.3,20,0C265.9,487.6,261.4,492.1,255.9,492.1L255.9,492.1z"/>
		<path class="st0" d="M59.9,256c0-16.5-13.5-30-30-30c-39.8,1.6-39.8,58.4,0,60C46.4,286,59.9,272.5,59.9,256z M19.9,256
			c0-5.5,4.5-10,10-10c13.3,0.5,13.3,19.5,0,20C24.3,266,19.9,261.5,19.9,256z"/>
		<path class="st0" d="M50.1,131.1c13,0,24.2-8.4,28.3-20h18.4l8,8c3.9,3.9,10.2,3.9,14.1,0s3.9-10.2,0-14.1L108.1,94
			c-1.9-1.9-4.4-2.9-7.1-2.9H78.4c-11.6-31.3-57.7-23.8-58.3,10C20.1,117.6,33.6,131.1,50.1,131.1z M50.1,91.1c5.5,0,10,4.5,10,10
			c-0.5,13.3-19.5,13.3-20,0C40.1,95.6,44.6,91.1,50.1,91.1z"/>
		<path class="st0" d="M461.7,380.9c-13,0-24.2,8.4-28.3,20H415l-8-8c-3.9-3.9-10.2-3.9-14.1,0c-3.9,3.9-3.9,10.2,0,14.1l10.9,10.9
			c1.9,1.9,4.4,2.9,7.1,2.9h22.6c11.6,31.3,57.7,23.8,58.3-10C491.7,394.4,478.3,380.9,461.7,380.9L461.7,380.9z M461.7,420.9
			c-5.5,0-10-4.5-10-10c0.5-13.3,19.5-13.3,20,0C471.7,416.4,467.2,420.9,461.7,420.9z"/>
		<path class="st0" d="M399.9,122c2.6,0,5.1-1,7.1-2.9l8-8h18.4c11.6,31.3,57.7,23.8,58.3-10c-0.6-33.8-46.7-41.3-58.3-10h-22.6
			c-2.7,0-5.2,1.1-7.1,2.9l-10.9,10.9c-3.9,3.9-3.9,10.2,0,14.1C394.8,121,397.3,122,399.9,122L399.9,122z M461.7,91.1
			c5.5,0,10,4.5,10,10c-0.5,13.3-19.5,13.3-20,0C451.7,95.6,456.2,91.1,461.7,91.1z"/>
		<path class="st0" d="M104.9,392.9l-8,8H78.4c-11.6-31.3-57.7-23.8-58.3,10c0.6,33.8,46.7,41.3,58.3,10H101c2.7,0,5.2-1.1,7.1-2.9
			L119,407c3.9-3.9,3.9-10.2,0-14.1C115.1,389,108.8,389,104.9,392.9L104.9,392.9z M50.1,420.9c-5.5,0-10-4.5-10-10
			c0.6-13.3,19.5-13.3,20,0C60.1,416.4,55.7,420.9,50.1,420.9z"/>
	</g>
</g>
<linearGradient id="SVGID_1_" gradientUnits="userSpaceOnUse" x1="185.5" y1="325" x2="325.5" y2="185">
	<stop  offset="0" style="stop-color:#9559FF"/>
	<stop  offset="1" style="stop-color:#E655FF"/>
</linearGradient>
<path class="st1" d="M296.7,193.8c-1.3,1.3-3.3,1.5-4.8,0.6c-27.2-16.3-63-12.8-86.4,10.6s-27,59.2-10.6,86.4
	c0.9,1.5,0.7,3.5-0.6,4.8l-16,16c-1.5,1.5-1.5,4,0,5.6l14.4,14.4c1.5,1.5,4,1.5,5.6,0l16-16c1.3-1.3,3.3-1.5,4.8-0.6
	c27.2,16.3,63,12.8,86.4-10.6s27-59.2,10.6-86.4c-0.9-1.5-0.7-3.5,0.6-4.8l16-16c1.5-1.5,1.5-4,0-5.6l-14.4-14.4
	c-1.5-1.5-4-1.5-5.6,0L296.7,193.8z M285.5,285c-13.1,13.1-32.5,15.8-48.3,8.3c-4.2-2-8.2-4.8-11.7-8.3s-6.3-7.5-8.3-11.7
	c-7.5-15.8-4.8-35.2,8.3-48.3s32.5-15.8,48.3-8.3c4.2,2,8.2,4.8,11.7,8.3s6.3,7.5,8.3,11.7C301.3,252.5,298.6,271.9,285.5,285z"/>
</svg>
