<?xml version="1.0" encoding="utf-8"?>
<!-- Generator: Adobe Illustrator 23.0.5, SVG Export Plug-In . SVG Version: 6.00 Build 0)  -->
<svg version="1.1" id="Layer_1" xmlns="http://www.w3.org/2000/svg" xmlns:xlink="http://www.w3.org/1999/xlink" x="0px" y="0px"
	 viewBox="0 0 256 256" style="enable-background:new 0 0 256 256;" xml:space="preserve">
<style type="text/css">
	.st0{fill:#FFFFFF;}
	.st1{fill:url(#SVGID_1_);}
</style>
<circle class="st0" cx="128" cy="128" r="116"/>
<linearGradient id="SVGID_1_" gradientUnits="userSpaceOnUse" x1="67.1" y1="188.9" x2="188.9" y2="67.1">
	<stop  offset="0" style="stop-color:#9559FF"/>
	<stop  offset="1" style="stop-color:#E655FF"/>
</linearGradient>
<path class="st1" d="M161.9,76.7c-23.9-15.8-56.4-13.2-77.4,7.8s-23.7,53.5-7.8,77.4l-18.3,18.3l17.4,17.4l18.3-18.3
	c23.9,15.8,56.4,13.2,77.4-7.8s23.7-53.5,7.8-77.4l18.3-18.3l-17.4-17.4L161.9,76.7z M154.1,154.1c-11.4,11.4-28.3,13.8-42,7.2
	c-3.7-1.8-7.1-4.2-10.2-7.2c-3.1-3.1-5.5-6.5-7.2-10.2c-6.6-13.7-4.2-30.6,7.2-42s28.3-13.8,42-7.2c3.7,1.8,7.1,4.2,10.2,7.2
	c3.1,3.1,5.5,6.5,7.2,10.2C167.9,125.8,165.5,142.7,154.1,154.1z"/>
</svg>
