<?xml version="1.0" encoding="utf-8"?>
<!-- Generator: Adobe Illustrator 23.0.5, SVG Export Plug-In . SVG Version: 6.00 Build 0)  -->
<svg version="1.1" id="Layer_1" xmlns="http://www.w3.org/2000/svg" xmlns:xlink="http://www.w3.org/1999/xlink" x="0px" y="0px"
	 viewBox="0 0 960 250" style="enable-background:new 0 0 960 250;" xml:space="preserve">
<style type="text/css">
	.st0{fill:url(#SVGID_1_);}
	.st1{fill:#FFFFFF;}
	.st2{fill:#1E1B33;}
</style>
<linearGradient id="SVGID_1_" gradientUnits="userSpaceOnUse" x1="53.9402" y1="197.2965" x2="192.5331" y2="58.7035">
	<stop  offset="0" style="stop-color:#9559FF"/>
	<stop  offset="1" style="stop-color:#E655FF"/>
</linearGradient>
<circle class="st0" cx="123.2" cy="128" r="98"/>
<path class="st1" d="M151.9,84.6c-20.2-13.4-47.6-11.2-65.4,6.6s-20,45.2-6.6,65.4l-15.4,15.4l14.7,14.7l15.4-15.4
	c20.2,13.4,47.6,11.2,65.4-6.6s20-45.2,6.6-65.4L182,83.9l-14.7-14.7L151.9,84.6z M145.3,150.1c-9.6,9.6-23.9,11.6-35.5,6.1
	c-3.1-1.5-6-3.5-8.6-6.1c-2.6-2.6-4.6-5.5-6.1-8.6c-5.5-11.6-3.5-25.9,6.1-35.5s23.9-11.6,35.5-6.1c3.1,1.5,6,3.5,8.6,6.1
	c2.6,2.6,4.6,5.5,6.1,8.6C156.9,126.1,154.9,140.4,145.3,150.1z"/>
<g>
	<path class="st2" d="M363.9,127.6c0,6.5-1,12.6-3.1,18.4c-2.1,5.8-5,11.1-8.8,16l11,10.8l-12.6,12.6L339.1,174
		c-4.7,3.2-9.8,5.7-15.3,7.5c-5.6,1.8-11.5,2.7-17.7,2.7c-7.9,0-15.4-1.5-22.4-4.5c-7-3-13.1-7-18.4-12.2c-5.3-5.2-9.4-11.2-12.4-18
		c-3-6.9-4.5-14.2-4.5-22.1c0-7.9,1.5-15.2,4.5-22.1c3-6.9,7.1-12.9,12.4-18.1c5.3-5.2,11.4-9.2,18.4-12.2c7-3,14.5-4.5,22.4-4.5
		c7.9,0,15.4,1.5,22.5,4.5c7,3,13.2,7,18.4,12.2c5.3,5.2,9.4,11.2,12.4,18.1C362.4,112.4,363.9,119.7,363.9,127.6z M343.2,127.6
		c0-5-1-9.8-2.9-14.3c-2-4.5-4.6-8.4-7.9-11.8c-3.3-3.4-7.3-6.1-11.8-8c-4.5-2-9.3-2.9-14.5-2.9c-5.1,0-9.9,1-14.4,2.9
		c-4.5,2-8.4,4.6-11.8,8c-3.4,3.4-6,7.3-7.9,11.8c-1.9,4.5-2.9,9.2-2.9,14.3c0,5,1,9.8,2.9,14.3c1.9,4.5,4.6,8.4,7.9,11.7
		c3.4,3.3,7.3,6,11.8,7.9c4.5,2,9.3,2.9,14.4,2.9c3.5,0,6.8-0.5,9.9-1.4c3.2-0.9,6.1-2.2,9-3.8l-10.3-10l12.6-12.6l10.1,10.4
		C341.3,141.1,343.2,134.6,343.2,127.6z"/>
	<path class="st2" d="M483.2,72.8v59.5c0,7.3-1.1,14.1-3.3,20.4c-2.2,6.3-5.4,11.8-9.5,16.5c-4.2,4.7-9.2,8.4-15.2,11.1
		c-6,2.7-12.8,4-20.5,4c-7.5,0-14.3-1.3-20.3-4c-6-2.6-11.2-6.3-15.4-10.9c-4.2-4.6-7.5-10-9.8-16.3c-2.3-6.3-3.4-13-3.4-20.2V72.8
		H407v60.3c0,4.2,0.6,8.2,1.8,11.9c1.2,3.7,2.9,6.9,5.2,9.7c2.3,2.7,5.1,4.9,8.6,6.5c3.4,1.6,7.3,2.4,11.7,2.4
		c4.7,0,8.7-0.8,12.1-2.3c3.4-1.5,6.3-3.6,8.5-6.3c2.2-2.7,3.9-5.9,5.1-9.5c1.1-3.7,1.7-7.7,1.7-12.1V72.8H483.2z"/>
	<path class="st2" d="M612.1,182.4h-23.3l-10.1-21.9h-53.2l-10.3,21.9h-23.3l51.8-109.6h16.6L612.1,182.4z M570.3,142.8L552,103.3
		l-18.5,39.5H570.3z"/>
	<path class="st2" d="M703.1,153.6c0,4.1-0.9,8-2.7,11.7c-1.8,3.7-4.3,7-7.5,9.8c-3.2,2.8-7,5.1-11.4,6.8c-4.4,1.7-9.2,2.5-14.5,2.5
		c-4.8,0-9-0.3-12.8-0.8c-3.8-0.5-7.4-1.4-10.7-2.6c-3.3-1.2-6.5-2.7-9.6-4.6c-3.1-1.9-6.2-4.1-9.5-6.8l15.1-15.2
		c4.4,3.7,8.7,6.2,12.9,7.7c4.2,1.5,8.8,2.3,13.7,2.3c2,0,3.9-0.3,5.7-0.9c1.8-0.6,3.3-1.4,4.7-2.4c1.3-1,2.4-2.2,3.2-3.6
		c0.8-1.4,1.2-2.9,1.2-4.5c0-1.7-0.3-3.3-1-4.7c-0.6-1.4-1.8-2.7-3.4-4c-1.6-1.3-3.9-2.6-6.9-3.9c-2.9-1.3-6.7-2.8-11.2-4.5
		c-4-1.5-7.9-3.1-11.6-5c-3.7-1.9-6.9-4.1-9.7-6.8c-2.8-2.6-5-5.8-6.7-9.3c-1.7-3.6-2.5-7.8-2.5-12.6c0-4.7,0.9-9,2.8-12.9
		c1.9-3.9,4.4-7.3,7.7-10.1c3.2-2.8,7-5,11.4-6.5c4.3-1.6,9-2.3,14-2.3c8.4,0,15.5,1.1,21.2,3.3c5.8,2.2,10.9,5.4,15.3,9.6
		l-14.8,14.9c-2.7-2.6-5.8-4.7-9.2-6.1c-3.4-1.4-7.4-2.1-11.9-2.1c-2.1,0-4,0.3-5.8,1c-1.8,0.6-3.3,1.5-4.6,2.5
		c-1.3,1.1-2.3,2.3-3.1,3.7c-0.8,1.4-1.2,2.9-1.2,4.5c0,1.7,0.4,3.3,1.1,4.7c0.7,1.4,2,2.8,3.7,4.1c1.7,1.3,4,2.7,6.9,4
		c2.9,1.3,6.5,2.8,10.8,4.3c5.5,1.9,10.2,4,14.1,6.3c3.9,2.3,7.1,4.8,9.6,7.5c2.5,2.7,4.3,5.8,5.5,9.3
		C702.5,145.5,703.1,149.3,703.1,153.6z"/>
	<path class="st2" d="M835.6,182.4h-23.3l-10.1-21.9H749l-10.3,21.9h-23.3l51.8-109.6h16.6L835.6,182.4z M793.8,142.8l-18.2-39.5
		l-18.5,39.5H793.8z"/>
	<path class="st2" d="M935.8,182.4h-23.4l-7.8-24.9c-0.8-2.7-1.8-5.3-3.1-7.5c-1.2-2.3-2.7-4.2-4.4-5.9c-1.7-1.6-3.8-2.9-6.2-3.8
		c-2.4-0.9-5.3-1.4-8.5-1.4h-7.9v43.6h-21V72.9l43.2-0.1c4.7,0,9,0.8,13,2.4c4,1.6,7.5,3.8,10.4,6.6c2.9,2.8,5.2,6.2,6.8,10
		c1.6,3.8,2.5,8,2.5,12.5c0,3.2-0.5,6.3-1.5,9.3c-1,3-2.4,5.8-4.2,8.4c-1.8,2.6-4,4.8-6.5,6.8c-2.5,2-5.2,3.5-8.2,4.5
		c3.4,1.3,6.3,3.1,8.4,5.6c2.2,2.4,3.9,5.3,5.2,8.7c0.6,1.6,1.2,3.1,1.8,4.7c0.5,1.6,1.1,3.2,1.7,4.9c0.6,1.7,1.2,3.5,1.9,5.5
		c0.7,2,1.4,4.1,2.2,6.5c1,3,1.9,5.6,2.8,7.7C933.8,178.9,934.8,180.8,935.8,182.4z M908.1,105.8c0-2.6-0.5-4.9-1.4-7
		c-1-2.1-2.3-3.9-3.9-5.5c-1.6-1.6-3.6-2.8-5.8-3.6c-2.2-0.9-4.6-1.3-7.2-1.3h-15.3v34.1h15.3c2.6,0,5-0.4,7.2-1.2
		c2.2-0.8,4.2-1.9,5.8-3.4c1.6-1.5,2.9-3.2,3.9-5.3C907.6,110.7,908.1,108.4,908.1,105.8z"/>
</g>
</svg>
