<?xml version="1.0" encoding="utf-8"?>
<!-- Generator: Adobe Illustrator 23.0.5, SVG Export Plug-In . SVG Version: 6.00 Build 0)  -->
<svg version="1.1" id="Bold" xmlns="http://www.w3.org/2000/svg" xmlns:xlink="http://www.w3.org/1999/xlink" x="0px" y="0px"
	 viewBox="0 0 512 512" style="enable-background:new 0 0 512 512;" xml:space="preserve">
<style type="text/css">
	.st0{fill:url(#SVGID_1_);}
</style>
<g>
	<linearGradient id="SVGID_1_" gradientUnits="userSpaceOnUse" x1="107.5737" y1="424.0907" x2="443.752" y2="87.9124">
		<stop  offset="0" style="stop-color:#9559FF"/>
		<stop  offset="1" style="stop-color:#E655FF"/>
	</linearGradient>
	<path class="st0" d="M288.8,256c0,80.3-64.7,145.4-144.4,145.4S0,336.3,0,256s64.7-145.4,144.4-145.4S288.8,175.7,288.8,256
		 M447.2,256c0,75.6-32.3,136.9-72.2,136.9s-72.2-61.3-72.2-136.9s32.3-136.9,72.2-136.9S447.2,180.4,447.2,256 M512,256
		c0,67.7-11.4,122.6-25.4,122.6c-14,0-25.4-54.9-25.4-122.6s11.4-122.6,25.4-122.6C500.6,133.4,512,188.3,512,256"/>
</g>
</svg>
