<?xml version="1.0" encoding="utf-8"?>
<!-- Generator: Adobe Illustrator 23.0.5, SVG Export Plug-In . SVG Version: 6.00 Build 0)  -->
<svg version="1.1" xmlns="http://www.w3.org/2000/svg" xmlns:xlink="http://www.w3.org/1999/xlink" x="0px" y="0px"
	 viewBox="0 0 2000 2000" style="enable-background:new 0 0 2000 2000;" xml:space="preserve">
<style type="text/css">
	.st0{fill:#FFFFFF;}
	.st1{fill:#9559FF;}
	.st2{fill:#EBEBFF;}
	.st3{clip-path:url(#SVGID_2_);fill:#FFFFFF;}
	.st4{clip-path:url(#SVGID_2_);fill:#B69FFF;}
	.st5{opacity:0.8;clip-path:url(#SVGID_2_);}
	.st6{fill:#EAE1FF;}
	.st7{clip-path:url(#SVGID_2_);}
	.st8{opacity:0.7;fill:#FFF2E0;}
	.st9{fill:#FFA121;}
	.st10{opacity:0.4;fill:#FFFFFF;}
	.st11{fill:#E655FF;}
	.st12{fill:#9192FF;}
	.st13{fill:#B69FFF;}
	.st14{fill:url(#SVGID_3_);}
	.st15{fill:url(#SVGID_4_);}
	.st16{fill:url(#SVGID_5_);}
</style>
<g id="BACKGROUND">
	<rect class="st0" width="2000" height="2000"/>
</g>
<g id="OBJECTS">
	<g>
		<g>
			<path class="st1" d="M590.9,1138.4l-1.7-1.8l10.9-10.4l1.7,1.8L590.9,1138.4z M612.6,1117.7l-1.8-1.8c3.5-3.5,7.1-7.1,10.5-10.6
				l1.8,1.7C619.7,1110.6,616.1,1114.2,612.6,1117.7z M633.4,1096l-1.8-1.7c3.3-3.6,6.7-7.4,9.9-11.2l1.9,1.6
				C640.1,1088.5,636.7,1092.3,633.4,1096z M653.1,1073.2l-1.9-1.6c3.1-3.8,6.3-7.7,9.4-11.7l2,1.5
				C659.4,1065.5,656.2,1069.4,653.1,1073.2z M671.6,1049.5l-2-1.5c2.9-3.9,5.9-8,8.8-12.1l2,1.4
				C677.5,1041.5,674.5,1045.6,671.6,1049.5z M689,1025l-2.1-1.4c2.8-4.1,5.6-8.3,8.3-12.5l2.1,1.4
				C694.5,1016.7,691.8,1020.9,689,1025z M825.9,1007.7c-4.6,0-9.3-0.9-13.5-2.6l0.9-2.3c3.9,1.6,8.2,2.4,12.5,2.4
				c0.6-0.1,1.1,0,1.6,0l0.1,2.5C827.1,1007.7,826.4,1007.7,825.9,1007.7z M842.5,1003.4l-1.2-2.2c4.1-2.4,7.6-5.9,10-10.1l2.2,1.2
				C850.8,997,847,1000.8,842.5,1003.4z M705.3,999.8l-2.1-1.3c2.6-4.2,5.2-8.5,7.8-12.8l2.1,1.3C710.6,991.3,708,995.6,705.3,999.8
				z M799.8,996.3c-3.4-3.6-6.1-8-8.2-13l2.3-1c2,4.7,4.6,8.8,7.8,12.2L799.8,996.3z M857.6,977.5l-2.5-0.1l0-0.7
				c0-3.7-0.8-7.4-2.2-10.6c-0.4-0.8-0.8-1.6-1.2-2.4l2.2-1.2c0.5,0.9,0.9,1.7,1.3,2.6c1.6,3.5,2.4,7.5,2.4,11.6L857.6,977.5z
				 M721.7,974.9l-1.9-1.6c3.2-3.9,6.8-7.5,10.7-10.8l1.6,1.9C728.3,967.6,724.8,971.2,721.7,974.9z M787.7,968.6
				c-0.3-2.4-0.4-4.8-0.4-7.2c0-2.6,0.2-5.3,0.5-8l2.5,0.3c-0.3,2.6-0.5,5.2-0.5,7.7c0,2.3,0.1,4.7,0.4,6.9L787.7,968.6z M744,955.6
				l-1.3-2.1c4.2-2.6,8.8-5,13.5-7l1,2.3C752.5,950.8,748.1,953.1,744,955.6z M842,953.1c-3.6-2.8-7.9-5.2-12.8-7.1l0.9-2.3
				c5,2,9.5,4.5,13.4,7.4L842,953.1z M771.1,943.9l-0.7-2.4c4.9-1.3,9.9-2.3,14.9-2.9l0.3,2.5C780.7,941.7,775.8,942.6,771.1,943.9z
				 M815.1,941.9c-4.7-0.9-9.7-1.4-14.7-1.5l0.1-2.5c5.2,0.1,10.2,0.7,15.1,1.6L815.1,941.9z M793.7,939.3l-2.4-0.8
				c1.7-4.7,3.9-9.4,6.6-13.7l2.1,1.3C797.5,930.3,795.4,934.8,793.7,939.3z M809,914.3l-1.8-1.7c0.7-0.8,1.5-1.6,2.2-2.3
				c2.8-2.8,5.9-5.4,9.1-7.8l1.5,2c-3.2,2.3-6.2,4.9-8.9,7.5C810.4,912.8,809.7,913.6,809,914.3z M832.7,896.9l-1.1-2.2
				c4.5-2.2,9.3-4.1,14.1-5.6l0.7,2.4C841.7,892.9,837.1,894.7,832.7,896.9z M860.9,887.7l-0.6-2.4c4.9-1.3,9.7-2.6,14.5-3.9
				l0.7,2.4C870.7,885.1,865.8,886.5,860.9,887.7z M889.8,879.5l-0.7-2.4c4.8-1.5,9.6-3.1,14.2-4.7l0.8,2.4
				C899.4,876.4,894.6,878,889.8,879.5z M918.2,869.6l-0.9-2.3c4.7-1.8,9.3-3.7,13.8-5.7l1,2.3C927.6,865.8,922.9,867.7,918.2,869.6
				z M945.8,857.6l-1.1-2.3l13.5-6.6l1.1,2.2L945.8,857.6z M972.8,844.5l-1.1-2.2l13.5-6.6l1.1,2.2L972.8,844.5z M999.8,831.4
				l-1.1-2.2l13.5-6.6l1.1,2.2L999.8,831.4z M1026.7,818.3l-1.1-2.2l13.5-6.6l1.1,2.2L1026.7,818.3z M1053.7,805.2l-1.1-2.2
				l13.5-6.6l1.1,2.2L1053.7,805.2z"/>
			<path class="st2" d="M1007.6,340.3c0,0.5,0,1,0.1,1.5h328.8c-0.9-27.1-24.4-48.8-53.4-48.8c-9.3,0-18,2.2-25.6,6.1
				c0.4-21.1-9.7-41.3-28.4-52.1c-28-16.2-64.7-5.2-81.8,24.6c-5.2,9-8,18.7-8.6,28.3c-13.7-6.3-30.6-10-49-10
				C1044.3,289.9,1007.6,312.5,1007.6,340.3z"/>
			<path class="st1" d="M460.7,1108.5H189.6l0-1c0.7-22.9,20.3-40.9,44.7-40.9c6.9,0,13.8,1.5,20,4.5c0.2-17.6,9.2-33.6,23.7-42
				c10.8-6.3,23.7-7.9,36.1-4.6c13.5,3.6,25,12.5,32.2,25.1c4,7,6.4,14.5,7.1,22.2c11.5-5.1,25.1-7.7,39.3-7.7
				c37.6,0,68.1,18.9,68.1,42.2c0,0.5,0,0.9-0.1,1.4L460.7,1108.5z M191.5,1106.7h267.4c0-0.1,0-0.2,0-0.3
				c0-22.2-29.7-40.3-66.2-40.3c-14.4,0-28.2,2.8-39.7,8.1l-1.2,0.6l-0.1-1.4c-0.5-8-2.9-15.6-7-22.8c-7-12.1-18-20.7-31-24.2
				c-12-3.2-24.3-1.7-34.7,4.4c-14.4,8.4-23.1,24.4-22.8,41.9l0,1.6l-1.4-0.7c-6.3-3.2-13.4-4.9-20.5-4.9
				C211.3,1068.5,192.7,1085.2,191.5,1106.7z"/>
		</g>
		<g>
			<g>
				<defs>
					<path id="SVGID_1_" d="M990.8,1081.5c0,31.9,25.9,57.9,57.9,57.9h642.6c31.9,0,57.9-25.9,57.9-57.9v-391H990.8V1081.5z"/>
				</defs>
				<clipPath id="SVGID_2_">
					<use xlink:href="#SVGID_1_"  style="overflow:visible;"/>
				</clipPath>
				<path class="st3" d="M990.8,1081.5c0,31.9,25.9,57.9,57.9,57.9h642.6c31.9,0,57.9-25.9,57.9-57.9v-391H990.8V1081.5z"/>
				<path class="st4" d="M951.1,790.3c8.9-28.4,36.9-50.2,67.5-52.5c30.6-2.3,61.9,15,75.3,41.8c16.3-0.2,32.4,8.9,40.3,22.7
					c7.9,13.8,7.4,31.7-1.4,45c19.4,3.4,36.8,16.1,45.4,33.3c8.6,17.2,8.1,38.3-1.2,55c21.4-10.9,48.7-9.9,69.2,2.5
					c20.5,12.4,33.4,35.7,32.7,59c13.3-20.9,38.8-33.9,64.2-32.7c25.4,1.2,49.6,16.4,60.8,38.4c11.9-35.6,43.7-64.4,81.2-73.6
					c37.6-9.2,79.7,1.5,107.9,27.3c42.3,6.6,73.1,52.5,62.1,92.5c22.8,18.9,34.5,49.6,29.7,78.3c-4.8,28.7-25.8,54.3-53.7,65.2
					l-727.7-0.5l-62-277.6L951.1,790.3z"/>
				<g class="st5">
					<path class="st6" d="M939.6,882.5c8.6-28.4,35.7-50.3,65.3-52.6c29.6-2.3,59.8,15,72.7,41.7c15.8-0.2,31.3,8.9,38.9,22.6
						c7.6,13.8,7.1,31.7-1.4,45c18.8,3.3,35.6,16.1,43.9,33.3c8.3,17.2,7.8,38.3-1.2,55c20.7-10.9,47.1-9.9,66.8,2.4
						c19.8,12.4,32.3,35.7,31.5,59c12.9-20.9,37.5-33.9,62-32.8c24.5,1.1,47.9,16.4,58.8,38.4c11.5-35.6,42.2-64.4,78.5-73.7
						c36.3-9.2,77,1.4,104.2,27.2c40.9,6.6,70.6,52.5,59.9,92.5c22.1,18.9,33.3,49.6,28.7,78.3c-4.6,28.7-25,54.3-51.9,65.2
						l-703.1,0.1l-59.7-277.6L939.6,882.5z"/>
				</g>
				<g class="st7">
					<path class="st8" d="M1498.5,703.1c-210.6,198.1-360,251.5-548.1,270.6l-12.5,200l197.5,67.5c172.5-5,338.1-254.7,440.4-469
						L1498.5,703.1"/>
					<path class="st9" d="M1528.2,705.7c-34.2,40.5-85.9,79.3-146.8,131.6l83.1-33.9c-10.2,16.9-25,40.5-33.4,50.7
						c19.2-8.8,50-28.3,60.2-38.6c0,14.4-17.3,38.5-24.9,51.6c44.3-37.9,84.7-84.3,97.7-124.9L1528.2,705.7"/>
					<path class="st10" d="M1537.9,707.7c-20.3,26.9-50.6,52.7-86.4,87.6l48.5-23c-6.1,11.2-14.9,26.8-19.8,33.5
						c11.2-6,29.2-19,35.3-25.9c-0.2,9.4-10.4,25.3-15,34c26.1-25.3,49.9-56,57.9-82.7L1537.9,707.7"/>
				</g>
				<path class="st4" d="M1223.4,845.3c0.3,6.3,0,16.8-6.3,20.5c-10.4,6-18.7-8.6-22.5-16c-4.6-8.8-3.4-19.7,6.9-23.7
					C1215.2,820.9,1222.9,833.6,1223.4,845.3z"/>
				<path class="st4" d="M1718.5,1035.4c0.3,6.3,0,16.8-6.3,20.5c-10.4,6-18.7-8.6-22.5-16c-4.6-8.8-3.4-19.7,6.9-23.7
					C1710.3,1011,1718,1023.7,1718.5,1035.4z"/>
				<circle class="st4" cx="1167.9" cy="774.5" r="8.8"/>
				
					<ellipse transform="matrix(0.8955 -0.4451 0.4451 0.8955 -246.4298 815.2778)" class="st4" cx="1612.9" cy="932.4" rx="13.3" ry="13.3"/>
			</g>
			<g>
				<path class="st1" d="M1691.2,1140.6h-642.6c-32.6,0-59.1-26.5-59.1-59.1V689.3h760.8v392.2
					C1750.3,1114.1,1723.8,1140.6,1691.2,1140.6z M992,691.8v389.7c0,31.2,25.4,56.6,56.6,56.6h642.6c31.2,0,56.6-25.4,56.6-56.6
					V691.8H992z"/>
				<g>
					<path class="st0" d="M1691.2,539.1h-642.6c-31.9,0-57.9,25.9-57.9,57.9v93.6h758.3V597C1749.1,565,1723.1,539.1,1691.2,539.1z"
						/>
					<path class="st1" d="M1750.3,691.8H989.5V597c0-32.6,26.5-59.1,59.1-59.1h642.6c32.6,0,59.1,26.5,59.1,59.1V691.8z M992,689.3
						h755.8V597c0-31.2-25.4-56.6-56.6-56.6h-642.6c-31.2,0-56.6,25.4-56.6,56.6V689.3z"/>
				</g>
				<g>
					
						<ellipse transform="matrix(0.1989 -0.98 0.98 0.1989 252.3444 1538.3956)" class="st6" cx="1067.2" cy="614.8" rx="31.7" ry="31.7"/>
					<g>
						
							<ellipse transform="matrix(0.7071 -0.7071 0.7071 0.7071 -94.8328 1000.7441)" class="st0" cx="1160.6" cy="614.8" rx="31.7" ry="31.7"/>
						<path class="st1" d="M1160.6,647.8c-18.2,0-33-14.8-33-33c0-18.2,14.8-33,33-33s33,14.8,33,33
							C1193.6,633,1178.8,647.8,1160.6,647.8z M1160.6,584.4c-16.8,0-30.5,13.7-30.5,30.5s13.7,30.5,30.5,30.5s30.5-13.7,30.5-30.5
							S1177.4,584.4,1160.6,584.4z"/>
					</g>
					<g>
						<path class="st0" d="M1402,645.1h-126.3c-16.7,0-30.3-13.6-30.3-30.3v0c0-16.7,13.6-30.3,30.3-30.3H1402
							c16.7,0,30.3,13.6,30.3,30.3v0C1432.3,631.6,1418.7,645.1,1402,645.1z"/>
						<path class="st1" d="M1402,646.4h-126.3c-17.4,0-31.5-14.1-31.5-31.5c0-17.4,14.1-31.5,31.5-31.5H1402
							c17.4,0,31.5,14.1,31.5,31.5C1433.5,632.2,1419.4,646.4,1402,646.4z M1275.7,585.8c-16,0-29,13-29,29s13,29,29,29H1402
							c16,0,29-13,29-29s-13-29-29-29H1275.7z"/>
					</g>
				</g>
			</g>
			<g>
				<g>
					<path class="st1" d="M1659.8,470.1c-50.6,44.3-138,13.8-165.1,49.2l77.6,61.4L1659.8,470.1z"/>
					<path class="st1" d="M1494.6,519.3L1494.6,519.3c-3.9,10.3-1.8,21.9,5.5,30.3l55,62.9l17.1-31.8L1494.6,519.3z"/>
				</g>
				<g>
					<path class="st1" d="M1774.5,561c-31.5,59.5,18.2,137.5-10,172l-77.6-61.4L1774.5,561z"/>
					<path class="st1" d="M1764.5,733L1764.5,733c-9.2,6.1-21,6.8-30.7,1.6l-73.9-39.1l27-24L1764.5,733z"/>
				</g>
				<polygon class="st11" points="1813.9,393.9 1744.9,419.3 1805.1,466.9 				"/>
				<path class="st6" d="M1805.1,466.9c-9.6,109.3-90.4,211.2-188.4,267.8l-89.3-70.7c37.5-118,107.3-202.4,217.6-244.8
					L1805.1,466.9z"/>
				<polygon class="st1" points="1527.3,664.1 1488.6,690.9 1599.4,778.7 1616.7,734.8 				"/>
				<g>
					
						<ellipse transform="matrix(0.993 -0.1181 0.1181 0.993 -48.6434 206.5385)" class="st0" cx="1719" cy="513.8" rx="41.5" ry="41.5"/>
				</g>
				<path class="st11" d="M1514.6,773.9l-2-1.6c-2.9-2.3-3.4-6.5-1.1-9.4l77.8-98.2c2.3-2.9,6.5-3.4,9.4-1.1l2,1.6
					c2.9,2.3,3.4,6.5,1.1,9.4l-77.8,98.2C1521.8,775.7,1517.5,776.2,1514.6,773.9z"/>
			</g>
		</g>
		<g>
			<path class="st12" d="M1652.4,1630h-15v-2.5h15V1630z M1622.4,1630h-15v-2.5h15V1630z M1592.4,1630h-15v-2.5h15V1630z
				 M1562.4,1630h-15v-2.5h15V1630z M1532.4,1630h-15v-2.5h15V1630z M1502.4,1630h-15v-2.5h15V1630z M1472.4,1630h-15v-2.5h15V1630z
				 M1442.4,1630h-15v-2.5h15V1630z M1412.4,1630h-15v-2.5h15V1630z M1382.4,1630h-15v-2.5h15V1630z M1352.4,1630
				c-5.2,0-10.3-0.9-15.1-2.6l0.8-2.4c4.6,1.6,9.4,2.4,14.3,2.4L1352.4,1630z M1654.2,1630l-0.1-2.5c4.9-0.2,9.7-1.1,14.2-2.8
				l0.9,2.3C1664.4,1628.8,1659.3,1629.8,1654.2,1630z M1323.7,1620.2c-4.1-3.1-7.6-6.9-10.5-11.1l2.1-1.4c2.8,4,6.1,7.6,10,10.5
				L1323.7,1620.2z M1682.5,1619.3l-1.6-1.9c3.8-3.1,7.1-6.7,9.7-10.8l2.1,1.4C1690,1612.2,1686.5,1616.1,1682.5,1619.3z
				 M1306.7,1595.2c-1.2-4.2-1.8-8.7-1.8-13.1v-2h2.5v2c0,4.2,0.6,8.4,1.7,12.4L1306.7,1595.2z M1698.9,1593.9l-2.4-0.6
				c0.9-3.6,1.4-7.4,1.4-11.2v-3.4h2.5v3.4C1700.3,1586,1699.8,1590,1698.9,1593.9z M1307.4,1565h-2.5v-15h2.5V1565z M1700.3,1563.7
				h-2.5v-15h2.5V1563.7z M1307.4,1535h-2.5v-15h2.5V1535z M1700.3,1533.7h-2.5v-15h2.5V1533.7z M1307.4,1505h-2.5v-15h2.5V1505z
				 M1700.3,1503.7h-2.5v-15h2.5V1503.7z M1307.4,1475h-2.5v-15h2.5V1475z M1700.3,1473.7h-2.5v-15h2.5V1473.7z M1307.4,1445h-2.5
				v-15h2.5V1445z M1700.3,1443.7h-2.5v-15h2.5V1443.7z M1307.4,1415h-2.5v-10c0-1.7,0.1-3.4,0.3-5.1l2.5,0.3
				c-0.2,1.6-0.3,3.2-0.3,4.9V1415z M1700.3,1413.7h-2.5v-8.7c0-2.1-0.1-4.1-0.4-6.1l2.5-0.3c0.3,2.1,0.4,4.3,0.4,6.5V1413.7z
				 M1311.4,1386.1l-2.3-1c2.1-4.7,5-9,8.5-12.7l1.8,1.7C1316.2,1377.6,1313.5,1381.7,1311.4,1386.1z M1693.2,1385
				c-2.2-4.4-5-8.4-8.4-11.8l1.8-1.8c3.6,3.7,6.6,7.9,8.9,12.5L1693.2,1385z M1331,1365.1l-1.2-2.2c4.5-2.5,9.4-4.2,14.5-5.1
				l0.4,2.5C1339.9,1361.1,1335.3,1362.8,1331,1365.1z M1673,1364.5c-4.3-2.2-9-3.7-13.8-4.5l0.4-2.5c5.1,0.8,10,2.3,14.6,4.7
				L1673,1364.5z M1644.4,1359.5h-15v-2.5h15V1359.5z M1614.4,1359.5h-15v-2.5h15V1359.5z M1584.4,1359.5h-15v-2.5h15V1359.5z
				 M1554.4,1359.5h-15v-2.5h15V1359.5z M1524.4,1359.5h-15v-2.5h15V1359.5z M1494.4,1359.5h-15v-2.5h15V1359.5z M1464.4,1359.5h-15
				v-2.5h15V1359.5z M1434.4,1359.5h-15v-2.5h15V1359.5z M1404.4,1359.5h-15v-2.5h15V1359.5z M1374.4,1359.5h-15v-2.5h15V1359.5z"/>
			<path class="st13" d="M1625,1586.7h-319.1c-20.4,0-36.9-16.5-36.9-36.9v-204.1c0-20.4,16.5-36.9,36.9-36.9H1625
				c20.4,0,36.9,16.5,36.9,36.9v204.1C1661.9,1570.1,1645.4,1586.7,1625,1586.7z"/>
			<g>
				<rect x="1337.3" y="1471.1" class="st0" width="42.5" height="86.4"/>
				<rect x="1408.5" y="1473.9" class="st0" width="42.5" height="83.6"/>
				<rect x="1479.8" y="1430.2" class="st0" width="42.5" height="127.3"/>
				<rect x="1551" y="1392.8" class="st0" width="42.5" height="164.7"/>
			</g>
			<rect x="1351.3" y="1347.9" class="st0" width="228.3" height="10"/>
		</g>
		<g>
			<path class="st1" d="M600.7,573.1c-64.6,0-117.2-52.6-117.2-117.2c0-64.6,52.6-117.2,117.2-117.2c64.6,0,117.2,52.6,117.2,117.2
				C718,520.5,665.4,573.1,600.7,573.1z M600.7,341.2c-63.3,0-114.7,51.5-114.7,114.7c0,63.3,51.5,114.7,114.7,114.7
				s114.7-51.5,114.7-114.7C715.5,392.6,664,341.2,600.7,341.2z"/>
			<g>
				<circle class="st6" cx="680" cy="410" r="127.5"/>
				<polygon class="st1" points="680,412.4 609.3,357 611.7,354 680,407.5 718,375.3 720.5,378.2 				"/>
			</g>
		</g>
		<g>
			<g>
				<path class="st0" d="M349,685h-64.8c-10.4,0-18.9,8.4-18.9,18.9v64.8c0,10.4,8.4,18.9,18.9,18.9h46.2l19.9,27.5v-27.6
					c9.8-0.7,17.5-8.8,17.5-18.8v-64.8C367.9,693.4,359.5,685,349,685z"/>
				<path class="st1" d="M351.7,818.9l-21.8-30.1h-45.6c-11.1,0-20.1-9-20.1-20.1v-64.8c0-11.1,9-20.1,20.1-20.1H349
					c11.1,0,20.1,9,20.1,20.1v64.8c0,10.1-7.6,18.6-17.5,19.9V818.9z M284.3,686.2c-9.7,0-17.6,7.9-17.6,17.6v64.8
					c0,9.7,7.9,17.6,17.6,17.6h46.9l18,24.9v-24.9l1.2-0.1c9.2-0.7,16.3-8.4,16.3-17.6v-64.8c0-9.7-7.9-17.6-17.6-17.6H284.3z"/>
			</g>
			<polygon class="st1" points="315.3,769.6 289.4,732.1 295.6,727.9 314.7,755.4 343.4,704 349.9,707.7 			"/>
		</g>
	</g>
	
		<linearGradient id="SVGID_3_" gradientUnits="userSpaceOnUse" x1="438.4996" y1="355.0296" x2="752.455" y2="668.985" gradientTransform="matrix(1 0 0 -1 0 2002)">
		<stop  offset="0" style="stop-color:#9559FF"/>
		<stop  offset="1" style="stop-color:#E655FF"/>
	</linearGradient>
	<circle class="st14" cx="595.5" cy="1490" r="222"/>
	<path class="st0" d="M660.4,1391.8c-45.7-30.3-107.9-25.3-148.2,15c-40.3,40.3-45.3,102.5-15,148.2l-35,35l33.3,33.3l35-35
		c45.7,30.3,107.9,25.3,148.2-15c40.3-40.3,45.3-102.5,15-148.2l35-35l-33.3-33.3L660.4,1391.8z M645.4,1539.9
		c-21.8,21.8-54.1,26.4-80.4,13.8c-7-3.4-13.7-8-19.5-13.8c-5.8-5.8-10.4-12.5-13.8-19.5c-12.5-26.3-7.9-58.7,13.8-80.4
		s54.1-26.4,80.4-13.8c7,3.4,13.7,8,19.5,13.8c5.8,5.8,10.4,12.5,13.8,19.5C671.8,1485.8,667.2,1518.2,645.4,1539.9z"/>
	
		<linearGradient id="SVGID_4_" gradientUnits="userSpaceOnUse" x1="1558.7131" y1="1691.793" x2="1700.1345" y2="1833.2144" gradientTransform="matrix(1 0 0 -1 0 2002)">
		<stop  offset="2.523417e-04" style="stop-color:#9559FF"/>
		<stop  offset="0.9995" style="stop-color:#E655FF"/>
	</linearGradient>
	<circle class="st15" cx="1629.4" cy="239.5" r="100"/>
	<path class="st0" d="M1658.7,195.2c-20.6-13.6-48.6-11.4-66.8,6.8s-20.4,46.2-6.8,66.8l-15.8,15.8l15,15l15.8-15.8
		c20.6,13.6,48.6,11.4,66.8-6.8s20.4-46.2,6.8-66.8l15.8-15.8l-15-15L1658.7,195.2z M1651.9,262c-9.8,9.8-24.4,11.9-36.2,6.2
		c-3.2-1.5-6.2-3.6-8.8-6.2s-4.7-5.6-6.2-8.8c-5.7-11.8-3.6-26.4,6.2-36.2c9.8-9.8,24.4-11.9,36.2-6.2c3.2,1.5,6.2,3.6,8.8,6.2
		c2.6,2.6,4.7,5.6,6.2,8.8C1663.8,237.6,1661.7,252.2,1651.9,262z"/>
	
		<linearGradient id="SVGID_5_" gradientUnits="userSpaceOnUse" x1="1690.9603" y1="541.8422" x2="1746.9603" y2="485.8422" gradientTransform="matrix(0.8488 0.5288 -0.5288 0.8488 531.6927 -831.243)">
		<stop  offset="2.523417e-04" style="stop-color:#9559FF"/>
		<stop  offset="0.9995" style="stop-color:#E655FF"/>
	</linearGradient>
	<path class="st16" d="M1744.7,502.1c-5.5-12-18.8-18.9-32.1-15.8c-13.3,3.1-22.2,15.1-21.9,28.3l-11.6,2.7l2.6,11l11.6-2.7
		c5.5,12,18.8,18.9,32.1,15.8s22.2-15.1,21.9-28.3l11.6-2.7l-2.6-11L1744.7,502.1z M1722.8,530.4c-7.2,1.7-14.4-1.5-18.1-7.4
		c-1-1.6-1.8-3.4-2.2-5.3s-0.5-3.9-0.3-5.7c0.8-6.9,5.8-13,13-14.6s14.4,1.5,18.1,7.4c1,1.6,1.8,3.4,2.2,5.3
		c0.4,1.9,0.5,3.9,0.3,5.7C1735.1,522.7,1730,528.7,1722.8,530.4z"/>
</g>
</svg>
