<?xml version="1.0" encoding="utf-8"?>
<!-- Generator: Adobe Illustrator 23.0.5, SVG Export Plug-In . SVG Version: 6.00 Build 0)  -->
<svg version="1.1" id="Layer_1" xmlns="http://www.w3.org/2000/svg" xmlns:xlink="http://www.w3.org/1999/xlink" x="0px" y="0px"
	 viewBox="0 0 512 512" style="enable-background:new 0 0 512 512;" xml:space="preserve">
<style type="text/css">
	.st0{fill:#9559FF;}
	.st1{fill:url(#SVGID_1_);}
</style>
<g>
	<g>
		<path class="st0" d="M502,246h-18.6L472,226.2c-1.8-3.1-5.1-5-8.7-5h-22.9l-62.1-107.6l11.4-19.8c1.8-3.1,1.8-6.9,0-10L378.4,64
			l9.3-16.1c2.8-4.8,1.1-10.9-3.7-13.7c-4.8-2.8-10.9-1.1-13.7,3.7L361,54h-22.8c-3.6,0-6.9,1.9-8.7,5l-11.4,19.8l-124.2,0L182.5,59
			c-1.8-3.1-5.1-5-8.7-5h-22.9l-9.3-16.1c-2.8-4.8-8.9-6.4-13.7-3.7c-4.8,2.8-6.4,8.9-3.7,13.7l9.3,16.1l-11.4,19.8
			c-1.8,3.1-1.8,6.9,0,10l11.4,19.8L71.5,221.2H48.7c-3.6,0-6.9,1.9-8.7,5L28.6,246H9.9c-13.3,0.5-13.3,19.5,0,20h18.6L40,285.8
			c1.8,3.1,5.1,5,8.7,5h22.9l62.1,107.6l-11.4,19.8c-1.8,3.1-1.8,6.9,0,10l11.4,19.8l-9.3,16.1c-2.8,4.8-1.1,10.9,3.7,13.7
			c4.7,2.7,10.9,1.2,13.7-3.7l9.3-16.1h22.8c3.6,0,6.9-1.9,8.7-5l11.4-19.8l124.2,0l11.4,19.8c1.8,3.1,5.1,5,8.7,5h22.9l9.3,16.1
			c2.8,4.8,9,6.4,13.7,3.7c4.8-2.8,6.4-8.9,3.7-13.7l-9.3-16.1l11.4-19.8c1.8-3.1,1.8-6.9,0-10l-11.4-19.8l62.1-107.5h22.9
			c3.6,0,6.9-1.9,8.7-5l11.4-19.8H502C515.3,265.5,515.3,246.5,502,246L502,246z M361,388.4h-17.1l-14.3-24.8l56.3-97.5h28.7
			l8.6,14.8L361,388.4z M193.9,413.1l-8.5-14.8l14.3-24.8h112.6l14.3,24.8l-8.5,14.8L193.9,413.1z M150.9,388.3L88.9,280.8l8.5-14.8
			H126l56.3,97.5L168,388.3L150.9,388.3L150.9,388.3z M151,123.6h17l14.3,24.8l-5.6,9.8c-2.8,4.8-1.1,10.9,3.7,13.7
			c4.8,2.8,10.9,1.1,13.7-3.7l5.6-9.8h112.6l56.3,97.5l-56.3,97.5H199.7L143.4,256l5.6-9.8c2.8-4.8,1.1-10.9-3.7-13.7
			c-4.8-2.8-10.9-1.1-13.7,3.7L126,246H97.4l-8.6-14.8L151,123.6z M318.1,98.9l8.5,14.8l-14.4,24.9H199.7l-14.3-24.8l8.6-14.8
			L318.1,98.9z M361.1,123.7l62.1,107.6l-8.5,14.8h-28.7l-56.3-97.5l14.3-24.8L361.1,123.7z M344,74.1h17.1l8.5,14.8l-8.5,14.8H344
			l-8.5-14.8L344,74.1z M176.6,88.8l-8.5,14.8H151l-8.5-14.8L151,74h17.1L176.6,88.8z M45.9,256l8.5-14.8h17.1l8.5,14.8l-8.5,14.8
			H54.4L45.9,256z M168,437.9h-17.1l-8.5-14.8l8.5-14.8H168l8.5,14.8L168,437.9z M335.4,423.2l8.5-14.8H361l8.5,14.8L361,438h-17.1
			L335.4,423.2z M457.6,270.8h-17.1l-8.5-14.8l8.5-14.8h17.1l8.5,14.8L457.6,270.8z"/>
		<path class="st0" d="M256,60c16.5,0,30-13.5,30-30c-1.6-39.8-58.4-39.8-60,0C226,46.5,239.5,60,256,60L256,60z M256,20
			c5.5,0,10,4.5,10,10c-0.5,13.3-19.5,13.3-20,0C246,24.4,250.5,20,256,20L256,20z"/>
		<path class="st0" d="M45.2,168.9c4.6,2.7,9.8,4,15,4c10.6,0.1,20.8-5.8,26-15c4-6.9,5.1-15,3-22.8c-2.1-7.7-7-14.2-14-18.2
			c-6.9-4-15-5.1-22.8-3c-7.7,2.1-14.2,7-18.2,14c-4,6.9-5.1,15-3,22.8C33.3,158.5,38.3,164.9,45.2,168.9L45.2,168.9z M51.6,138
			c1.3-2.3,3.5-4,6.1-4.7c2.6-0.7,5.3-0.3,7.6,1c4.7,2.6,6.4,9.1,3.7,13.7c-1.3,2.3-3.5,4-6.1,4.7c-2.6,0.7-5.3,0.3-7.6-1
			C50.5,149,48.8,142.6,51.6,138z"/>
		<path class="st0" d="M68,340c-25.6-7-47.1,21-33.8,44c8.3,14.5,26.9,19.2,41,11c6.9-4,11.9-10.5,14-18.2s1-15.8-3-22.8
			C82.2,347.1,75.7,342.1,68,340z M69.9,371.6c-0.7,2.6-2.3,4.7-4.7,6.1c-4.8,2.8-10.9,1.1-13.7-3.7c-2.8-4.8-1.1-10.9,3.7-13.7
			c2.3-1.3,5-1.7,7.6-1c2.6,0.7,4.7,2.3,6.1,4.7C70.2,366.3,70.6,369,69.9,371.6z"/>
		<path class="st0" d="M256,452c-16.5,0-30,13.5-30,30c1.6,39.8,58.4,39.8,60,0C286,465.5,272.5,452,256,452z M256,492
			c-5.5,0-10-4.5-10-10c0.5-13.3,19.5-13.3,20,0C266,487.6,261.5,492,256,492z"/>
		<path class="st0" d="M466.7,343.1c-14.3-8.3-32.7-3.3-41,11c-4,6.9-5.1,15-3,22.8c2.1,7.7,7,14.2,14,18.2c14.1,8.2,32.7,3.5,41-11
			c0,0,0,0,0,0c4-6.9,5.1-15,3-22.8C478.6,353.5,473.7,347.1,466.7,343.1z M460.4,374c-2.8,4.8-8.9,6.4-13.7,3.7
			c-4.7-2.6-6.4-9.1-3.7-13.7c2.8-4.8,9-6.4,13.7-3.7C461.5,363.1,463.1,369.3,460.4,374z"/>
		<path class="st0" d="M444,172c7.7,2.1,15.8,1,22.8-3c6.9-4,11.9-10.5,14-18.2c2.1-7.7,1-15.8-3-22.8c-8.3-14.3-26.7-19.3-41-11
			C413.7,130.2,418.3,165.2,444,172z M446.7,134.3c2.3-1.3,5-1.7,7.6-1c2.6,0.7,4.7,2.3,6.1,4.7c2.8,4.8,1.1,10.9-3.7,13.7
			c-2.3,1.3-5,1.7-7.6,1c-2.6-0.7-4.7-2.3-6.1-4.7C440.3,143.2,442,137.1,446.7,134.3z"/>
		<path class="st0" d="M162.9,212.2c13.3-0.5,13.3-19.5,0-20h0C149.6,192.8,149.6,211.7,162.9,212.2z"/>
	</g>
</g>
<linearGradient id="SVGID_1_" gradientUnits="userSpaceOnUse" x1="198.3377" y1="312.1623" x2="312.6623" y2="197.8377">
	<stop  offset="0" style="stop-color:#9559FF"/>
	<stop  offset="1" style="stop-color:#E655FF"/>
</linearGradient>
<path class="st1" d="M289.2,205c-1,1-2.7,1.2-3.9,0.5c-22.2-13.4-51.4-10.5-70.6,8.7s-22,48.4-8.7,70.6c0.8,1.3,0.6,2.9-0.5,3.9
	l-13.1,13.1c-1.3,1.3-1.3,3.3,0,4.5l11.8,11.8c1.3,1.3,3.3,1.3,4.5,0l13.1-13.1c1-1,2.7-1.2,3.9-0.5c22.2,13.4,51.4,10.5,70.6-8.7
	s22-48.4,8.7-70.6c-0.8-1.3-0.6-2.9,0.5-3.9l13.1-13.1c1.3-1.3,1.3-3.3,0-4.5l-11.8-11.8c-1.3-1.3-3.3-1.3-4.5,0L289.2,205z
	 M280,279.5c-10.7,10.7-26.6,12.9-39.4,6.8c-3.5-1.7-6.7-3.9-9.6-6.8c-2.9-2.9-5.1-6.1-6.8-9.6c-6.2-12.9-3.9-28.8,6.8-39.4
	s26.6-12.9,39.4-6.8c3.5,1.7,6.7,3.9,9.6,6.8c2.9,2.9,5.1,6.1,6.8,9.6C292.9,252.9,290.7,268.8,280,279.5z"/>
</svg>
