<?xml version="1.0" encoding="utf-8"?>
<!-- Generator: Adobe Illustrator 23.0.5, SVG Export Plug-In . SVG Version: 6.00 Build 0)  -->
<svg version="1.1" id="Layer_1" xmlns="http://www.w3.org/2000/svg" xmlns:xlink="http://www.w3.org/1999/xlink" x="0px" y="0px"
	 viewBox="0 0 512 512" style="enable-background:new 0 0 512 512;" xml:space="preserve">
<style type="text/css">
	.st0{fill:#9559FF;}
	.st1{fill:url(#SVGID_1_);}
</style>
<g id="Processor_security">
	<path class="st0" d="M216,88h16v16h-16V88z"/>
	<path class="st0" d="M424,280h16v16h-16V280z"/>
	<path class="st0" d="M280,408h16v16h-16V408z"/>
	<path class="st0" d="M216,432h16v16h-16V432z"/>
	<path class="st0" d="M88,248h16v16H88V248z"/>
	<path class="st0" d="M280,88h16v16h-16V88z"/>
	<path class="st0" d="M408,216h16v16h-16V216z"/>
	<path class="st0" d="M368,136h16v16h-16V136z"/>
	<path class="st0" d="M128,136h16v16h-16V136z"/>
	<path class="st0" d="M368,360h16v16h-16V360z"/>
	<path class="st0" d="M128,360h16v16h-16V360z"/>
	<path class="st0" d="M472,328c-3.6,0-7.1,0.8-10.3,2.4L443.3,312H368v-16h40v-16h-40v-16h41.9l45.5-22.8c9.6,9.2,24.7,8.8,33.9-0.7
		s8.8-24.7-0.7-33.9s-24.7-8.8-33.9,0.7c-4.3,4.5-6.7,10.4-6.7,16.6c0,1,0.1,1.9,0.3,2.9L406.1,248H368v-16h24v-16h-24v-16h35.3
		l26.4-26.4c3.2,1.6,6.7,2.4,10.3,2.4c13.3,0,24-10.7,24-24s-10.7-24-24-24s-24,10.7-24,24c0,3.6,0.8,7.1,2.4,10.3L396.7,184H368
		c0-22.1-17.9-40-40-40v-20.7l45.7-45.7c3.2,1.6,6.7,2.4,10.3,2.4c13.3,0,24-10.7,24-24s-10.7-24-24-24s-24,10.7-24,24
		c0,3.6,0.8,7.1,2.4,10.3L312,116.7V144h-16v-24h-16v24h-16V86.5c12.5-4.4,19-18.1,14.6-30.6s-18.1-19-30.6-14.6
		c-12.5,4.4-19,18.1-14.6,30.6c2.4,6.8,7.8,12.2,14.6,14.6V144h-16v-24h-16v24h-16V84.7l-34.4-34.4c1.6-3.2,2.4-6.7,2.4-10.3
		c0-13.3-10.7-24-24-24s-24,10.7-24,24s10.7,24,24,24c3.6,0,7.1-0.8,10.3-2.4L184,91.3V144c-22.1,0-40,17.9-40,40h-28.7l-21.7-21.7
		c1.6-3.2,2.4-6.7,2.4-10.3c0-13.3-10.7-24-24-24s-24,10.7-24,24s10.7,24,24,24c3.6,0,7.1-0.8,10.3-2.4l26.4,26.4H144v16H93.1
		l-41.9,34.9C47.8,249,43.9,248,40,248c-13.3,0-24,10.7-24,24s10.7,24,24,24s24-10.7,24-24l0,0c0-3.2-0.6-6.4-1.9-9.3L98.9,232H144
		v16h-24v16h24v16H72v16h72v16H99.7l-32.2,48.4c-1.1-0.2-2.3-0.3-3.5-0.4c-13.4-0.1-24.3,10.6-24.4,24s10.6,24.3,24,24.4
		c13.4,0.1,24.3-10.6,24.4-24c0.1-6.1-2.2-12-6.3-16.5l26.6-39.9H144c0,22.1,17.9,40,40,40v52.7l-29.7,29.7
		c-3.2-1.6-6.7-2.4-10.3-2.4c-13.3,0-24,10.7-24,24s10.7,24,24,24s24-10.7,24-24c0-3.6-0.8-7.1-2.4-10.3l34.4-34.4V368h16v48h16v-48
		h16v68.4l48.6,30.4c-3.1,13.1,5.1,26.2,18.2,29.2c13.1,3.1,26.2-5.1,29.2-18.2c3.1-13.1-5.1-26.2-18.2-29.2
		c-7.2-1.7-14.9,0-20.7,4.7L264,427.6V368h16v24h16v-24h16v64h57.5c4.4,12.5,18.1,19,30.6,14.6c12.5-4.4,19-18.1,14.6-30.6
		c-4.4-12.5-18.1-19-30.6-14.6c-6.8,2.4-12.2,7.8-14.6,14.6H328v-48c22.1,0,40-17.9,40-40h68.7l13.7,13.7c-1.6,3.2-2.4,6.7-2.4,10.3
		c0,13.3,10.7,24,24,24s24-10.7,24-24S485.3,328,472,328L472,328z M472,216c4.4,0,8,3.6,8,8s-3.6,8-8,8s-8-3.6-8-8
		S467.6,216,472,216z M440,144c4.4,0,8,3.6,8,8s-3.6,8-8,8s-8-3.6-8-8S435.6,144,440,144z M384,48c4.4,0,8,3.6,8,8s-3.6,8-8,8
		s-8-3.6-8-8S379.6,48,384,48z M256,56c4.4,0,8,3.6,8,8s-3.6,8-8,8s-8-3.6-8-8S251.6,56,256,56z M136,40c0-4.4,3.6-8,8-8s8,3.6,8,8
		s-3.6,8-8,8S136,44.4,136,40z M64,152c0-4.4,3.6-8,8-8s8,3.6,8,8s-3.6,8-8,8S64,156.4,64,152z M40,280c-4.4,0-8-3.6-8-8s3.6-8,8-8
		s8,3.6,8,8S44.4,280,40,280z M64,392c-4.4,0-8-3.6-8-8s3.6-8,8-8s8,3.6,8,8S68.4,392,64,392z M144,480c-4.4,0-8-3.6-8-8s3.6-8,8-8
		s8,3.6,8,8S148.4,480,144,480z M320,464c4.4,0,8,3.6,8,8s-3.6,8-8,8s-8-3.6-8-8S315.6,464,320,464z M392,416c4.4,0,8,3.6,8,8
		s-3.6,8-8,8s-8-3.6-8-8S387.6,416,392,416z M352,328c0,13.3-10.7,24-24,24H184c-13.3,0-24-10.7-24-24V184c0-13.3,10.7-24,24-24h144
		c13.3,0,24,10.7,24,24V328z M472,360c-4.4,0-8-3.6-8-8s3.6-8,8-8s8,3.6,8,8S476.4,360,472,360z"/>
</g>
<linearGradient id="SVGID_1_" gradientUnits="userSpaceOnUse" x1="185.5" y1="325" x2="325.5" y2="185">
	<stop  offset="0" style="stop-color:#9559FF"/>
	<stop  offset="1" style="stop-color:#E655FF"/>
</linearGradient>
<path class="st1" d="M296.7,193.8c-1.3,1.3-3.3,1.5-4.8,0.6c-27.2-16.3-63-12.8-86.4,10.6s-27,59.2-10.6,86.4
	c0.9,1.5,0.7,3.5-0.6,4.8l-16,16c-1.5,1.5-1.5,4,0,5.6l14.4,14.4c1.5,1.5,4,1.5,5.6,0l16-16c1.3-1.3,3.3-1.5,4.8-0.6
	c27.2,16.3,63,12.8,86.4-10.6s27-59.2,10.6-86.4c-0.9-1.5-0.7-3.5,0.6-4.8l16-16c1.5-1.5,1.5-4,0-5.6l-14.4-14.4
	c-1.5-1.5-4-1.5-5.6,0L296.7,193.8z M285.5,285c-13.1,13.1-32.5,15.8-48.3,8.3c-4.2-2-8.2-4.8-11.7-8.3s-6.3-7.5-8.3-11.7
	c-7.5-15.8-4.8-35.2,8.3-48.3s32.5-15.8,48.3-8.3c4.2,2,8.2,4.8,11.7,8.3s6.3,7.5,8.3,11.7C301.3,252.5,298.6,271.9,285.5,285z"/>
</svg>
