<?xml version="1.0" encoding="utf-8"?>
<!-- Generator: Adobe Illustrator 23.0.5, SVG Export Plug-In . SVG Version: 6.00 Build 0)  -->
<svg version="1.1" xmlns="http://www.w3.org/2000/svg" xmlns:xlink="http://www.w3.org/1999/xlink" x="0px" y="0px"
	 viewBox="0 0 500 500" style="enable-background:new 0 0 500 500;" xml:space="preserve">
<style type="text/css">
	.st0{fill:#EBEBEB;}
	.st1{fill:#F0F0F0;}
	.st2{fill:#E0E0E0;}
	.st3{fill:#FAFAFA;}
	.st4{fill:#F5F5F5;}
	.st5{fill:#E6E6E6;}
	.st6{fill:#FFFFFF;}
	.st7{fill:url(#SVGID_1_);}
	.st8{fill:#8559FA;}
	.st9{fill:#C856FA;}
</style>
<g id="Background_Complete">
	<g>
		<rect y="382.4" class="st0" width="500" height="0.2"/>
		<rect x="332.1" y="389.2" class="st0" width="97.6" height="0.2"/>
		<rect x="289" y="395" class="st0" width="46.7" height="0.2"/>
		<rect x="430.7" y="398.5" class="st0" width="19.2" height="0.2"/>
		<rect x="126.5" y="395.1" class="st0" width="92.5" height="0.2"/>
		<rect x="97.7" y="395.1" class="st0" width="19.9" height="0.2"/>
		<rect x="57.8" y="390.9" class="st0" width="32.9" height="0.2"/>
		<path class="st0" d="M237,337.8H43.9c-3.1,0-5.7-2.6-5.7-5.7V60.7c0-3.1,2.6-5.7,5.7-5.7H237c3.1,0,5.7,2.6,5.7,5.7v271.4
			C242.7,335.2,240.2,337.8,237,337.8z M43.9,55.2c-3,0-5.5,2.4-5.5,5.5v271.4c0,3,2.4,5.5,5.5,5.5H237c3,0,5.5-2.4,5.5-5.5V60.7
			c0-3-2.4-5.5-5.5-5.5H43.9z"/>
		<path class="st0" d="M453.3,337.8H260.2c-3.1,0-5.7-2.6-5.7-5.7V60.7c0-3.1,2.6-5.7,5.7-5.7h193.1c3.1,0,5.7,2.6,5.7,5.7v271.4
			C459,335.2,456.5,337.8,453.3,337.8z M260.2,55.2c-3,0-5.5,2.4-5.5,5.5v271.4c0,3,2.4,5.5,5.5,5.5h193.1c3,0,5.5-2.4,5.5-5.5V60.7
			c0-3-2.4-5.5-5.5-5.5H260.2z"/>
	</g>
	<g>
		<g>
			<polygon class="st1" points="391.1,373.2 89,373.2 71,168.3 373.1,168.3 			"/>
			<polygon class="st2" points="83.7,379.7 89,373.2 71,168.3 65.7,174.9 			"/>
			<path class="st3" d="M93,365.4L76.4,176.7c-0.2-2,1.4-3.7,3.4-3.7h285.9c1.8,0,3.2,1.3,3.4,3.1l16.6,188.7c0.2,2-1.4,3.7-3.4,3.7
				H96.4C94.7,368.5,93.2,367.2,93,365.4z"/>
			<polygon class="st2" points="131.5,373.2 86,373.2 82.8,382.4 128.3,382.4 			"/>
			<polygon class="st4" points="131.5,373.2 430.7,373.2 427.5,382.4 128.3,382.4 			"/>
			<polygon class="st2" points="254.7,373.2 312.1,373.2 311.4,379.2 254.1,379.2 			"/>
		</g>
		<g>
			<path class="st2" d="M341.6,154.9h72.5c6,39.8-21.8,72.5-61.5,72.5c-12.7,0-25.7-3.3-37.7-9.7L341.6,154.9z"/>
			<path class="st0" d="M341.6,154.9l38.2-55.5c9.1,6.8,16.9,15.3,22.9,24.9c5.9,9.6,9.8,20,11.4,30.6H341.6z"/>
			<path class="st5" d="M341.6,154.9l-10.9-72.5c8.5,0,17.1,1.5,25.4,4.4c8.4,2.9,16.4,7.2,23.7,12.6L341.6,154.9z"/>
			<path class="st1" d="M341.6,154.9l-26.8,62.8c-24.3-12.9-41.8-36.9-45.7-62.8c-6-39.8,21.8-72.5,61.5-72.5L341.6,154.9z"/>
		</g>
		<g>
			<path class="st0" d="M252.2,284.2h64.3c0.8,5.6,1,11.2,0.3,16.6c-0.6,5.4-2,10.6-4.1,15.5L252.2,284.2z"/>
			<path class="st2" d="M252.2,284.2l1.6-63.3c15.3,2.6,29.9,10.4,41.4,22c11.5,11.6,19,26.2,21.3,41.3H252.2z"/>
			<path class="st1" d="M252.2,284.2l-57.1,22c-3.6-7-6.1-14.5-7.2-22c-5.3-35.3,19.3-64.3,54.6-64.3c3.7,0,7.5,0.3,11.3,1
				L252.2,284.2z"/>
			<path class="st6" d="M252.2,284.2l60.5,32.1c-8.5,19.9-27.9,32.1-50.8,32.1c-27,0-53.7-17-66.8-42.3L252.2,284.2z"/>
		</g>
	</g>
	
		<linearGradient id="SVGID_1_" gradientUnits="userSpaceOnUse" x1="213.3176" y1="-4056.5144" x2="312.5981" y2="-3957.2339" gradientTransform="matrix(1.0289 -0.1421 -0.1334 -0.9657 -546.7603 -3554.3655)">
		<stop  offset="0" style="stop-color:#8559FA"/>
		<stop  offset="1" style="stop-color:#C856FA"/>
	</linearGradient>
	<path class="st7" d="M248.4,207.4c38.3-5.3,73.8,21.9,79.1,60.8s-21.4,74.6-59.7,79.9s-73.8-21.9-79.1-60.8
		S210.1,212.7,248.4,207.4z"/>
	<path class="st6" d="M274.1,243.8c-15.6-7.6-34.8-3.4-45.7,11.1s-9.7,34.4,1.8,47.6l-9.4,12.6l11.9,9.1l9.4-12.6
		c15.6,7.6,34.8,3.4,45.7-11.1c10.8-14.5,9.7-34.4-1.8-47.6l9.4-12.6l-11.9-9.1L274.1,243.8z M275.9,291.4
		c-5.8,7.8-15.8,10.7-24.5,7.8c-2.3-0.8-4.6-1.9-6.7-3.5c-2.1-1.6-3.8-3.5-5.2-5.6c-5.1-7.8-5.1-18.2,0.8-26.1
		c5.8-7.8,15.8-10.7,24.5-7.8c2.3,0.8,4.6,1.9,6.7,3.5c2.1,1.6,3.8,3.5,5.2,5.6C281.8,273.1,281.8,283.6,275.9,291.4z"/>
</g>
<g id="Shadow_1_">
	<ellipse id="_x3C_Path_x3E__297_" class="st4" cx="250" cy="416.2" rx="193.9" ry="11.3"/>
</g>
<g id="Setup_analytics">
	<g>
		<g>
			<g>
				<path class="st6" d="M240.6,239.4h-90.1c-5.7,0-10.8-4.7-11.2-10.4l-4.5-55.4c-0.5-5.7,3.8-10.4,9.5-10.4h90.1
					c5.7,0,10.8,4.7,11.2,10.4l4.5,55.4C250.6,234.7,246.3,239.4,240.6,239.4z"/>
				<path class="st8" d="M240.6,239.8h-90.1c-6,0-11.2-4.8-11.7-10.8l-4.5-55.4c-0.2-2.9,0.7-5.6,2.6-7.7c1.9-2.1,4.5-3.2,7.4-3.2
					h90.1c6,0,11.2,4.8,11.7,10.8l4.5,55.4c0.2,2.9-0.7,5.6-2.6,7.7C246.1,238.7,243.5,239.8,240.6,239.8z M144.3,163.6
					c-2.6,0-5,1-6.8,2.9c-1.7,1.9-2.6,4.4-2.4,7l4.5,55.4c0.4,5.5,5.3,10,10.8,10h90.1c2.6,0,5-1,6.8-2.9c1.7-1.9,2.6-4.4,2.4-7
					l-4.5-55.4c-0.4-5.5-5.3-10-10.8-10H144.3z"/>
			</g>
			<g>
				<path class="st2" d="M216.1,223.2c-3.5,3.8-8.1,6.6-13.2,8l-1.5-4.3c11.1-3,18.6-13.4,17.6-25.7c-0.6-7.3-4.1-14-9.3-18.8
					l2.9-3.1C225.6,191.4,227.2,211.2,216.1,223.2z"/>
				<path class="st9" d="M212.6,179.4l-2.9,3.1c-5.2-4.8-12.1-7.8-19.4-7.8c-7.3,0-13.7,3-18.1,7.8l-3.4-3.1
					c5.3-5.8,13-9.1,21.2-9.1C198.1,170.3,206.3,173.6,212.6,179.4z"/>
				<path class="st8" d="M202.9,231.2c-10.4,2.9-22.1-0.2-30.6-8c-13-12-14.6-31.8-3.6-43.8l3.4,3.1c-4.4,4.8-6.8,11.4-6.2,18.8
					c1.2,14.7,14.1,26.6,28.7,26.6c2.4,0,4.7-0.3,6.8-0.9L202.9,231.2z"/>
			</g>
		</g>
		<g>
			<rect x="110.7" y="73.7" class="st8" width="7.2" height="0.9"/>
			<rect x="87.2" y="73.7" class="st8" width="16.4" height="0.9"/>
			<g>
				<path class="st6" d="M180.1,153.3H90.1c-5.7,0-10.8-4.7-11.2-10.4l-4.5-55.4c-0.5-5.7,3.8-10.4,9.5-10.4h90.1
					c5.7,0,10.8,4.7,11.2,10.4l4.5,55.4C190.2,148.6,185.9,153.3,180.1,153.3z"/>
				<path class="st8" d="M180.1,153.7H90.1c-6,0-11.2-4.8-11.7-10.8l-4.5-55.4c-0.2-2.9,0.7-5.6,2.6-7.7c1.9-2.1,4.5-3.2,7.4-3.2
					h90.1c6,0,11.2,4.8,11.7,10.8l4.5,55.4c0.2,2.9-0.7,5.6-2.6,7.7C185.7,152.6,183,153.7,180.1,153.7z M83.9,77.6
					c-2.6,0-5,1-6.8,2.9c-1.7,1.9-2.6,4.4-2.4,7l4.5,55.4c0.4,5.5,5.3,10,10.8,10h90.1c2.6,0,5-1,6.8-2.9c1.7-1.9,2.6-4.4,2.4-7
					l-4.5-55.4c-0.4-5.5-5.3-10-10.8-10H83.9z"/>
			</g>
			<g>
				<polygon class="st2" points="82.5,93 130.2,93 129.8,88.3 82.1,88.3 				"/>
				<polygon class="st8" points="177.9,93 130.2,93 129.8,88.3 177.5,88.3 				"/>
				<polygon class="st2" points="83.5,105.3 97.1,105.3 96.7,100.6 83.1,100.6 				"/>
				<polygon class="st8" points="178.9,105.3 97.1,105.3 96.7,100.6 178.5,100.6 				"/>
				<polygon class="st2" points="84.5,117.6 127,117.6 126.6,112.8 84.1,112.8 				"/>
				<polygon class="st8" points="179.9,117.6 127,117.6 126.6,112.8 179.5,112.8 				"/>
				<polygon class="st2" points="85.5,129.8 158,129.8 157.6,125.1 85.1,125.1 				"/>
				<polygon class="st8" points="180.9,129.8 158,129.8 157.6,125.1 180.5,125.1 				"/>
				<polygon class="st2" points="86.5,142.1 120,142.1 119.6,137.4 86.1,137.4 				"/>
				<polygon class="st8" points="181.9,142.1 120,142.1 119.6,137.4 181.5,137.4 				"/>
			</g>
		</g>
		<g>
			<g>
				<path class="st6" d="M303.3,153.3h-90.1c-5.7,0-10.8-4.7-11.2-10.4l-4.5-55.4c-0.5-5.7,3.8-10.4,9.5-10.4h90.1
					c5.7,0,10.8,4.7,11.2,10.4l4.5,55.4C313.3,148.6,309,153.3,303.3,153.3z"/>
				<path class="st8" d="M303.3,153.7h-90.1c-6,0-11.2-4.8-11.7-10.8L197,87.5c-0.2-2.9,0.7-5.6,2.6-7.7c1.9-2.1,4.5-3.2,7.4-3.2
					h90.1c6,0,11.2,4.8,11.7,10.8l4.5,55.4c0.2,2.9-0.7,5.6-2.6,7.7C308.8,152.6,306.2,153.7,303.3,153.7z M207,77.6
					c-2.6,0-5,1-6.8,2.9c-1.7,1.9-2.6,4.4-2.4,7l4.5,55.4c0.4,5.5,5.3,10,10.8,10h90.1c2.6,0,5-1,6.8-2.9c1.7-1.9,2.6-4.4,2.4-7
					l-4.5-55.4c-0.4-5.5-5.3-10-10.8-10H207z"/>
			</g>
			<g>
				<polygon class="st2" points="258.1,142.1 256.5,142.1 252.2,88.3 253.7,88.3 				"/>
				<polygon class="st8" points="260.5,119.8 250.5,119.8 248.8,98.7 258.8,98.7 				"/>
				<polygon class="st2" points="238.4,142.1 236.8,142.1 232.4,88.3 234,88.3 				"/>
				<polygon class="st8" points="241.2,124.4 231.1,124.4 229.6,106 239.7,106 				"/>
				<polygon class="st2" points="218.6,142.1 217.1,142.1 212.7,88.3 214.3,88.3 				"/>
				<polygon class="st9" points="220.2,109.3 210.2,109.3 209.1,96.6 219.2,96.6 				"/>
				<polygon class="st2" points="277.9,142.1 276.3,142.1 271.9,88.3 273.5,88.3 				"/>
				<polygon class="st9" points="281.2,131.7 271.2,131.7 268.5,98.7 278.6,98.7 				"/>
				<polygon class="st2" points="297.6,142.1 296,142.1 291.6,88.3 293.2,88.3 				"/>
				<polygon class="st8" points="301.3,135.6 291.3,135.6 289.1,109.2 299.2,109.2 				"/>
			</g>
		</g>
		<g>
			<g>
				<path class="st6" d="M206.9,324.8h-90.1c-5.7,0-10.8-4.7-11.2-10.4l-4.5-55.4c-0.5-5.7,3.8-10.4,9.5-10.4h90.1
					c5.7,0,10.8,4.7,11.2,10.4l4.5,55.4C216.9,320.1,212.6,324.8,206.9,324.8z"/>
				<path class="st8" d="M206.9,325.2h-90.1c-6,0-11.2-4.8-11.7-10.8l-4.5-55.4c-0.2-2.9,0.7-5.6,2.6-7.7c1.9-2.1,4.5-3.2,7.4-3.2
					h90.1c6,0,11.2,4.8,11.7,10.8l4.5,55.4c0.2,2.9-0.7,5.6-2.6,7.7C212.4,324.1,209.8,325.2,206.9,325.2z M110.6,249
					c-2.6,0-5,1-6.8,2.9c-1.7,1.9-2.6,4.4-2.4,7l4.5,55.4c0.4,5.5,5.3,10,10.8,10h90.1c2.6,0,5-1,6.8-2.9c1.7-1.9,2.6-4.4,2.4-7
					l-4.5-55.4c-0.4-5.5-5.3-10-10.8-10H110.6z"/>
			</g>
			<g>
				<polygon class="st8" points="122.8,285.4 142.2,307.8 164.5,273.5 178.2,291.2 181.6,286 204.1,313 117.7,313 				"/>
				<polygon class="st2" points="187.6,286.8 178.6,306.1 149.8,260.4 136.3,289.4 131.9,282.5 117.7,313 204.1,312.9 				"/>
			</g>
		</g>
	</g>
</g>
</svg>
