<?xml version="1.0" encoding="utf-8"?>
<!-- Generator: Adobe Illustrator 24.0.1, SVG Export Plug-In . SVG Version: 6.00 Build 0)  -->
<svg version="1.1" id="Layer_1" xmlns="http://www.w3.org/2000/svg" xmlns:xlink="http://www.w3.org/1999/xlink" x="0px" y="0px"
	 width="580px" height="128px" viewBox="0 0 580 128" style="enable-background:new 0 0 580 128;" xml:space="preserve">
<style type="text/css">
	.st0{fill:#F2AC19;}
	.st1{fill:#FCDF5D;}
	.st2{fill-rule:evenodd;clip-rule:evenodd;fill:#FFCF4F;}
</style>
<g id="layer101">
	<path class="st0" d="M67.7,127.8c-4.1-0.2-7.8-0.8-11.9-1.8c-2.2-0.5-5.9-1.7-6.9-2.1c-0.2-0.1-1.1-0.5-2.1-0.8
		c-1-0.4-2.8-1.2-4-1.8c-2.6-1.3-2.5-1.1-1.9-3.3c0.4-1.7,0.4-6.1,0-7.6c-0.3-1.3-0.8-2.3-1.4-3.3c-0.3-0.5-0.7-0.8-1.5-1.2
		c-1.6-0.8-2.4-1-4.7-1c-2.7,0-4.5,0.5-8,2l-1.2,0.5l-0.5-0.5c-3.6-3.9-7.1-9.1-9.6-14c-8.5-16.7-9.3-36.1-2.1-53.4
		c0.5-1.1,1-2.4,1.3-2.9l0.4-0.9l1.9-0.1c2.7-0.2,4.4-0.9,6.2-2.6c2.8-2.7,3.4-6.8,1.7-10.5L23,21.6l2.9-2.9
		c5.4-5.4,10.5-9,17.1-12.2C56.4-0.1,71.4-1.7,86,1.8c1.9,0.5,5.9,1.6,7.1,2.1c0.1,0,0.3,0.1,0.4,0.1c0.1,0,1.4,0.6,3.2,1.3
		c0.4,0.1,1.8,0.8,3.2,1.5l2.5,1.3v0.6c0,5.5,6,14.9,12.8,20c3.2,2.4,10.4,7.2,11.5,7.7c0.1,0.1,0.5,0.3,0.7,0.4
		c0.7,0.5,1,0.7,1.6,1c0.4,0.2,0.6,0.6,1.3,2.1c2.7,6.8,4.2,13.2,4.6,21c0.6,10-1.8,21.4-6.4,30.8c-3.4,6.9-7.4,12.5-12.7,17.7
		c-5,4.9-10,8.5-15.8,11.4l-1.4,0.7l-1.1-0.4c-1-0.3-1.4-0.4-3.7-0.4c-3.2,0-4.6,0.3-7.4,1.6c-2.1,1-4.7,2.9-5.6,4.3
		c-0.3,0.4-0.5,0.5-2,0.7c-1.7,0.2-7.3,0.6-8.2,0.5C70.2,128,68.9,127.9,67.7,127.8z"/>
</g>
<g id="layer102">
	<path class="st1" d="M67.7,127.8c-4.1-0.2-7.8-0.8-11.9-1.8c-2.2-0.5-5.9-1.7-6.9-2.1c-0.2-0.1-1.1-0.5-2.1-0.8
		c-1-0.4-2.8-1.2-4-1.8c-2.6-1.3-2.5-1.1-1.9-3.3c0.4-1.7,0.4-6.1,0-7.6c-0.3-1.3-0.8-2.3-1.4-3.3c-0.3-0.5-0.7-0.8-1.5-1.2
		c-1.6-0.8-2.4-1-4.7-1c-2.7,0-4.5,0.5-8,2l-1.2,0.5l-0.5-0.5c-3.6-3.9-7.1-9.1-9.6-14c-8.5-16.7-9.3-36.1-2.1-53.4
		c0.5-1.1,1-2.4,1.3-2.9l0.4-0.9l1.9-0.1c2.7-0.2,4.4-0.9,6.2-2.6c2.8-2.7,3.4-6.8,1.7-10.5L23,21.6l2.9-2.9
		c5.4-5.4,10.5-9,17.1-12.2C56.4-0.1,71.4-1.7,86,1.8c1.9,0.5,5.9,1.6,7.1,2.1c0.1,0,0.3,0.1,0.4,0.1c0.1,0,1.4,0.6,3.2,1.3
		c0.4,0.1,1.8,0.8,3.2,1.5l2.5,1.3v0.6c0,5.5,6,14.9,12.8,20c3.2,2.4,10.4,7.2,11.5,7.7c0.1,0.1,0.5,0.3,0.7,0.4
		c0.7,0.5,1,0.7,1.6,1c0.4,0.2,0.6,0.6,1.3,2.1c2.7,6.8,4.2,13.2,4.6,21c0.6,10-1.8,21.4-6.4,30.8c-3.4,6.9-7.4,12.5-12.7,17.7
		c-5,4.9-10,8.5-15.8,11.4l-1.4,0.7l-1.1-0.4c-1-0.3-1.4-0.4-3.7-0.4c-3.2,0-4.6,0.3-7.4,1.6c-2.1,1-4.7,2.9-5.6,4.3
		c-0.3,0.4-0.5,0.5-2,0.7c-1.7,0.2-7.3,0.6-8.2,0.5C70.2,128,68.9,127.9,67.7,127.8z M104.6,108.6c0.2-0.1,0.6-0.2,0.9-0.4
		c0.9-0.3,1.7-0.6,2-0.9c0.1-0.1,0.3-0.2,0.5-0.2s0.2-0.1,0.2-0.2c0-0.1,0.2-0.2,0.4-0.3c0.4-0.2,1.7-1.9,2-2.6
		c0.7-1.8,0.1-3.3-1.8-4.1c-0.7-0.3-1.1-0.4-2.3-0.4c-0.8,0-1.8,0.1-2.3,0.2c-4,1.2-6.6,4.6-5.4,7c0.5,0.9,0.9,1.3,2.1,1.6
		C101.9,108.7,104.1,108.8,104.6,108.6z M79.1,102.5c1.9-0.2,4.8-0.6,5.4-0.7c0.3-0.1,0.8-0.2,1.1-0.2c0.3,0,0.6-0.1,0.6-0.2
		c0-0.1,0.3-0.1,0.5-0.1c0.2,0,0.5,0,0.8-0.1c0.2-0.1,0.9-0.3,1.6-0.5c1.6-0.5,2.2-0.8,3.9-1.9c1.9-1.3,2-1.4,4.4-3.9
		c0.3-0.3,0.6-0.7,0.6-0.8c0-0.1,0.1-0.2,0.2-0.3c0.1-0.1,0.2-0.2,0.2-0.2c0-0.1,0.3-0.6,0.7-1.2c0.4-0.6,0.7-1.1,0.6-1.1
		c-0.1,0,0-0.1,0.1-0.2c0.2-0.2,1.1-1.9,1.7-3.3c0.9-2.2,1.4-4.3,1.4-6.6c0-4.2-1.4-6.6-5-8.4c-7.8-3.9-22.2-0.8-37.1,8.1
		c-4.6,2.7-9.4,6.8-11.1,9.4c-0.8,1.2-1.2,2.6-1.1,3.4c0.2,1,0.8,2.2,1.6,3c0.8,0.8,3.1,2.3,3.8,2.5c0.2,0,0.4,0.2,0.4,0.2
		s0,0.1,0.1,0.1c0.1,0,0.3,0,0.4,0.1c0.2,0.1,0.5,0.2,0.8,0.3c0.3,0.1,0.6,0.2,0.7,0.2c0.1,0,0.5,0.1,1,0.3c1.4,0.4,2.2,0.7,2.5,0.7
		c0.1,0,1.2,0.2,2.3,0.5c1.2,0.2,2.5,0.5,3,0.5c2.7,0.2,5.2,0.4,6.4,0.5C73.3,102.7,77.8,102.6,79.1,102.5z M27.1,90.2
		c0.5-0.2,1.7-0.9,2.6-1.5c1.2-0.9,3.8-3.3,4.8-4.6c0.4-0.5,0.9-1,1.1-1.3c0.6-0.7,2.3-3,2.3-3.1c0-0.1,0.1-0.2,0.2-0.3
		c0.7-0.8,2-3.6,2.3-4.9c0.3-1.4,0.3-2,0-2.8c-0.5-1.2-1.8-2-3.7-2.5c-1.3-0.3-5.2-0.3-6.8,0.1c-5.1,1.1-9,3.5-10.5,6.5
		c-1.3,2.7-1.5,6.5-0.5,8.9c0.3,0.6,1.2,1.9,1.7,2.5c0.1,0.1,0.2,0.3,0.2,0.4s0,0.1,0.1,0.1c0-0.1,0.3,0.1,0.5,0.4
		c0.3,0.3,0.5,0.5,0.5,0.5c0.1,0,0.5,0.3,1,0.6c0.5,0.3,0.9,0.6,1,0.6c0,0,0.3,0.1,0.6,0.2C25.4,90.4,26.2,90.5,27.1,90.2z
		 M94.1,51.5c1.1-0.1,2.3-0.3,2.6-0.3c0.3,0,0.7-0.1,1-0.2c0.5-0.1,1.7-0.3,2.9-0.5c0.5-0.1,1.1-0.2,1.4-0.3c0.3,0,0.6-0.2,0.7-0.2
		c0.1-0.1,0.5-0.2,1-0.3c0.5-0.1,1.2-0.3,1.8-0.4c0.5-0.2,1-0.3,1.1-0.3c0.1,0,0.3-0.1,0.4-0.1c0.6-0.2,1.6-0.5,1.8-0.5
		c0.2,0,0.5-0.1,0.6-0.2c0.4-0.2,0.9-0.4,2.9-1c0.8-0.3,1.5-0.6,1.6-0.6c0.1-0.1,0.2-0.1,0.4-0.1c0.1,0,0.5-0.1,0.8-0.2
		c0.3-0.1,0.6-0.2,0.7-0.3c0.2-0.1,1.8-0.8,3-1.4c0.6-0.3,1.2-0.6,1.4-0.6c0.1,0,0.3-0.1,0.4-0.2c0.1-0.1,0.6-0.4,1.1-0.6
		c0.5-0.2,1-0.5,1.2-0.6c0.3-0.2,0.3-0.2,0.2,0c-0.1,0.1,0,0.1,0.3-0.1c0.2-0.2,0.7-0.5,1-0.6c0.4-0.2,0.7-0.4,0.9-0.5
		c0.1-0.1,0.7-0.5,1.4-0.9c0.6-0.4,1.5-0.9,2-1.3l0.9-0.6l-0.7-0.4c-0.4-0.2-1-0.6-1.4-0.9c-0.4-0.2-0.8-0.4-0.9-0.3
		c-0.1,0-0.1,0,0-0.1c0-0.1,0-0.2-0.2-0.3c-0.2-0.1-0.4-0.2-0.6-0.4c-0.2-0.2-0.7-0.5-1.1-0.7c-1.5-0.9-5.6-3.7-5.8-3.9
		c-0.1-0.1-0.2-0.2-0.3-0.1c-0.1,0.1-0.2,0-0.2-0.1c0-0.1-0.2-0.3-0.3-0.3c-0.1,0-0.2-0.1-0.2-0.2c0-0.1-0.1-0.2-0.2-0.2
		s-0.3,0-0.3-0.1c0-0.1-0.4-0.3-0.8-0.6c-0.7-0.4-1.3-0.9-3.1-2.4c-1-0.8-3.7-3.6-4-4.2c-0.1-0.1-0.3-0.5-0.6-0.8
		c-2.3-2.8-4.3-6.3-5.3-9c-0.5-1.3-0.9-3.1-0.9-4c0-1.2-0.2-1.3-1.7-1.1c-4.8,0.6-7.5,1.5-9.9,3.4c-3.8,2.8-7,8.7-8.6,15.6
		c-1.6,6.6-1.6,13.6-0.1,18.7c0.5,1.5,2,4.2,2.4,4.2c0.1,0,0.3,0.2,0.5,0.4C85.8,51.6,89.8,52,94.1,51.5z M50,44.1
		c2.1-0.5,3.8-1.5,5.2-3c0.8-0.8,1.8-2.4,1.9-2.9c0-0.1,0.2-0.6,0.3-1.1c0.8-2.6-0.6-5.6-3.2-6.8c-3.2-1.5-7.5-0.4-10.3,2.5
		c-1.9,1.9-2.7,4.4-2.3,6.5c0.2,1.4,0.6,2.2,1.6,3.1c0.6,0.7,2.1,1.6,2.1,1.4c0,0,0.4,0.1,0.9,0.2C47.1,44.3,49,44.4,50,44.1z
		 M58,16.2c1.1-0.6,2.2-1.7,2.7-2.7C61.5,11.8,61,10,59.5,9c-0.6-0.4-0.8-0.5-2.1-0.5c-1.3,0-1.6,0-2.4,0.5
		c-2.2,1.1-3.4,3.5-2.8,5.4c0.3,0.8,0.7,1.3,1.7,1.9C54.8,16.8,56.9,16.7,58,16.2z"/>
	<path class="st1" d="M103.8,107.7c-0.2-0.5,0.1-0.9,0.8-1.4c0.8-0.5,1.8-0.8,2.4-0.5c0.5,0.2,0.6,0.9,0.1,1.3
		C106.1,108,104,108.4,103.8,107.7z"/>
	<path class="st1" d="M77.9,100.6c-1.6-0.4-2.8-1.3-3.1-2.4c-0.3-0.9-0.2-1.6,0.4-2.7c0.4-0.9,2-2.4,2.4-2.4c0.1,0,0.2-0.1,0.2-0.1
		c0-0.2,1.9-1.1,3.2-1.5c1-0.3,1.5-0.4,3.6-0.4c1.4,0,2.4,0.1,2.6,0.2c0.1,0.1,0.4,0.2,0.6,0.3c0.7,0.2,1.8,1.1,2.1,1.7
		c0.5,0.9,0.4,2-0.1,3c-0.4,0.7-1.9,2.5-2.2,2.5c-0.1,0-0.2,0.1-0.3,0.2c-0.3,0.3-1.3,0.8-2.5,1.2C82.8,100.8,79.9,101,77.9,100.6z"
		/>
	<path class="st1" d="M26.1,86.8c-1.9-1.1-1.3-3.8,0.8-4c1-0.1,1.8,0.4,2.2,1.3c0.3,0.5,0.3,0.7,0.1,1.3
		C28.9,86.9,27.4,87.6,26.1,86.8z"/>
	<path class="st1" d="M106.7,41.8c-1.4-0.4-2.3-1.3-2.4-2.4c0-0.6,0.2-1.9,0.4-2.1c0,0,0.2-0.3,0.3-0.6c0.1-0.3,0.4-0.6,0.5-0.7
		c0.1-0.1,0.4-0.5,0.6-0.8c1.1-1.4,3.8-3,6.2-3.8c1.5-0.5,4.5-0.5,5.3-0.1c0.3,0.1,0.6,0.3,0.6,0.3c0.2,0,0.8,0.8,0.8,1
		c0,0.1,0,0.2,0.1,0.2c0.2,0.2,0.1,1.9-0.2,2.6c-0.3,0.8-0.6,1.2-1.9,2.5c-2.3,2.3-5.4,3.7-8.4,3.8
		C107.9,41.9,106.9,41.9,106.7,41.8z"/>
	<path class="st1" d="M50.5,41.7c-0.2-0.3-0.2-0.5-0.1-0.9c0.2-0.5,1.2-1.6,1.9-2c0.6-0.3,1.5-0.4,1.8-0.2c0.3,0.2,0.3,1.6,0.1,1.6
		c-0.1,0-0.2,0.1-0.2,0.2c0,0.3-0.9,1.1-1.5,1.4C51.5,42.2,50.8,42.2,50.5,41.7z"/>
	<path class="st1" d="M56.6,15.3c-0.1-0.3,0-0.5,0.1-0.5c0.1,0,0.2-0.1,0.2-0.3c0-0.7,1.8-1.7,2.5-1.4c0.7,0.3,0,1.6-1.2,2.3
		C57.3,15.8,56.7,15.8,56.6,15.3z"/>
</g>
<path id="path0" class="st2" d="M75.6,1.3c-2.6,3.9-1.8,6.6,2.5,9.3c1.7,1.1,5.2,2.8,8.4,4.2c0.8,0.3,0.8,0.4,0.3,1
	c-0.4,0.6-0.7,1-0.5,0.8c0.1-0.1,0.5-0.6,0.9-1.2c1-1.4,2.8-3.1,4-3.9c0.5-0.3,0.9-0.7,0.8-0.7c-0.1-0.1,0-0.1,0.1,0
	c0.1,0.1,0.5,0,0.8-0.2c1.5-0.8,4.8-1.6,7.6-1.9c1.3-0.1,2.1-0.3,1.4-0.3c-0.1,0-0.7-0.2-1.2-0.5c-0.5-0.3-1-0.5-1-0.5
	c0,0-0.8-0.3-1.6-0.7c-3-1.4-3.4-1.6-3.7-1.6c-0.1,0-0.3-0.1-0.3-0.1s-1.3-0.5-2.7-1c-1.5-0.5-2.7-0.9-2.9-0.9
	c-0.1-0.1-0.4-0.1-0.5-0.1c-0.2,0-0.2,0-0.2-0.2c0.1-0.1,0.1-0.1,0-0.1c-0.2,0.1-3-0.5-3.1-0.7c0-0.1-0.4-0.1-0.8-0.1
	s-0.7-0.1-0.8-0.2c-0.1-0.1-0.5-0.2-0.9-0.2c-0.5,0-1.3-0.2-1.8-0.2c-0.5-0.1-1.4-0.2-1.9-0.3C76.6,0.5,76.1,0.6,75.6,1.3 M60.2,9.9
	c0.3,0.3,0.5,0.7,0.7,0.8c0.1,0.2,0.1,0.1,0-0.2c-0.1-0.3-0.4-0.6-0.7-0.8l-0.4-0.4L60.2,9.9 M53.5,10.5L53,11.1L53.5,10.5
	c0.4-0.2,0.6-0.5,0.6-0.5C54.2,9.8,54,9.9,53.5,10.5 M52.1,13.7c0,0.4,0,0.5,0.1,0.3c0-0.2,0-0.5,0-0.7S52.1,13.4,52.1,13.7
	 M58.2,13.8c-1.3,0.7-1.9,2.2-0.8,2.2c1,0,2.3-1.3,2.2-2.1C59.4,13.4,59,13.3,58.2,13.8 M59.8,15.4c-0.7,0.7-1.4,1.1-2.4,1.5
	c-0.6,0.2-0.7,0.3-0.2,0.2c0.9-0.2,3.9-2.2,3.2-2.2C60.4,14.8,60.1,15.1,59.8,15.4 M53,16.1c0.1,0.3,1.5,1.1,1.9,1
	c0.2,0,0.2,0-0.1-0.1c-0.6-0.2-1.1-0.5-1.5-0.8C53,15.9,52.9,15.9,53,16.1 M104.5,16.7c0.1,0.3,0.3,0.5,0.4,0.6
	c0.1,0,0.2,0.3,0.3,0.5c0.1,0.3,0.2,0.3,0.1,0.1c0-0.2-0.2-0.5-0.4-0.8c-0.2-0.3-0.3-0.6-0.3-0.7s-0.1-0.1-0.2-0.1
	C104.3,16.2,104.3,16.4,104.5,16.7 M38,17c-5.2,0.6-9.6,2.5-12.8,5.6c-1,0.9-1.2,1.2-1.1,1.5c0.1,0.2,0.1,0.4,0.1,0.6
	c0,0.1,0.1,0.3,0.1,0.5c0.1,0.1,0.1,0.3,0,0.4c-0.1,0.1,0,0.2,0.1,0.2c0.2,0.1,0.2,2,0,2.2c-0.1,0.1-0.1,0.3-0.1,0.5
	c0.1,0.2,0,0.4-0.1,0.5c-0.1,0.1-0.1,0.2-0.1,0.3c0,0.1,0,0.4-0.1,0.6s-0.4,0.7-0.5,1.1c-0.7,1.8-2.8,3.8-4.8,4.4
	c-0.3,0.1-0.7,0.3-0.8,0.3c-0.1,0.1-0.2,0.1-0.2,0c0-0.1-0.1,0-0.2,0.1c-0.1,0.1-0.4,0.1-0.5,0.1c-0.3-0.1-0.5,0-1,0.7
	c-0.1,0.2-0.8,1.2-1.5,2.2s-1.5,2.2-1.9,2.8c-0.4,0.5-1,1.3-1.4,1.7c-0.4,0.4-0.8,1-0.9,1.4c-0.4,1.3-1.2,3.9-1.2,4.2
	c0,0.1-0.1,0.2-0.1,0.2s-0.1,0.3-0.1,0.6c0,0.3-0.1,0.7-0.2,0.8c-0.1,0.1-0.1,0.3-0.1,0.4c0.1,0.1,0,0.2-0.1,0.3
	c-0.1,0.1-0.1,0.3-0.1,0.5c0.1,0.2,0,0.4-0.1,0.5c-0.1,0.1-0.1,0.2-0.1,0.3c0,0.1,0,0.3-0.1,0.5c-0.6,1.1-1.2,9.9-1,14.4l0.2,3.2
	l0.7,0.9c1.7,2.1,2.3,2.8,6.8,7.4c1.5,1.6,3.3,2.5,2.9,1.6c0-0.1,0-0.2,0.1-0.2s0.2-0.4,0.3-0.9c0.3-2.4,1.3-4.5,3.2-6.1
	c0.4-0.4,0.7-0.7,0.6-0.8c-0.1-0.1,0-0.1,0.1,0c0.1,0.1,0.5-0.1,0.8-0.4c5.7-3.9,15.5-4.1,17.3-0.4c0.6,1.3,0.2,3.7-1.1,6
	c-0.9,1.5-1,1.9-0.8,1.5c0.6-0.8,0.8-0.9,2.2-1.3c3.3-0.9,7.9-2.4,10.5-3.4c0.9-0.3,2-0.7,2.3-0.8c0.9-0.3,2.9-1,9.1-3.2
	c7.7-2.8,12.8-4.4,16.7-5.3c4-0.9,11.5-3.2,12.8-3.9c0.3-0.1,0.6-0.2,0.7-0.2c0.5,0,5.2-2.3,6.5-3.2c1.6-1.1,3.9-3.1,3.9-3.5
	c0-0.1,0.1-0.3,0.2-0.4c0.4-0.5,1-2.6,1.1-3.9c0-0.1,0.1-0.2,0.3-0.3c0.4-0.2,0.1-0.1-2.2,0.5c-7,1.8-13.2,2.3-16.5,1.3
	c-1.7-0.5-3-1.9-4-4.3c-0.2-0.6-0.5-1-0.5-0.9s-0.1,0,0-0.1c0.1-0.1,0-0.8-0.2-1.5c-0.2-0.7-0.4-1.7-0.4-2.3c-0.1-0.6-0.1-1-0.2-0.9
	c-0.1,0.1-0.1-1.6-0.1-3.6c0-2.1,0-3.8,0.1-3.9c0.1-0.1,0.5-3.4,0.4-3.5c0-0.1,0-0.1,0.1-0.1c0.1,0,0.2-0.3,0.3-0.7
	c0.1-0.7,0.9-4,1.1-4.5c0.1-0.1,0-0.2-0.2-0.3c-0.1,0-0.8-0.2-1.3-0.3c-1.3-0.4-2.9-0.8-4.6-1.2c-0.7-0.1-1.9-0.4-2.7-0.6
	c-4.1-1-5.1-1.3-7-1.8C54,17.4,45,16.2,38,17 M55.6,17.2c0.2,0,0.6,0,0.8,0c0.2,0,0-0.1-0.4-0.1C55.5,17.2,55.4,17.2,55.6,17.2
	 M84.9,18.8c-0.1,0.3-0.2,0.5-0.2,0.5c0,0,0.2-0.2,0.3-0.5c0.1-0.3,0.2-0.5,0.2-0.5S85.1,18.6,84.9,18.8 M108.2,22.5
	c0.2,0.3,0.4,0.3,0.2-0.1c-0.1-0.1-0.2-0.2-0.3-0.2C108.1,22.2,108.1,22.3,108.2,22.5 M108.7,22.9c0,0.2,3.4,3.9,3.6,3.9
	c0.1,0-0.2-0.4-0.7-0.8c-0.4-0.4-1.2-1.3-1.7-1.9C108.7,22.7,108.7,22.7,108.7,22.9 M113.1,27.5c1,0.9,2.3,1.9,2.3,1.8
	c0-0.1-0.4-0.4-0.9-0.8S113.4,27.7,113.1,27.5l-0.5-0.5L113.1,27.5 M115.6,29.5c0,0,0.2,0.2,0.5,0.4c0.3,0.2,0.4,0.3,0.4,0.1
	C116.3,29.8,115.6,29.3,115.6,29.5 M52.9,30.1c6.9,1.6,6.1,10.8-1.2,13.8c-3.9,1.6-8.5,0.2-9.6-3c-0.1-0.4-0.3-0.7-0.3-0.7
	c-0.2,0.1,0-3.1,0.2-3.8c0.6-1.8,2.1-3.7,3.8-4.8c0.5-0.3,0.9-0.7,0.8-0.7c-0.1,0,0,0,0.1,0c0.3,0.1,0.7-0.1,0.6-0.2
	c0-0.1,0.1-0.1,0.3-0.1c0.2,0,0.8-0.2,1.5-0.3C50.3,29.8,51.6,29.8,52.9,30.1 M112.7,31.6c-7.4,1.9-11.7,9.2-6.1,10.4
	c5.5,1.1,14.1-5.3,12-9.1C117.9,31.6,115.2,31,112.7,31.6 M120.1,32.7c0.2,0.1,0.5,0.3,0.8,0.5c0.3,0.2,0.5,0.3,0.5,0.2
	c0-0.1-0.3-0.3-0.5-0.4c-0.3-0.1-0.5-0.3-0.5-0.4c0-0.1-0.2-0.1-0.3-0.1C119.8,32.5,119.8,32.5,120.1,32.7 M124.7,35.6
	c0.2,0.1,0.4,0.3,0.6,0.4l0.3,0.1l-0.3-0.3c-0.2-0.1-0.4-0.3-0.6-0.4l-0.3-0.1L124.7,35.6 M126,36.4c0.2,0.2,0.4,0.3,0.5,0.3
	c0.2,0-0.1-0.2-0.6-0.5C125.7,36.2,125.7,36.2,126,36.4 M127.2,37.2c0,0.1,0.6,0.4,0.7,0.3c0,0-0.1-0.1-0.3-0.2
	C127.4,37.2,127.2,37.2,127.2,37.2 M128.9,38.6c-2.4,2.3-11.5,6.8-18.9,9.4c-1.3,0.4-2.1,0.7-1.9,0.7c0.5-0.1,0.5,0,0.6,1
	c0,0.4,0.2,1.2,0.3,1.8c0.2,0.7,0.3,1.3,0.3,1.4c0,0.7,1.7,3.6,2.5,4.4c1.4,1.4,4.8,2.9,11.5,5.1c3.6,1.2,9.2,3.9,10.7,5.3l0.4,0.4
	l0.1-1.5c0.1-0.8,0.1-2.1,0.1-2.9v-1.4l-0.9-0.6c-0.5-0.3-1.2-0.7-1.5-0.9c-0.3-0.2-0.6-0.3-0.7-0.3s-0.3-0.1-0.3-0.1
	c0-0.1-0.9-0.5-1.9-0.9c-1-0.4-2.1-0.9-2.4-1.2c-2.3-1.9-3.7-6.8-3.8-13.4l0-2.3l1.7-1c2.7-1.6,4.7-3,4.5-3.1
	C129.2,38.4,129,38.5,128.9,38.6 M52.7,38.9c-0.7,0.3-1.7,1.2-2,1.8c-0.6,1.4,0.3,1.9,1.8,1.1C54.8,40.6,54.9,38,52.7,38.9
	 M99.3,64.8c-4.7,0.6-9,1.5-11,2.4c-0.7,0.3-2.6,0.9-4.9,1.7c-1.4,0.4-2.7,0.9-3.1,1c-1.9,0.6-6.1,1.8-7.6,2.1
	c-2.2,0.4-3.7,0.8-5.8,1.5c-1,0.3-2.6,0.8-3.6,1.2c-1.8,0.6-2.4,0.8-5.8,2.2c-7.7,3.1-12,7-12.3,11l-0.1,1.1l0.6,0.6
	c0.6,0.7,1.5,1.1,2.6,1.4c0.4,0.1,0.7,0.2,0.8,0.3c0.1,0.1,0.3-0.2,0.5-0.6c1.5-2.6,6.4-6.8,11.5-9.9c0.3-0.2,0.6-0.4,0.6-0.5
	s0.1-0.1,0.1-0.1c0.1,0,0.7-0.2,1.3-0.6c1.4-0.8,5.6-2.9,6.8-3.4c0.4-0.2,0.8-0.4,0.8-0.5s0.1-0.1,0.1-0.1s0.7-0.2,1.4-0.5
	c0.7-0.3,2-0.8,2.9-1.1c0.9-0.3,1.6-0.6,1.5-0.7c-0.1-0.1,0-0.1,0.1,0c0.1,0.1,0.9-0.1,1.8-0.4c0.9-0.3,1.7-0.5,1.9-0.5
	c0.1,0,0.2-0.1,0.1-0.2c-0.1-0.1,0-0.1,0.1-0.1c0.1,0.1,0.7,0,1.3-0.1c4-0.9,9.3-1.1,11.9-0.5c0.7,0.2,1.5,0.3,1.6,0.3
	c0.2,0,0.3,0.1,0.3,0.1c0,0.1,0.1,0.1,0.3,0.2c2.1,0.5,4.6,2.5,5.5,4.2c1.4,2.7,1.3,7.5-0.2,10.8c-0.2,0.4-0.5,1.2-0.8,1.8
	c-1.8,4.2-5.7,8.5-9.4,10.5c-1.5,0.8-4,1.6-6.4,2.1c-0.9,0.2-1,0.2-0.3,0.1l0.8-0.1l-0.3,0.7c-0.2,0.4-0.4,0.9-0.5,1.2
	c-0.1,0.3-0.2,0.5-0.2,0.6c0,0.1-0.4,0.9-2.8,5.7c-1,2-1.8,3.6-1.8,3.6c0,0-0.2,0.4-0.4,0.9c-2.7,6-2,9,2.4,9.8l1,0.2l0.8-0.6
	c3.8-2.8,10.2-4.1,13.9-2.6c0.2,0.1,0.5,0.1,0.5,0.1c0.1-0.1,0.2,0,0.2,0.1c0.2,0.3,4.9-2,4.9-2.4c0-0.2,0-0.2,0.2,0
	c0.1,0.2,0.1,0.2,0.1,0c0-0.4,0.4-0.7,0.7-0.4c0.1,0.1,0.2,0.1,0.2,0.1c-0.1-0.2,0.3-0.6,0.6-0.7c0.3-0.1,2.4-1.4,2.5-1.6
	c0.1-0.3,2.2-1.7,2.3-1.6c0.1,0.1,0.1,0,0.1-0.1c0-0.1,0.2-0.4,0.5-0.6c0.3-0.2,0.6-0.4,0.6-0.5c0-0.1,0.1-0.1,0.2-0.1
	s0.3-0.1,0.3-0.2c0.1-0.1,0.2-0.2,0.3-0.2c0.1,0,0.2,0,0.2-0.1c0-0.1,0.1-0.2,0.2-0.1c0.1,0,0.2,0,0.1-0.1c0-0.1,0.3-0.5,0.8-0.9
	c0.5-0.4,1.3-1.1,1.7-1.5c0.5-0.4,0.9-0.7,1-0.7c0.1,0.1,0.1,0,0.1-0.1c-0.1-0.2,0.2-0.5,2.3-2.7c0.7-0.7,1.7-1.9,2.2-2.5
	c0.5-0.7,1.2-1.5,1.4-1.8c0.3-0.3,0.8-1,1.1-1.5c0.4-0.5,0.7-0.8,0.8-0.8c0.1,0.1,0.1,0,0.1-0.1c-0.1-0.1,0.1-0.5,0.4-1
	c1-1.5,1.7-2.6,1.7-2.6c0,0,0.1-0.2,0.2-0.3c0.3-0.3,3.2-6,3.3-6.4c0,0,0.1-0.3,0.3-0.5c0.3-0.5,1.6-4.1,1.8-4.7
	c0.1-0.2,0.2-0.4,0.3-0.3c0.1,0.1,0.1,0,0.1-0.2c-0.1-0.1,0-0.7,0.2-1.3c0.3-1,0.2-2.2-0.2-2.2c-0.1,0-0.1-0.1-0.1-0.1
	c0-0.3-2.5-4.1-3.2-4.9c-0.2-0.2-0.6-0.7-1-1.3c-1.1-1.5-3.5-3.4-5.8-4.7c-1.2-0.7-3-1.6-3.1-1.6c-0.1,0-0.5-0.2-0.9-0.4
	C113.1,65.6,104.1,64.2,99.3,64.8 M37.9,79.8c-0.1,0.2-0.3,0.5-0.4,0.7c-0.1,0.2-0.1,0.2,0.1,0.1c0.3-0.2,0.8-1.1,0.7-1.1
	C38.2,79.4,38.1,79.6,37.9,79.8 M36,82.5c-1.5,1.8-2.8,3.3-4.6,5c-1.4,1.3-1.1,1.1,0.6-0.4c1.2-1.1,4-4.2,5-5.5
	C37.8,80.4,37.4,80.7,36,82.5 M26.4,83.1c-0.7,0.4-1,0.9-1,1.8c0,2.6,3.8,2.8,4.1,0.2C29.8,83.4,27.9,82.2,26.4,83.1 M20,86.4
	c1.1,1.5,4.4,3.8,5.3,3.7c0.1,0-0.1-0.1-0.4-0.3c-1.6-0.7-2.7-1.4-4-2.7C20.2,86.4,19.7,86.1,20,86.4 M29.4,88.9
	c-0.3,0.2-1,0.6-1.6,0.9s-1,0.5-0.9,0.5c0.3,0,2.1-0.9,2.6-1.4C30.3,88.4,30.2,88.4,29.4,88.9 M82,91c-8.8,2-10.1,9.6-1.7,9.6
	c7.8,0,13.1-7.2,6.8-9.4C85.9,90.8,83.4,90.7,82,91 M48.5,93.3c0,0.3,0,0.5,0.1,0.3c0-0.2,0-0.5,0-0.6C48.6,92.8,48.5,93,48.5,93.3
	 M50.6,97.2c0.7,0.7,2.4,1.8,2.4,1.6c0,0-0.4-0.3-1-0.7c-0.5-0.3-1.2-0.8-1.6-1.1C50,96.6,50.1,96.7,50.6,97.2 M54.2,99.4
	c0.3,0.2,0.7,0.3,0.9,0.4c0.2,0.1,0-0.1-0.4-0.3C53.7,99,53.4,99,54.2,99.4 M107.5,99.4c0.5,0.1,0.9,0.2,1,0.2
	c0.1,0,0.5,0.3,0.9,0.6c3.9,3.5-3.4,9.9-8.9,7.9C94.9,106,101.2,98.1,107.5,99.4 M55.5,99.9c0,0.3,6.7,2,7.7,1.9
	c0.2,0-0.6-0.2-1.8-0.4c-1.9-0.4-4.8-1.1-5.6-1.5C55.7,99.9,55.5,99.8,55.5,99.9 M65.2,102.1c0.2,0,0.5,0,0.6,0c0.1,0,0-0.1-0.3-0.1
	C65.1,102,65,102.1,65.2,102.1 M82,102.1c0.1,0,0.4,0,0.5,0c0.1,0,0-0.1-0.3-0.1C82,102,81.8,102.1,82,102.1 M66.6,102.3
	c0.2,0,0.5,0,0.6,0c0.1,0,0-0.1-0.3-0.1C66.5,102.2,66.4,102.2,66.6,102.3 M68.2,102.4c0.2,0,0.5,0,0.6,0c0.1,0,0-0.1-0.3-0.1
	C68.2,102.3,68.1,102.4,68.2,102.4 M78.8,102.4c0.2,0,0.6,0,0.8,0c0.2,0,0-0.1-0.4-0.1C78.7,102.3,78.5,102.4,78.8,102.4
	 M72.1,102.6c1,0,2.7,0,3.7,0c1,0,0.1,0-1.9,0C71.9,102.5,71.1,102.5,72.1,102.6 M55.7,102.7c-0.2,0-1,0.1-1.7,0.2
	c-2.1,0.3-7.3,1.7-9.1,2.5c-0.3,0.1-1.2,0.5-2.2,0.9c-0.9,0.4-1.8,0.8-1.9,0.9c-0.3,0.3-0.3,0.3-1.2-0.6c-0.8-0.8-1.3-1-0.6-0.3
	c0.5,0.6,1.2,1.9,1.1,2.1c-0.1,0.1,0,0.1,0,0.1c0.1,0,0.7,1.3,0.7,1.7c0,0.1,0.1,0.3,0.3,0.4c0.1,0.1,0.2,0.2,0.1,0.1
	c-0.1-0.1-0.2,0-0.1,0.3c0,0.2,0.1,0.3,0.3,0.3c0.1,0,0.2,0,0.1,0.2c-0.3,0.6-0.3,1.3,0,1.3c0.2,0,0.2,0.2,0.2,1.1
	c0,0.9,0,1.1-0.2,1c-0.3-0.1-0.3,0.6-0.1,1c0.1,0.3,0.1,0.3-0.1,0.5c-0.3,0.2-0.3,0.6-0.1,0.6c0.1,0,0.1,0.1-0.1,0.2
	c-0.3,0.2-0.4,0.6-0.1,0.6c0.1,0,0.2,0.1,0.2,0.2s-0.1,0.1-0.2,0.1c-0.2,0-0.6,1.2-0.6,1.8c0,0.2,0,0.2,0.2,0.1
	c0.2-0.1,0.2-0.1,0.1,0c-0.1,0.1,0,0.3,0.3,0.4c0.2,0.1,0.4,0.2,0.4,0.3c0,0.1,0.1,0.1,0.2,0.1c0.4,0,0.7,0.1,1.8,0.7
	c0.6,0.3,1.4,0.6,1.6,0.7c0.3,0.1,0.5,0.3,0.4,0.4c-0.1,0.1,0,0.1,0.1,0.1c0.2-0.1,3,0.9,3.1,1.2c0.1,0.1,0.1,0.1,0.2,0.1
	c0.1,0,0.1,0,0.1,0c0,0,0.2,0,0.4,0.1c0.2,0,0.4,0.1,0.4,0.2c0,0.1,0.1,0.1,0.2,0.1s0.3,0,0.6,0.2s0.5,0.2,0.7,0.2
	c0.1,0,0.6,0.1,1,0.3c0.4,0.2,1.7,0.5,2.8,0.8c1.1,0.3,2.1,0.5,2.2,0.6c0,0.1,0.4,0.1,0.7,0.1c0.4,0,0.7,0.1,0.8,0.2
	c0.2,0.3,1.3,0.2,1.4-0.2c0-0.5,1.4-3.3,2-3.9c0.1-0.1,0.2-0.3,0.2-0.3c0-0.2,1.4-2.3,1.6-2.4c0.1,0,0.1-0.1,0.1-0.2
	s0.3-0.6,0.6-1.1c3.4-5.6,3.5-9.9,0.2-13.2C62.9,103.2,59.1,102.2,55.7,102.7 M105.5,105.7c-1.2,0.3-2.2,1.1-2,1.8
	c0.2,0.8,2.6,0.3,3.3-0.7c0.3-0.5,0.3-1.1-0.1-1.1c-0.1,0-0.3,0-0.5-0.1C106.1,105.6,105.8,105.6,105.5,105.7"/>
<g>
	<path class="st0" d="M211.8,41.4c0,3.6-1.2,7-2.9,9.7c-3.4,5.3-7.8,8-11.2,10.4c2.9-2.3,6-4.8,8.5-8.2c-2.2,3-4.8,4.7-6.7,5.8
		c-2,1-3.5,1.4-4.3,1.1c-1.1-0.4-0.6-1.9-0.5-2.3c0.4-1.2,1.4-2.7,3-4.6c0.8-1,1.7-2.1,2.6-3.4c0.9-1.3,1.8-2.9,2.3-4.6
		c0.9-3.3,0.1-5.5-0.3-6.5c-0.3-0.5-0.5-0.8-0.6-1c-0.1-0.2-0.2-0.3-0.2-0.3c-1-0.9-2.2-1.4-3.9-1.3c-1.7,0.1-3.7,0.8-5.7,1.8
		c-1,0.5-1.9,1.1-2.8,1.8c-1,0.7-1.9,1.5-2.8,2.3c-1.8,1.6-3.5,3.4-5,5.3c-4.3,5.3-7.3,11.5-8.8,17.8c-1.5,6.2-1.4,12.5,1.1,17.1
		c1.3,2.3,3.1,4.3,5.3,5.5c2.1,1.2,4.6,1.6,7.1,1.2c2.5-0.4,4.7-1.6,6.4-3.5c1.7-1.8,2.9-4.3,3.2-6.8c-0.2,2.5-1.2,5-2.7,7
		c-1.6,2-3.7,3.4-6.2,4.1c-3.5,1-7.2,0.3-10.1-1.7c-2.9-2-5.1-5.1-6.2-8.4c-2.3-6.8-1-14.4,1.3-21c-1.9,4.8-3.1,10.1-2.9,15.2
		c0.1,5.1,2,10.1,5.6,13.6c1.8,1.7,4,3,6.4,3.5c2.4,0.5,5,0.3,7.3-0.6c4.7-1.7,8.1-6.6,8.2-11.8c0.1,3.7-1.2,6.2-2,7.6
		c-0.9,1.4-1.4,2-1.3,2c0.1,0.1,2.1-2,3.1-4.7c1.1-2.7,1-5.6,1.2-5.6c0.1,0,0.3,0.5,0.4,1.6c0.1,1.1,0.1,2.8-0.6,4.8
		c-0.6,2-1.8,4.5-4.2,6.7c-2.3,2.1-5.8,3.9-9.9,4.1c-4.2,0.3-8.8-1.3-12.5-4.5c-3.7-3.1-6.4-7.8-7.4-13c-1.1-5.1-0.9-10.5,0.2-15.7
		c1.1-5.2,3.1-10.4,5.9-15.1c3.9-6.7,9.1-12.1,15.2-16.1c3.2-2,6.7-3.6,10.8-4.1c2-0.2,4.2-0.2,6.4,0.4c2.2,0.6,4.2,1.7,5.9,3.3
		c1.7,1.6,2.8,3.5,3.5,5.5C211.6,37.7,211.9,39.6,211.8,41.4z M207.5,33.7c-2-3.3-5.8-5.1-9.3-5.3c-3.5-0.2-6.5,0.9-9.3,2.1
		c-2.8,1.3-5.2,3.1-7.3,5c-2.2,1.9-4.2,3.9-6,6.1l0.1,0c1.9-2.2,4-4.2,6.3-6c2.2-1.8,4.7-3.5,7.5-4.7c2.8-1.2,5.9-1.9,9.1-1.8
		C201.9,29.4,205.3,31,207.5,33.7L207.5,33.7L207.5,33.7z M189.8,36.6L189.8,36.6c-1.1,0.5-2,1.1-2.9,1.8c-1,0.7-1.8,1.4-2.7,2.2
		c-0.9,0.8-1.7,1.6-2.5,2.4c-0.8,0.8-1.6,1.7-2.3,2.6l0,0c0.8-0.9,1.6-1.7,2.4-2.6c0.8-0.8,1.7-1.6,2.6-2.4c0.9-0.7,1.8-1.5,2.7-2.2
		C188,37.8,188.9,37.3,189.8,36.6z"/>
	<path class="st0" d="M245.9,65.1l-0.6,2.2l-0.5,1.3c-0.3,0.8-0.6,1.5-0.9,2.3c-1.3,2.9-2.4,5.4-3.3,8c-1.9,5-2.8,10.1-2.9,15.1
		c-0.2-2.6-0.2-5.4,0-8.1c0.4-3.9,1.3-7.6,2.4-11.2c0.6-1.8,1.2-3.6,1.8-5.3c0.3-0.9,0.6-1.8,0.9-2.8c0.1-0.6,0.3-1.3,0.4-1.9
		c0.1-0.6,0.2-1.3,0.2-1.9c-0.1,1.9-0.8,3.9-1.3,5l-1.5,3.7c-1,2.4-1.9,4.9-2.6,7.3c-1.4,4.9-1.8,10.2-1.1,15.4
		c-0.9-3.6-1-5.1-1.2-5.1c-0.1,0,0,1.4,0.1,2.8c0.1,1.4,0.4,2.8,0.2,2.8c-0.2,0.1-2.4-3.8-2.9-10.9c-0.2-3.5,0.1-7.8,1.1-12.2
		c0.5-2.2,1.1-4.4,1.6-6.4l0.2-0.7c0-0.1,0-0.1,0-0.2c0-0.1-0.1-0.1-0.1-0.2c-0.1-0.1-0.2-0.1-0.3-0.1c0,0-0.1,0-0.1,0
		c-0.1,0-0.1,0.1-0.1,0.1c-0.1,0,0.1,0.1-0.5,0.1c-0.9,0.1-1.8,0.5-2.7,1c-1.8,1-3.7,2.6-5.3,4.4c-3.2,3.5-5.8,7.4-7.7,10.5
		c0.6-1.5,1.2-3,1.9-4.5c-0.7,1.5-1.6,2.6-2.4,3.3c-1.5,6.7-2.8,13-3.7,19c0.1-1.4,0.2-2.9,0.3-4.3c0.1-1.5,0.3-2.9,0.4-4.4
		c0.3-3.3,0.7-6.4,1.1-9.5c0,0,0,0-0.1,0c-0.3,0-0.5-0.1-0.7-0.2c-1,6.1-1.7,12.4-1.8,18.7c-0.2-2-0.3-3.3-0.4-4.2
		c-0.1-0.9-0.1-1.3-0.2-1.2c-0.3,0,0,5.8-0.4,5.9c-0.3,0-1.6-4.5-2.2-11.8c-0.6-7.3-0.4-17.4,2.1-27.7c3.3-14.4,9.7-25.3,14.9-32.2
		c-0.8,1.7-1.7,3.4-2.5,5.1c1.4-3,3.5-4.7,5-4.4c1,0.2,1.5,1.3,1.6,1.6c0.8,1.7,0.2,4-1.4,8.5c-0.7,2.1-1.2,3.6-1.6,4.5
		c-0.3,0.9-0.5,1.3-0.5,1.3c-1.7,5.1-3.3,10.2-4.8,15.3c-0.4,1.5-0.8,3-1.2,4.5c0.4-0.6,0.8-1.2,1.2-1.6c1.2-1.5,2.7-3.3,4.8-4.9
		c2.3-1.8,3.8-2.3,4.6-2.5c1.5-0.4,2.7-0.3,3.4-0.3c2.9,0,5.5,1,7.2,2.8C246.1,58.8,246.8,61.9,245.9,65.1z M222.5,39.9L222.5,39.9
		c-0.9,1.2-1.5,2.5-2.1,3.8c-0.6,1.3-1,2.6-1.5,3.9c-0.4,1.3-0.9,2.7-1.3,4l-1.1,4l0,0h0c0.5-1.3,1-2.7,1.4-4c0.5-1.3,1-2.6,1.5-3.9
		c0.5-1.3,1.2-2.6,1.6-3.9C221.7,42.5,222.2,41.3,222.5,39.9z M222.3,55.9l0.6-1.7c0.2-0.6,0.5-1.1,0.6-1.7c0.2-0.6,0.4-1.1,0.5-1.7
		h0c-0.3,0.6-0.5,1.1-0.7,1.7c-0.2,0.6-0.4,1.1-0.6,1.7l-0.5,1.7l-0.5,1.7h0L222.3,55.9z M235.6,61.7L235.6,61.7L235.6,61.7l-1.4,0
		c-0.5,0.1-1,0.3-1.5,0.4c-1,0.4-2,0.8-3,1.5c-0.5,0.3-1,0.7-1.4,1c-0.5,0.3-0.9,0.7-1.3,1.2c-0.8,0.8-1.5,1.8-2.1,2.9l0.1,0
		c0.9-0.8,1.8-1.6,2.7-2.5c0.4-0.4,0.9-0.8,1.3-1.1c0.4-0.4,0.8-0.8,1.3-1.1c0.9-0.7,1.8-1.2,2.7-1.6c0.5-0.1,0.9-0.4,1.4-0.5
		C234.8,61.9,235.3,61.8,235.6,61.7z M236.3,56.2L236.3,56.2c-0.9-0.1-1.8,0.1-2.5,0.1c-0.8,0-1.4,0.3-2.1,0.5
		c-0.7,0.2-1.4,0.4-2,0.7c-0.6,0.3-1.3,0.6-1.8,1.1l0,0c0.6-0.3,1.3-0.6,1.9-0.9c0.6-0.3,1.3-0.6,2-0.8c0.7-0.2,1.3-0.5,2.1-0.5
		C234.6,56.4,235.4,56.2,236.3,56.2z"/>
	<path class="st0" d="M269.2,80c-3.7,1.3-7.2,1.6-10.4,1.5c0.2,1.3,0.8,2.7,1.4,3.8c1.5,2.7,4.6,4.2,8.1,4.3
		c3.5,0.1,7.2-1.1,10.2-3.2c-2.7,2.3-6.2,3.8-9.8,4.1c-2.5,0.2-5-0.2-7-1.3c-2-1.1-3.4-2.9-4.3-5c-2-4.1-1.1-8.9,1.1-12.9
		c-1.8,2.9-2.9,6.1-2.7,9.3c0.1,1.6,0.6,3.2,1.3,4.7c0.7,1.5,1.8,2.7,3,3.8c1.3,1,2.8,1.7,4.4,2.1c1.6,0.4,3.4,0.4,5.1,0.2
		c1.7-0.2,3.4-0.8,5-1.5c1.6-0.8,3.1-1.7,4.4-3c-1.7,1.9-3.3,2.8-4.2,3.5c-1,0.6-1.4,0.8-1.4,0.9c0,0.1,1.9-0.7,3.5-1.7
		c1.6-1.1,3-2.5,3.2-2.3c0.1,0.1-0.6,1.5-2.8,3.5c-1.1,0.9-2.5,2.1-4.5,2.9c-1.9,0.9-4.3,1.7-7.1,1.8c-2.8,0.1-6.1-0.5-9-2.6
		c-3-2-5.2-5.2-6.4-8.9c-1.3-3.8-1.1-8.2,0.2-12c1.2-3.9,3.4-7.4,6.1-10.4c0.9-1,2.1-2.1,3.3-3c1.2-0.9,2.5-1.6,3.8-2.2
		c1.3-0.6,2.7-1.1,4.2-1.5c1.5-0.3,2.9-0.5,4.9-0.4c1.9,0.2,4.2,1,5.7,2.4c1.6,1.3,2.8,3.2,3.3,5.2c0.6,2,0.5,3.9,0.1,5.7
		c-0.4,1.7-1.3,3.3-2,4.2C277.3,76.2,273,78.7,269.2,80z M266.8,79.8c-3.5,1.2-6.5,1-8.1,0.2c0,0.2,0,0.5,0,0.7
		c0,0.2,0.1,0.5,0.1,0.7C261.6,81.3,264.2,80.7,266.8,79.8z M267.5,71.8c2.1-1.4,3.2-2.6,3.8-3.4c0.3-0.4,0.5-0.7,0.6-0.9
		c0.1-0.2,0.2-0.3,0.2-0.3c0.8-1.4,0.8-1.9,0.7-2.3c-0.1-0.3-0.3-0.3-0.4-0.3c0,0.1-0.2,0-0.5,0c-0.5,0-1,0.1-1.6,0.3
		c-1.2,0.3-2.4,0.9-3.6,1.7c-0.8,0.5-1.5,1-2.2,1.8c-0.7,0.7-1.4,1.5-2,2.3c-1.2,1.6-2.2,3.3-2.8,5c0.5-0.3,1.2-0.7,2-1
		C263,74,265.1,73.3,267.5,71.8z M262.9,59.4L262.9,59.4c1.9-1,3.9-1.8,6.2-2.1c1.1-0.2,2.2-0.3,3.5-0.2c1.2,0.1,2.7,0.5,3.8,1.3
		c2.4,1.5,3.6,4.4,3.5,7c0,1.3-0.3,2.5-0.8,3.6c-0.5,1.1-1,1.9-1.5,2.9l0,0l0,0c0.4-0.4,0.8-0.9,1.1-1.3c0.3-0.5,0.7-0.9,1-1.6
		c0.6-1.2,1-2.6,1-4c0.1-2.9-1.6-5.9-4.2-7.3c-1.3-0.7-2.8-1.1-4.1-1.1c-1.3-0.1-2.4,0.1-3.5,0.4C266.7,57.4,264.7,58.3,262.9,59.4z
		 M272.8,62.4c-0.5-0.2-1-0.3-1.7-0.2c-0.7,0-1.3,0.2-2,0.4c-0.7,0.2-1.3,0.4-2,0.8c-0.6,0.3-1.3,0.7-1.9,1.1l0,0l0,0
		c0.6-0.4,1.3-0.7,1.9-1c0.7-0.3,1.3-0.5,2-0.7c0.7-0.2,1.3-0.3,2-0.3C272,62.4,272.4,62.4,272.8,62.4L272.8,62.4L272.8,62.4z"/>
	<path class="st0" d="M306.8,80c-3.7,1.3-7.2,1.6-10.4,1.5c0.2,1.3,0.8,2.7,1.4,3.8c1.5,2.7,4.6,4.2,8.1,4.3
		c3.5,0.1,7.2-1.1,10.2-3.2c-2.7,2.3-6.2,3.8-9.8,4.1c-2.5,0.2-5-0.2-7-1.3c-2-1.1-3.4-2.9-4.3-5c-2-4.1-1.1-8.9,1.1-12.9
		c-1.8,2.9-2.9,6.1-2.7,9.3c0.1,1.6,0.6,3.2,1.3,4.7c0.7,1.5,1.8,2.7,3,3.8c1.3,1,2.8,1.7,4.4,2.1c1.6,0.4,3.4,0.4,5.1,0.2
		c1.7-0.2,3.4-0.8,5-1.5c1.6-0.8,3.1-1.7,4.4-3c-1.7,1.9-3.3,2.8-4.2,3.5c-1,0.6-1.4,0.8-1.4,0.9c0,0.1,1.9-0.7,3.5-1.7
		c1.6-1.1,3-2.5,3.2-2.3c0.1,0.1-0.6,1.5-2.8,3.5c-1.1,0.9-2.5,2.1-4.5,2.9c-1.9,0.9-4.3,1.7-7.1,1.8c-2.8,0.1-6.1-0.5-9-2.6
		c-3-2-5.2-5.2-6.4-8.9c-1.3-3.8-1.1-8.2,0.2-12c1.2-3.9,3.4-7.4,6.1-10.4c0.9-1,2.1-2.1,3.3-3c1.2-0.9,2.5-1.6,3.8-2.2
		c1.3-0.6,2.7-1.1,4.2-1.5c1.5-0.3,2.9-0.5,4.9-0.4c1.9,0.2,4.2,1,5.7,2.4c1.6,1.3,2.8,3.2,3.3,5.2c0.6,2,0.5,3.9,0.1,5.7
		c-0.4,1.7-1.3,3.3-2,4.2C314.9,76.2,310.6,78.7,306.8,80z M304.4,79.8c-3.5,1.2-6.5,1-8.1,0.2c0,0.2,0,0.5,0,0.7
		c0,0.2,0.1,0.5,0.1,0.7C299.2,81.3,301.8,80.7,304.4,79.8z M305.1,71.8c2.1-1.4,3.2-2.6,3.8-3.4c0.3-0.4,0.5-0.7,0.6-0.9
		c0.1-0.2,0.2-0.3,0.2-0.3c0.8-1.4,0.8-1.9,0.7-2.3c-0.1-0.3-0.3-0.3-0.4-0.3c0,0.1-0.2,0-0.5,0c-0.5,0-1,0.1-1.6,0.3
		c-1.2,0.3-2.4,0.9-3.6,1.7c-0.8,0.5-1.5,1-2.2,1.8c-0.7,0.7-1.4,1.5-2,2.3c-1.2,1.6-2.2,3.3-2.8,5c0.5-0.3,1.2-0.7,2-1
		C300.6,74,302.7,73.3,305.1,71.8z M300.6,59.4L300.6,59.4c1.9-1,3.9-1.8,6.2-2.1c1.1-0.2,2.2-0.3,3.5-0.2c1.2,0.1,2.7,0.5,3.8,1.3
		c2.4,1.5,3.6,4.4,3.5,7c0,1.3-0.3,2.5-0.8,3.6c-0.5,1.1-1,1.9-1.5,2.9l0,0l0,0c0.4-0.4,0.8-0.9,1.1-1.3c0.3-0.5,0.7-0.9,1-1.6
		c0.6-1.2,1-2.6,1-4c0.1-2.9-1.6-5.9-4.2-7.3c-1.3-0.7-2.8-1.1-4.1-1.1c-1.3-0.1-2.4,0.1-3.5,0.4C304.3,57.4,302.3,58.3,300.6,59.4z
		 M310.4,62.4c-0.5-0.2-1-0.3-1.7-0.2c-0.7,0-1.3,0.2-2,0.4c-0.7,0.2-1.3,0.4-2,0.8c-0.6,0.3-1.3,0.7-1.9,1.1l0,0l0,0
		c0.6-0.4,1.3-0.7,1.9-1c0.7-0.3,1.3-0.5,2-0.7c0.7-0.2,1.3-0.3,2-0.3C309.6,62.4,310,62.4,310.4,62.4L310.4,62.4L310.4,62.4z"/>
	<path class="st0" d="M354.8,64.2c-0.3,1.9-1,3.6-1.9,5c1.2-2.6,1.8-5.6,1-8.7c0.7,2.7,0,5.1-0.9,6.4c-0.9,1.4-2,2-2.8,1.8
		c-1-0.2-1.4-1.3-1.6-1.6c-0.4-0.9-0.5-1.9-0.8-3c-0.2-1.1-0.6-2.6-1.6-3.2c-0.8-0.5-2-0.6-2.3-0.5c-0.6,0.1-0.9,0.2-0.9,0.2
		c-1,0.2-1.9,0.7-2.7,1.2c-0.4,0.3-0.7,0.6-1,0.9c-0.3,0.3-0.3,0.4-0.4,0.6c-0.1,0.4-0.1,0.7,0,1.2c0.1,0.5,0.5,1.3,1.2,2.2
		c0.9,1.2,2.7,3.1,4.1,5.1c1.5,2,2.9,4.5,3.6,7.5c0.8,3,0.4,6.3-0.6,8.8c-0.9,2.5-2.3,4.8-4.2,6.6c-1.8,1.9-4.1,3.3-6.7,4.1
		c-2.7,0.7-5,0.6-7.5-0.2c-2.4-0.7-4.7-2.5-5.7-4.8c-1-2.3-0.9-4.6-0.4-6.5c-0.4,1.9-0.3,4,0.7,6.1c1,2,3,3.6,5.2,4.2
		c1.5,0.5,3,0.6,4.5,0.4c1.5-0.1,3-0.5,4.4-1.2c2.7-1.4,4.7-3.5,6-5.8c1.3-2.3,2.3-4.9,2.2-7.8c0-2.8-1.1-5.4-2.4-7.4
		c0.9,1.6,1.6,3.3,1.8,5.3c0.3,1.9,0.1,3.9-0.5,5.6c-1.1,3.4-3.2,6.5-6.3,8.6c-1.5,1-3.3,1.7-5.2,1.9c-1.8,0.2-3.6,0-5.3-0.7
		c-1.7-0.7-3.3-2.1-4-3.8c-0.8-1.7-0.8-3.6-0.5-5.3c-0.3,2.5,0.4,4.2,1,5.1c0.6,0.9,1,1.2,1,1.1c0.1,0-1.1-1.4-1.3-3.2
		c-0.3-1.7,0.1-3.4,0.3-3.4c0.2,0,0.1,1.4,0.9,3.4c0.4,0.9,1.1,1.9,2.2,2.5c1,0.6,2.5,0.7,4.1,0.5c1.7-0.3,3-0.9,4.2-2.2
		c1.2-1.2,2.2-3,2.7-4.8c0.5-2,0.4-3.4-0.3-5c-0.7-1.6-2.2-3.4-4-5.4c-1.2-1.3-3-3.2-4.3-5.6c-1.3-2.4-2.1-6-1.2-9.2
		c0.4-1.6,1.2-3.1,2.2-4.3c1.1-1.3,2.1-2.1,3.1-2.8c2.1-1.4,4.4-2.2,6.7-2.6c0.6-0.1,1.2-0.1,1.7-0.2c0.6,0,1.1,0,1.9,0
		c1.5,0.2,2.6,0.5,3.8,1c2.3,1,4.4,3,5.5,5.3C355,60,355.1,62.3,354.8,64.2z M342.7,53.5L342.7,53.5c-2.1-0.1-4.1,0.4-5.8,1.3
		c-1.8,0.9-3.4,2.2-4.7,4.2c-1.2,2-1.7,4.4-1.3,6.6c0.4,2.2,1.3,4,2.4,5.5l0-0.1c-1-1.6-1.9-3.4-2.1-5.6c-0.2-2.1,0.3-4.4,1.6-6.2
		c1.3-1.8,3-2.8,4.6-3.7C339.1,54.5,340.8,53.9,342.7,53.5z M338,68.2c-0.3-0.5-0.6-1-0.9-1.5c-0.2-0.5-0.4-1-0.5-1.4
		c-0.1-0.4-0.1-0.9-0.1-1.3c0-0.4,0.1-0.8,0.1-1.2l0,0c-0.2,0.4-0.4,0.8-0.4,1.3c-0.1,0.5,0,0.9,0.2,1.3c0.1,0.5,0.3,0.9,0.6,1.4
		C337.3,67.2,337.6,67.7,338,68.2L338,68.2L338,68.2z"/>
	<path class="st0" d="M377.6,80c-3.7,1.3-7.2,1.6-10.4,1.5c0.2,1.3,0.8,2.7,1.4,3.8c1.5,2.7,4.6,4.2,8.1,4.3
		c3.5,0.1,7.2-1.1,10.2-3.2c-2.7,2.3-6.2,3.8-9.8,4.1c-2.5,0.2-5-0.2-7-1.3c-2-1.1-3.4-2.9-4.3-5c-2-4.1-1.1-8.9,1.1-12.9
		c-1.8,2.9-2.9,6.1-2.7,9.3c0.1,1.6,0.6,3.2,1.3,4.7c0.7,1.5,1.8,2.7,3,3.8c1.3,1,2.8,1.7,4.4,2.1c1.6,0.4,3.4,0.4,5.1,0.2
		c1.7-0.2,3.4-0.8,5-1.5c1.6-0.8,3.1-1.7,4.4-3c-1.7,1.9-3.3,2.8-4.2,3.5c-1,0.6-1.4,0.8-1.4,0.9c0,0.1,1.9-0.7,3.5-1.7
		c1.6-1.1,3-2.5,3.2-2.3c0.1,0.1-0.6,1.5-2.8,3.5c-1.1,0.9-2.5,2.1-4.5,2.9c-1.9,0.9-4.3,1.7-7.1,1.8c-2.8,0.1-6.1-0.5-9-2.6
		c-3-2-5.2-5.2-6.4-8.9c-1.3-3.8-1.1-8.2,0.2-12c1.2-3.9,3.4-7.4,6.1-10.4c0.9-1,2.1-2.1,3.3-3c1.2-0.9,2.5-1.6,3.8-2.2
		c1.3-0.6,2.7-1.1,4.2-1.5c1.5-0.3,2.9-0.5,4.9-0.4c1.9,0.2,4.2,1,5.7,2.4c1.6,1.3,2.8,3.2,3.3,5.2c0.6,2,0.5,3.9,0.1,5.7
		c-0.4,1.7-1.3,3.3-2,4.2C385.7,76.2,381.4,78.7,377.6,80z M375.2,79.8c-3.5,1.2-6.5,1-8.1,0.2c0,0.2,0,0.5,0,0.7
		c0,0.2,0.1,0.5,0.1,0.7C370,81.3,372.6,80.7,375.2,79.8z M375.9,71.8c2.1-1.4,3.2-2.6,3.8-3.4c0.3-0.4,0.5-0.7,0.6-0.9
		c0.1-0.2,0.2-0.3,0.2-0.3c0.8-1.4,0.8-1.9,0.7-2.3c-0.1-0.3-0.3-0.3-0.4-0.3c0,0.1-0.2,0-0.5,0c-0.5,0-1,0.1-1.6,0.3
		c-1.2,0.3-2.4,0.9-3.6,1.7c-0.8,0.5-1.5,1-2.2,1.8c-0.7,0.7-1.4,1.5-2,2.3c-1.2,1.6-2.2,3.3-2.8,5c0.5-0.3,1.2-0.7,2-1
		C371.5,74,373.5,73.3,375.9,71.8z M371.4,59.4L371.4,59.4c1.9-1,3.9-1.8,6.2-2.1c1.1-0.2,2.2-0.3,3.5-0.2c1.2,0.1,2.7,0.5,3.8,1.3
		c2.4,1.5,3.6,4.4,3.5,7c0,1.3-0.3,2.5-0.8,3.6c-0.5,1.1-1,1.9-1.5,2.9l0,0l0,0c0.4-0.4,0.8-0.9,1.1-1.3c0.3-0.5,0.7-0.9,1-1.6
		c0.6-1.2,1-2.6,1-4c0.1-2.9-1.6-5.9-4.2-7.3c-1.3-0.7-2.8-1.1-4.1-1.1c-1.3-0.1-2.4,0.1-3.5,0.4C375.1,57.4,373.1,58.3,371.4,59.4z
		 M381.2,62.4c-0.5-0.2-1-0.3-1.7-0.2c-0.7,0-1.3,0.2-2,0.4c-0.7,0.2-1.3,0.4-2,0.8c-0.6,0.3-1.3,0.7-1.9,1.1l0,0l0,0
		c0.6-0.4,1.3-0.7,1.9-1c0.7-0.3,1.3-0.5,2-0.7c0.7-0.2,1.3-0.3,2-0.3C380.4,62.4,380.8,62.4,381.2,62.4L381.2,62.4L381.2,62.4z"/>
	<path class="st0" d="M439,43c-0.6,3.1-2.3,5.7-4.4,7.5c3.1-2.9,4.6-7.5,3.7-11.9c0.6,3.7-0.6,6.8-2.1,8.6c-1.8,2.1-3.6,2.6-4.5,2.3
		c-1.1-0.4-0.7-2-0.7-2.3c0.1-1.2,0.7-2.6,0.9-4.6c0.2-1.9-0.2-4.8-2.7-6.6c-2.4-1.7-5.1-1.7-6.5-1.7c-0.7,0-1.3,0.1-1.6,0.1
		c-0.3,0-0.5,0.1-0.5,0.1c-4,0.8-6.1,3.4-6.2,6.9c0,0.9,0.1,1.8,0.3,2.7c0.2,0.9,0.5,1.8,1,2.7c0.9,1.9,2.3,3.9,3.9,6
		c2.3,2.9,5,5.9,7.4,9.5c2.4,3.6,4.7,7.8,5.1,12.9c0.3,5-1.2,9.3-3.6,12.9c-2.4,3.6-6.1,6.3-10.1,7.5c-4.1,1.2-8.3,1-12.2-0.1
		c-3.9-1.1-7.5-3.5-10-6.7c-2.5-3.2-3.6-7.1-3.5-10.6c0.1-3.5,1.2-6.7,2.9-9.2c-1.5,2.6-2.5,5.7-2.5,9c0,3.3,1,6.8,3.3,9.7
		c1.6,2.1,3.6,3.8,5.8,4.9c2.2,1.2,4.6,1.9,6.9,2.2c4.7,0.6,9.5-0.4,13.2-3.2c3.6-2.7,6-6.7,6.9-10.9c0.5-2.1,0.6-4.4,0.2-6.6
		c-0.4-2.2-1.2-4.2-2.2-6.1c1.3,2.8,2.3,5.9,2.1,9.2c-0.2,3.1-1.1,6-2.6,8.6c-1.5,2.6-3.7,4.7-6.2,6.2c-2.6,1.4-5.6,2.2-8.6,2.2
		c-3,0-6-0.7-8.8-2c-2.7-1.4-5.2-3.5-6.8-6.2c-1.6-2.6-2.3-5.7-2.2-8.6c0.1-2.9,1-5.7,2.4-8.1c-1.8,3.6-1.9,6.5-1.9,8.3
		c0,0.9,0.2,1.5,0.2,1.9c0.1,0.4,0.1,0.6,0.2,0.6c0.1,0-0.1-0.8-0.1-1.9c0-1.1,0.1-2.6,0.4-4c0.6-2.8,2.2-5.2,2.4-5.1
		c0.2,0.1-0.9,2.1-1.3,5.8c-0.1,1.9,0,4.2,1,6.5c0.9,2.4,2.8,4.6,5.4,6.1c2.6,1.5,6,2.2,9.2,1.7c3.3-0.4,6.2-2.1,8.2-4.8
		c2-2.6,2.9-6.7,2.2-9.7c-0.8-3.3-3.4-6.9-6.6-10.7c-2.2-2.7-4.7-5.4-6.9-8.7c-1.1-1.6-2.1-3.4-2.9-5.3c-0.8-1.9-1.5-4.1-1.7-6.2
		c-0.5-4.3,0.4-8.8,3-12.2c1.3-1.7,2.8-3.1,4.6-4.1c1.8-1,3.6-1.7,5.4-2c3.6-0.7,7.2-0.4,10.7,0.7c3.4,1.1,6.9,3.4,9,6.7
		C439.1,36.1,439.6,39.9,439,43z M420.1,27.3L420.1,27.3c-3.3,0-6.6,1.1-9.2,3.3c-2.6,2.2-4,5.4-4.4,8.7c-0.4,3.3,0.2,6.6,1.5,9.5
		c1.3,2.9,3,5.4,4.7,7.7l0,0l0,0c-1.7-2.4-3.4-5-4.5-7.9c-1.2-3-1.6-6.3-1.1-9.4c0.5-3.2,2.2-6.1,4.6-8.1
		C414.2,28.8,417.2,27.8,420.1,27.3z M413.8,47.9c-0.5-1-0.8-2-1.1-3c-0.3-1-0.4-1.9-0.5-2.9l0,0l0,0c-0.1,1,0.1,2.1,0.3,3.1
		c0.3,1,0.7,2,1.2,3c0.5,1,1.1,2,1.7,2.9c0.6,1,1.4,1.9,2.1,2.8l0,0c-0.7-1-1.4-2-2-3C414.8,49.9,414.3,48.9,413.8,47.9z"/>
	<path class="st0" d="M488.7,63.7c-0.6,3.8-2,7.6-3.6,11.8c-1.7,4.2-3.6,8.4-6.1,12.9l-0.4,0.7c-0.2,0.3-0.5,0.7-0.7,1
		c-0.5,0.7-1,1.3-1.5,1.9c-1.1,1.2-2.3,2.1-3.6,2.7c-2.6,1.2-5.4,1.4-7.7,0.2c-2.3-1.1-3.7-3.3-4.5-6c-0.1-0.4-0.2-0.8-0.3-1.3
		c-0.5,0.8-1.1,1.7-1.9,2.5c-0.7,0.7-1.4,1.4-2.3,2.1c-0.4,0.3-0.9,0.7-1.5,1c-0.7,0.4-1.4,0.7-2.2,0.9c-1.5,0.5-3.2,0.5-4.8,0.1
		c-1.6-0.4-3.1-1.4-4.3-2.7c-0.6-0.7-1.1-1.4-1.5-2.3c-0.4-0.8-0.7-1.8-0.9-2.5c-0.3-1.5-0.4-2.8-0.4-4.1c0-1.7,0.2-3.3,0.3-4.6
		c0.1-1.2,0.4-2.7,0.6-4c0.5-2.6,1.1-5.1,1.8-7.4c1.4-4.5,3-8.3,4.4-11.3l-1,4.3c0.5-2.5,2-4.1,3.5-4c1,0.1,1.8,0.8,2,1
		c1.2,1.3,1.3,3.2,0.9,7c-0.4,3.5-0.6,4.9-0.6,4.9c-0.6,4.2-1,8.2-1.5,12.5c-0.2,1.4-0.2,2.5-0.2,3.4c0,0.2,0,0.4,0.1,0.5
		c0,0.1,0,0.1,0,0.1c0,0,0,0.1-0.1,0.1c0,0.1,0,0.2,0.1,0.4c0,0.1,0.2,0.1,0.2,0.1c0.3-0.1,0.8-0.2,1.2-0.4c1.8-0.8,3.6-2.2,5.1-3.8
		c0.9-0.9,1.7-2,2.3-3.1c0-0.2,0-0.4,0-0.6c0.1-1.5,0.3-2.8,0.6-4.1c0.6-2.6,1.3-4.9,2.2-6.9c-0.5,1.8-0.8,3.7-1,5.6
		c0.4-3.3,2.1-5.5,3.6-5.5c1,0,1.7,0.9,1.9,1.1c1.2,1.4,1.1,3.6,1.3,7.8c0.3,3.9,0.6,5.3,0.6,5.4l0.3,1.8c0.1,0.5,0.1,0.4,0.2,0.5
		c0.1,0.1,0.2,0.1,0.3,0.1c0.2-0.1,0.3-0.3,0.2-0.3c3.3-5.3,6.4-10.3,9.4-15.1c0.8-1.3,1.6-2.7,2.4-3.9c0.7-1.2,1.3-2.4,1.8-3.6
		c1-2.4,1.4-4.9,1-7.3c0.7,2.3,0.6,4.8-0.1,7.3c-0.5,1.8-1.2,3.5-2,5.2c-0.8,1.8-1.7,3.5-2.5,5.2c-1.7,3.4-3.4,6.6-5.1,9.7
		c2.9-4.4,5.6-8.8,7.9-13.5c1.2-2.3,2.2-4.6,2.7-7c0.5-2.4,0.5-4.9-0.3-7.2c0.8,1.6,1,2.8,1.2,3.6c0.2,0.8,0.2,1.1,0.3,1.1
		c0.1,0,0.1-1.4-0.2-2.7c-0.2-1.4-0.8-2.6-0.6-2.7c0.1-0.1,1,0.7,1.8,2.7C488.7,56.8,489.2,60,488.7,63.7z M445.7,66.4L445.7,66.4
		c-0.6,1.1-0.9,2.1-1.2,3.2c-0.3,1.1-0.4,2.2-0.6,3.3c-0.2,1.1-0.3,2.2-0.5,3.3l-0.3,3.3l0.1,0l0.6-3.3l0.7-3.3
		c0.2-1.1,0.6-2.2,0.8-3.2C445.5,68.6,445.7,67.5,445.7,66.4z M459.7,79.4c-0.4,0.8-0.9,1.6-1.4,2.3c-1.7,2.5-4,4.6-6.2,5.6
		c-0.8,0.4-1.6,0.5-2.3,0.2c-0.7-0.3-1.3-1-1.5-1.7c0.1,1.2,1.1,2.4,2.5,2.5c0.3,0,0.7,0,1-0.1c0.2,0,0.3-0.1,0.5-0.1
		c0.2-0.1,0.4-0.2,0.6-0.3c0.8-0.4,1.7-0.9,2.5-1.5c1.7-1.3,3.2-3.1,4.3-5C459.7,80.7,459.7,80,459.7,79.4z M448.5,80.5L448.5,80.5
		l0.3-1.4l0.3-1.5c0.1-0.5,0.2-0.9,0.3-1.4c0.1-0.5,0.1-0.9,0.1-1.4h0c-0.2,0.5-0.3,0.9-0.4,1.4c-0.1,0.5-0.1,0.9-0.2,1.4l-0.2,1.4
		L448.5,80.5z M473.8,91.2L473.8,91.2c-1.6,1.1-3.3,1.8-5,1.9c-1.7,0.1-3.5-0.8-4.4-2.3c-1-1.4-1.4-3.3-1.7-5.1
		c-0.2-0.9-0.3-1.6-0.4-2.3c-0.1,0.4-0.3,0.9-0.5,1.3c0,0.5,0.1,1,0.2,1.5c0.3,2.1,1.1,3.9,2.2,5.3c0.6,0.7,1.2,1.3,2.1,1.6
		c0.8,0.3,1.8,0.4,2.7,0.4C470.6,93.2,472.4,92.4,473.8,91.2z M468.4,86.4c0.1,0.3,0.4,0.5,0.7,0.6c0.3,0.1,0.6-0.1,0.9-0.2
		c0.3-0.1,0.6-0.3,0.8-0.5c0.2-0.2,0.5-0.4,0.6-0.6l0,0c-0.2,0.2-0.4,0.4-0.7,0.5c-0.2,0.1-0.5,0.3-0.8,0.3
		c-0.3,0.1-0.5,0.1-0.8,0.1C468.9,86.6,468.6,86.5,468.4,86.4L468.4,86.4L468.4,86.4z"/>
	<path class="st0" d="M529.6,60.8c-0.1,2.6-0.2,3.6-0.2,3.6c-0.2,3.1-0.6,6.2-1.1,9.3c-0.3,2.1-0.8,4.4-1.2,6.3
		c-0.4,1.9-0.9,3.7-1.3,5.5c-0.4,1.7-0.7,3.4-0.8,5c-0.1,1.7-0.2,3,0.2,4.1c-0.6-0.8-0.9-2.1-1.1-3.8c-0.5-4.4,0.2-8.9,0.6-13.2
		c-0.8,3.1-1.4,6.1-1.6,9.2c-0.1,1.5-0.1,3,0.1,4.5c0.2,1.5,0.6,2.9,1.5,3.8c-0.8-0.5-1.2-1.1-1.5-1.5c-0.3-0.4-0.4-0.6-0.5-0.5
		c-0.1,0,0.2,0.8,0.6,1.5c0.4,0.7,1.1,1.2,1,1.4c-0.1,0.1-0.9,0.1-2-0.9c-0.5-0.5-1.1-1.1-1.6-2c-0.5-0.8-1-1.8-1.4-2.9
		c-0.8-2.1-1.4-4.7-1.6-7.4c-0.3,0.6-0.6,1.2-1,1.8c-1.4,2.3-3.1,4.8-6.1,6.9c-0.8,0.4-1.5,1-2.4,1.3c-0.9,0.3-1.8,0.7-2.8,0.9
		l-1.5,0.2c-0.3,0-0.5,0.1-0.8,0.1l-0.9,0c-0.6,0-1.3-0.1-1.9-0.3c-0.7-0.2-1.3-0.4-1.9-0.8c-2.6-1.4-4-3.8-4.7-5.7
		c-0.8-2-1.1-3.9-1.2-5.7c-0.4-4.9,0.5-9.9,2.5-14.1c2-4.2,5-7.7,8.5-10.1c3.5-2.4,7.5-3.8,11.6-3.8c2.1,0,4.2,0.5,6,1.4
		c0.6,0.3,1.2,0.7,1.7,1.1c0.3-0.7,0.7-1.4,1-2l-0.5,2.4c0,0,0,0,0.1,0c0.5-1.4,1.7-2.2,2.9-2c1,0.1,1.8,0.8,2,0.9
		C529.4,56.5,529.7,58,529.6,60.8z M498.5,66.5c0.9-1.5,2.1-2.9,3.3-4.2c1.2-1.3,2.5-2.5,3.9-3.7l0,0l0,0c-1.7,0.9-3.2,2.1-4.5,3.4
		c-1.3,1.3-2.3,2.9-3.2,4.5c-0.9,1.6-1.6,3.3-2.1,5c-0.5,1.7-0.9,3.5-1,5.3l0,0l0,0c0.3-1.8,0.7-3.6,1.3-5.3
		C496.8,69.6,497.6,68,498.5,66.5z M500.5,75.7c0.1-0.6,0.3-1.3,0.5-1.9c0.2-0.6,0.4-1.2,0.7-1.8c0.2-0.6,0.4-1.2,0.7-1.8l0,0
		c-0.4,0.6-0.7,1.2-0.9,1.8c-0.3,0.6-0.4,1.2-0.6,1.8c-0.2,0.6-0.3,1.3-0.4,1.9c-0.1,0.6-0.2,1.3-0.2,1.9l0,0l0,0
		C500.3,76.9,500.4,76.3,500.5,75.7z M518.5,69.1c-0.6,1.6-1.3,3.2-2.1,4.8c-2.1,4.4-4.6,8.5-7.6,11.2c-1.5,1.3-3.2,2-4.9,2.1
		c-1,0.2-1.4,0-1.9-0.2c-0.5-0.2-0.9-0.6-1.3-1.3c0.5,1,1,1.7,1.9,1.9c0.3,0,0.5,0.1,0.8,0.1l1,0c0.7,0,1.3-0.3,1.9-0.4
		c2.5-0.9,4.8-3,6.6-5.5c2-2.8,3.7-5.9,5.1-9.1C518.1,71.4,518.3,70.2,518.5,69.1z M520.4,61.8c-1.5-0.2-3.3-0.7-6.2,0.1
		c-1.8,0.6-3.1,1.4-3.8,2c-0.7,0.6-1.1,0.8-1.1,0.8c-3.9,3.3-6.2,8.3-6.6,13.3c-0.1,1.8-0.1,3.7,0.2,5.1c0.1,0.7,0.3,1.2,0.5,1.5
		c0,0,0.1,0.1,0.1,0.1c0,0,0,0,0,0c0,0,0,0,0,0.1c0.1,0,0.1,0,0.2,0l0.4,0c0.3,0,0.5,0,0.8-0.1c0.3-0.1,0.6,0,0.8-0.2
		c1.1-0.3,2.4-1.2,3.6-2.3c2.4-2.2,4.5-5.3,6.3-8.4c1.2-2.1,2.3-4.3,3.4-6.4C519.3,65.4,519.8,63.5,520.4,61.8z M522.5,56.4
		c-1.6-0.9-3.5-1.6-5.3-1.7c2.1,0.2,3.9,1.1,5.1,2.1C522.4,56.7,522.4,56.6,522.5,56.4z M522.5,62.5L522.5,62.5
		c-0.5,0.8-0.8,1.5-1,2.3c-0.2,0.7-0.3,1.3-0.4,2c0.4-1.4,0.9-2.5,1-2.5c0.1,0,0.1,0.3,0.1,0.9c0-0.1,0.1-0.2,0.1-0.3
		C522.4,64.1,522.5,63.3,522.5,62.5z M523.1,56.8C523.1,56.8,523.1,56.8,523.1,56.8l-0.1,0.5C523,57.2,523.1,57,523.1,56.8z
		 M526.6,69L526.6,69c-0.2,0.3-0.3,0.7-0.4,1c-0.1,0.3-0.1,0.7-0.2,1l-0.2,1l-0.1,1h0l0.2-1l0.2-1c0.1-0.3,0.2-0.7,0.2-1
		C526.5,69.7,526.6,69.3,526.6,69z"/>
	<path class="st0" d="M570.4,80.5c-2,4.2-5,7.7-8.5,10.1c-3.5,2.4-7.5,3.8-11.6,3.8c-2.1,0-4.2-0.5-6-1.4c-0.4-0.2-0.8-0.4-1.1-0.7
		c-1.4,11.6-2.3,22.3-2.5,31.9c-0.1-1.4-0.2-2.9-0.3-4.3c-0.1-1.5-0.1-2.9-0.2-4.5c-0.3-8.6-0.2-16.6,0.4-24
		c-1.6,10.8-1.8,22-0.6,33c-0.4-1.9-0.7-3.3-1-4.1c-0.2-0.9-0.3-1.2-0.4-1.2c-0.3,0.1,0.8,5.8,0.4,5.9c-0.3,0.1-2.1-4.3-3.7-11.4
		c-1.6-7.1-2.7-17.2-1.6-27.7c1.4-14.7,6.3-26.4,10.5-33.9c-0.6,1.8-1.3,3.6-1.8,5.4c0.9-3.2,2.9-5.1,4.3-5c1,0.1,1.7,1.1,1.8,1.3
		c1.1,1.6,0.7,4-0.3,8.6c-0.2,0.9-0.3,1.6-0.4,2.3c0.2-0.4,0.5-0.9,0.7-1.3c1.4-2.3,3.1-4.8,6.1-6.9c0.8-0.4,1.5-1,2.4-1.3
		c0.9-0.3,1.8-0.7,2.8-0.9l1.5-0.2c0.3,0,0.5-0.1,0.8-0.1l0.9,0c0.6,0,1.3,0.1,1.9,0.3c0.7,0.2,1.3,0.4,1.9,0.8
		c2.6,1.4,4,3.8,4.7,5.7c0.8,2,1.1,3.9,1.2,5.7C573.3,71.4,572.4,76.3,570.4,80.5z M540.4,65.9L540.4,65.9c-0.7,1.3-1.2,2.7-1.6,4
		c-0.4,1.4-0.7,2.7-0.9,4.1c-0.3,1.4-0.5,2.7-0.8,4.1l-0.6,4.1l0.1,0c0.3-1.4,0.6-2.8,0.9-4.2c0.3-1.4,0.7-2.7,1-4.1
		c0.4-1.4,0.8-2.7,1.1-4.1C539.9,68.6,540.2,67.3,540.4,65.9z M543.3,76.4L543.3,76.4L543.3,76.4c-0.2,0.6-0.4,1.2-0.5,1.8
		c-0.1,0.6-0.3,1.2-0.3,1.8l-0.3,1.8l-0.3,1.8l0,0l0.4-1.8l0.4-1.8c0.1-0.6,0.3-1.2,0.4-1.8C543.1,77.5,543.2,76.9,543.3,76.4z
		 M548.1,93.3c-1.9-0.1-3.6-0.9-4.8-1.8c0,0.1,0,0.3,0,0.4C544.8,92.7,546.5,93.2,548.1,93.3z M562.6,70c0.1-1.8,0.1-3.7-0.2-5.1
		c-0.1-0.7-0.3-1.2-0.5-1.5c0,0-0.1-0.1-0.1-0.1c0,0,0,0,0,0c0,0,0,0,0-0.1c-0.1,0-0.1,0-0.2,0l-0.4,0c-0.3,0-0.5,0-0.8,0.1
		c-0.3,0.1-0.6,0-0.8,0.2c-1.1,0.3-2.4,1.2-3.6,2.3c-2.4,2.2-4.5,5.3-6.3,8.4c-1.8,3.1-3.4,6.3-4.9,9.4c1.1-3.2,2.4-6.3,3.9-9.5
		c2.1-4.4,4.6-8.5,7.6-11.2c1.5-1.3,3.2-2,4.9-2.1c1-0.2,1.4,0,1.9,0.2c0.5,0.2,0.9,0.6,1.3,1.3c-0.5-1-1-1.7-1.9-1.9
		c-0.3,0-0.5-0.1-0.8-0.1l-1,0c-0.7,0-1.3,0.3-1.9,0.4c-2.5,0.9-4.8,3-6.6,5.5c-3.5,4.8-5.9,10.6-7.8,16.4c-0.1,0.5-0.2,0.9-0.2,1.4
		c-0.1,0.7-0.2,1.4-0.3,2c1.8,0,3.6,1,7.1-0.1c1.8-0.6,3.1-1.4,3.8-2c0.7-0.6,1.1-0.8,1.1-0.8C559.9,80.1,562.2,75.1,562.6,70z
		 M544.8,81.4c0.7-2.9,1-4,0.9-4.1c-0.1,0-0.2,0.2-0.3,0.6C545.2,79.1,545,80.2,544.8,81.4z M570.6,71.5L570.6,71.5L570.6,71.5
		c-0.3,1.8-0.8,3.6-1.4,5.3c-0.6,1.7-1.4,3.3-2.4,4.8c-0.9,1.5-2.1,2.9-3.3,4.3c-1.2,1.3-2.5,2.5-3.9,3.7l0.1,0.1
		c1.7-0.9,3.2-2.1,4.5-3.4c1.3-1.3,2.3-2.9,3.2-4.5c0.9-1.6,1.6-3.3,2.1-5C570.1,75,570.4,73.3,570.6,71.5z M564.8,72.4
		c-0.1,0.6-0.3,1.3-0.5,1.9c-0.2,0.6-0.4,1.2-0.7,1.8c-0.2,0.6-0.5,1.2-0.7,1.8l0,0l0,0c0.4-0.6,0.7-1.2,0.9-1.8
		c0.3-0.6,0.4-1.2,0.6-1.8c0.2-0.6,0.3-1.3,0.4-1.9c0.1-0.6,0.2-1.3,0.2-1.9l0,0C565,71.1,564.9,71.8,564.8,72.4z"/>
</g>
</svg>
