<?xml version="1.0" encoding="utf-8"?>
<!-- Generator: Adobe Illustrator 23.0.5, SVG Export Plug-In . SVG Version: 6.00 Build 0)  -->
<svg version="1.1" id="Layer_1" xmlns="http://www.w3.org/2000/svg" xmlns:xlink="http://www.w3.org/1999/xlink" x="0px" y="0px"
	 viewBox="0 0 720 128" style="enable-background:new 0 0 720 128;" xml:space="preserve">
<style type="text/css">
	.st0{fill:#EF4E7B;}
	.st1{fill:#F7AF41;}
	.st2{opacity:0.3;}
	.st3{fill:#6C184E;}
	.st4{fill:#FFCE00;}
	.st5{opacity:0.65;}
	.st6{fill:#FFFFFF;}
	.st7{fill:#EE1822;}
	.st8{fill:#BD1622;}
	.st9{fill:#F6C547;}
	.st10{fill:#48C75A;}
	.st11{fill:#661A47;}
	.st12{fill:#651B47;}
	.st13{fill:none;}
	.st14{fill:#EB984E;}
	.st15{fill:#6D184E;}
</style>
<circle class="st0" cx="73.6" cy="64" r="64"/>
<g>
	<g>
		<g>
			<path class="st1" d="M31.7,93.2c0,0-1.8,5.7,11.6-2.5s46.8-14.4,62.6-12.4c15.8,2,4.6-35.6-7.1-41.6S50.4,56.7,31.7,93.2z"/>
		</g>
		<g class="st2">
			<path class="st3" d="M32.8,92c0,0-2.9,7,10.5-1.2s46.8-14.4,62.6-12.4c15.8,2,4.6-35.6-7.1-41.6S51.5,55.5,32.8,92z"/>
		</g>
		<g>
			<path class="st3" d="M34.1,95.3c-0.7,0-1.3-0.2-1.7-0.5c-1.3-1-0.6-3-0.5-3.1c0,0,0-0.1,0-0.1c8.6-16.8,19.7-29.1,27.4-36.4
				c9.9-9.3,20.3-16.2,28.5-18.8c4.8-1.5,8.6-1.6,11.3-0.2c4.3,2.2,8.7,8.4,11.9,16.7c3.1,8.1,4.1,16.1,2.7,20.9
				c-1.1,3.4-3.3,5.2-6.6,5.2c-0.4,0-0.8,0-1.3-0.1c-16.3-2.1-49.4,4.5-62.2,12.4C39.2,94,36,95.3,34.1,95.3z M33,92.2
				c-0.1,0.4-0.3,1.3,0.2,1.7c0.4,0.3,2.3,1,9.9-3.7c6.3-3.9,17.5-7.6,30.6-10.1c12.7-2.5,24.8-3.4,32.4-2.4c3.3,0.4,5.5-1,6.5-4.3
				c1.4-4.5,0.4-12.2-2.6-20.1c-3-7.9-7.4-14.1-11.3-16.1c-2.4-1.2-5.9-1.1-10.3,0.3c-8.1,2.6-18.3,9.4-28.1,18.6
				C52.4,63.4,41.5,75.6,33,92.2z"/>
		</g>
		<g>
			<g>
				<path class="st4" d="M99.7,43.9c-1.9-0.4,0.2-1.1-2.3-3.6c-2.5-2.5-5.2-0.4-5.2-0.4c0.4-0.9,0.5-1.7,0.1-2.4
					c-2.1-3-7.7-1.1-9.7-3.5c-2-2.4-6.9-0.2-6.9-0.2s-29,17.3-37.3,37.3c-8.3,20-7.7,26.1-4.1,24.7c3.6-1.4,6.3-4.5,8.9-2
					s-0.7,7.1,2.5,9.3c1.8,1.3,5.9-1,3.9-4.4c-2-3.4-4.6-9.7-0.2-13.1c4.5-3.4,14.7-5.2,14.1-0.4c-1.5,11.8,11,6.8,7.1,1.8
					c-3.3-4.2-0.3-11.6,7.1-7.6c6.2,3.4,5.4-1.2,11.5-3.2c4.5-1.5,12.9-1.5,12.9-1.5c5.9-3.4,0.6-5.2,0.6-5.2s4.9-3.8,3.7-6.4
					c-1.2-2.6-0.6-6.7-0.5-10.9C106.1,48,101.5,44.3,99.7,43.9z"/>
			</g>
			<g class="st2">
				<path class="st3" d="M99.7,43.9c-1.9-0.4,0.2-1.1-2.3-3.6c-2.5-2.5-5.2-0.4-5.2-0.4c0.4-0.9,0.5-1.7,0.1-2.4
					c-2.1-3-7.7-1.1-9.7-3.5c-2-2.4-6.9-0.2-6.9-0.2S75,34.2,73.8,35c9.1,2.4,27.8,10,24.4,37.3c0,0-36.2,2.6-46.2,8.8
					c-7.2,4.5-14.4,12.8-20,13.9c0.4,1,1.2,1.3,2.2,0.9c3.6-1.4,6.3-4.5,8.9-2c2.6,2.5-0.7,7.1,2.5,9.3c1.8,1.3,5.9-1,3.9-4.4
					c-2-3.4-4.6-9.7-0.2-13.1c4.5-3.4,14.7-5.2,14.1-0.4c-1.5,11.8,11,6.8,7.1,1.8c-3.3-4.2-0.3-11.6,7.1-7.6
					c6.2,3.4,5.4-1.2,11.5-3.2c4.5-1.5,12.9-1.5,12.9-1.5c5.9-3.4,0.6-5.2,0.6-5.2s4.9-3.8,3.7-6.4c-1.2-2.6-0.6-6.7-0.5-10.9
					C106.1,48,101.5,44.3,99.7,43.9z"/>
			</g>
			<g class="st5">
				<g>
					<path class="st6" d="M101.2,44.9c0.2,0,0.3,0.1,0.5,0.2c-0.5-0.4-1-0.7-1.4-0.9C100.4,44.5,100.5,44.7,101.2,44.9z"/>
				</g>
				<g>
					<path class="st6" d="M104.5,70.4C104.5,70.4,104.4,70.4,104.5,70.4C104.4,70.4,104.4,70.4,104.5,70.4
						C104.4,70.4,104.4,70.4,104.5,70.4z"/>
				</g>
				<g>
					<path class="st6" d="M93.8,40.8c0,0,1.6-1.2,3.4-0.6c-1.1-1-2.2-1.2-3.1-1C94.2,39.7,94.1,40.2,93.8,40.8z"/>
				</g>
				<g>
					<path class="st6" d="M91.9,37c-1.8-1.8-5.3-1.2-7.6-2C85.8,36.7,89.3,36.1,91.9,37z"/>
				</g>
				<g>
					<path class="st6" d="M75.7,33.8c0,0-12.9,7.7-24,18.8c-0.2,0.2-0.4,0.3-0.6,0.6c-0.1,0.1-0.2,0.3-0.3,0.4
						c-5.1,5.3-9.8,11.3-12.4,17.5c-7.8,18.7-7.7,25.3-4.7,24.9c-1-2.4,0.3-9.6,6.3-23.9c2.2-5.4,6-10.6,10.3-15.3
						c0.1,0.2,0.2,0.3,0.3,0.4c1,0.9,2.7,0.5,4-0.8c1.2-1.3,1.5-3.1,0.5-4c-0.1-0.1-0.2-0.2-0.3-0.2c10.7-10.3,21.8-18.2,21.8-18.2
						s3.8-0.5,6,0.1C80.5,31.7,75.7,33.8,75.7,33.8z"/>
				</g>
			</g>
			<g>
				<path class="st3" d="M47,104c-0.6,0-1.1-0.2-1.6-0.5c-1.9-1.4-1.8-3.5-1.7-5.4c0.1-1.6,0.2-3-0.9-4c-1.5-1.4-2.9-0.7-5.3,0.7
					c-0.9,0.5-1.9,1.1-3,1.5c-1.3,0.5-2.1,0.1-2.5-0.4c-2.7-2.8,1.7-15.2,5.8-25.2c4.3-10.4,14.3-20.1,22-26.4
					c8.2-6.8,15.6-11.2,15.6-11.2c0,0,0,0,0.1,0c0.2-0.1,5.3-2.3,7.6,0.4c0.8,0.9,2.4,1.1,4.1,1.3c2.1,0.2,4.4,0.5,5.7,2.3
					c0.3,0.5,0.5,1,0.4,1.6c1.3-0.4,3-0.4,4.6,1.2c1.5,1.5,1.5,2.5,1.6,3.1c0,0.1,0,0.2,0,0.2c0,0,0.1,0.1,0.4,0.1l0,0
					c2.1,0.5,6.9,4.3,6.8,8.8c0,0.9-0.1,1.8-0.1,2.7c-0.2,3.1-0.3,6,0.6,7.9c1.1,2.4-1.6,5.2-3.1,6.5c0.7,0.4,1.5,1.1,1.7,2.1
					c0.1,1.2-0.9,2.5-3.1,3.8c-0.1,0.1-0.2,0.1-0.3,0.1c-0.1,0-8.3,0.1-12.7,1.5c-2.2,0.7-3.4,1.8-4.5,2.7c-2,1.7-3.5,2.7-7.5,0.5
					c-2.7-1.5-5.1-1.5-6.5,0.1c-1.4,1.7-1.4,4.5,0.2,6.5c1.1,1.4,1.2,3.1,0.1,4.5c-1.3,1.7-3.7,2.4-5.6,1.6
					c-1.3-0.5-3.5-2.3-2.8-7.6c0.1-0.8-0.1-1.3-0.8-1.7c-2.3-1.4-8.9,0.1-12.4,2.7c-4.3,3.3-1.2,9.7,0.3,12.3c1,1.7,0.8,3.4-0.5,4.6
					C48.9,103.7,47.9,104,47,104z M41.1,92.2c0.9,0,1.7,0.3,2.5,1.1c1.5,1.4,1.4,3.3,1.3,5c-0.1,1.8-0.2,3.3,1.2,4.3
					c0.7,0.5,1.9,0.2,2.8-0.5c0.5-0.5,1.2-1.5,0.3-3.1c-1.7-2.9-5.1-10,0-13.9c3.5-2.7,10.7-4.5,13.7-2.8c1.1,0.6,1.5,1.6,1.4,2.9
					c-0.4,3.4,0.3,5.6,2,6.3c1.4,0.6,3.2,0,4.1-1.2c0.4-0.5,0.9-1.6-0.1-3c-1.9-2.4-1.9-5.9-0.1-8.1c1.8-2.1,4.8-2.2,8-0.4
					c3.5,1.9,4.3,1.2,6.1-0.3c1.1-1,2.5-2.2,4.9-3c4.3-1.4,11.7-1.6,12.9-1.6c2.1-1.3,2.4-2.1,2.3-2.5c-0.1-0.8-1.3-1.3-1.8-1.5
					c-0.2-0.1-0.4-0.3-0.4-0.5c0-0.2,0-0.5,0.2-0.6c1.2-0.9,4.3-3.9,3.5-5.7c-1-2.2-0.9-5.2-0.7-8.5c0-0.9,0.1-1.8,0.1-2.7
					c0.1-3.7-4.1-7.2-5.9-7.6c-1.1-0.3-1.3-0.7-1.4-1.5c0-0.5-0.1-1.1-1.2-2.2c-2-2-4.3-0.4-4.4-0.4c-0.2,0.2-0.5,0.2-0.8,0
					c-0.2-0.2-0.3-0.5-0.2-0.7c0.6-1.1,0.2-1.6,0.1-1.8c-1-1.3-2.8-1.5-4.8-1.7c-1.9-0.2-3.8-0.4-4.9-1.7c-1.4-1.7-4.9-0.6-6.1-0.1
					c-0.5,0.3-7.6,4.6-15.5,11.1C53,51.6,43.1,61.1,38.9,71.3c-3,7.3-5.1,13.2-6,17.4c-1,4.8-0.4,6.1-0.1,6.4
					c0.1,0.1,0.4,0.4,1.2,0.1c1-0.4,1.9-0.9,2.8-1.4C38.3,93,39.7,92.2,41.1,92.2z"/>
			</g>
		</g>
		<g>
			<path class="st3" d="M80,74.2c3.5-0.6,7-1.2,10.6-1.7c1.8-0.2,3.5-0.4,5.3-0.6c1.8-0.2,3.6-0.3,5.4-0.3c0.3,0,0.5,0.2,0.5,0.5
				c0,0.3-0.2,0.5-0.5,0.5c0,0,0,0,0,0h0c-1.8-0.1-3.5,0-5.3,0c-1.8,0.1-3.6,0.2-5.3,0.3C87.1,73.3,83.6,73.7,80,74.2z"/>
		</g>
	</g>
	<g class="st2">
		<g>
			<path class="st3" d="M91.4,36.7C91.4,36.7,91.4,36.7,91.4,36.7C91.4,36.7,91.4,36.7,91.4,36.7C91.4,36.7,91.4,36.7,91.4,36.7z"/>
		</g>
		<g>
			<path class="st3" d="M105.2,48.9c-0.1,4.2-0.7,8.3,0.5,10.9c0.1,0.1,0.1,0.3,0.1,0.4c-0.2-2.4,0.1-5.2,0.2-8.2
				C106,51,105.7,49.9,105.2,48.9C105.2,48.9,105.2,48.9,105.2,48.9z"/>
		</g>
		<g>
			<path class="st3" d="M105.9,60.7c0,2.5-3.9,5.5-3.9,5.5s2.1,0.7,2.2,2c1.4-1.3,3.1-3.5,2.3-5.2C106.2,62.4,106,61.6,105.9,60.7z"
				/>
		</g>
	</g>
	<g>
		<g>
			<ellipse transform="matrix(0.8397 -0.543 0.543 0.8397 -12.3201 50.6265)" class="st7" cx="79.6" cy="46.2" rx="8.9" ry="7.1"/>
		</g>
		<g class="st5">
			<path class="st6" d="M80.9,53.2c-4.4,1.1-8.2-1.1-8.6-4.9c-0.4-3.9,2.9-7.9,7.3-9c3.2-0.8,6.2,0.1,7.6,2.2
				c-1.5-2.5-4.7-3.7-8.3-2.7c-4.7,1.2-8.1,5.5-7.7,9.6c0.4,4.1,4.5,6.4,9.1,5.2c1.2-0.3,2.4-0.9,3.4-1.5
				C82.8,52.6,81.9,53,80.9,53.2z"/>
		</g>
		<g>
			<path class="st8" d="M80.3,40.5l1,10.8c2.8-1.2,4.8-4,4.6-6.7C85.6,41.9,83.2,40.2,80.3,40.5z"/>
		</g>
		<g>
			<path class="st8" d="M77.8,41.1c-2.8,1.3-4.7,4-4.4,6.7c0.2,2.6,2.6,4.3,5.4,4.1L77.8,41.1z"/>
		</g>
		<g>
			<path class="st8" d="M77.8,41.1c-2.8,1.3-4.7,4-4.4,6.7c0.2,2.6,2.6,4.3,5.4,4.1L77.8,41.1z"/>
		</g>
		<g>
			<path class="st7" d="M78.1,44.8c-0.9,0.4-1.5,1.3-1.5,2.2c0.1,0.9,0.8,1.4,1.8,1.3L78.1,44.8z"/>
		</g>
		<g>
			<path class="st7" d="M80.6,44.1c0.9-0.1,1.7,0.5,1.8,1.3c0.1,0.9-0.5,1.8-1.5,2.2L80.6,44.1z"/>
		</g>
		<g>
			<path class="st3" d="M77.9,54.4c-1.7,0-3.3-0.5-4.5-1.3c-1.6-1.1-2.5-2.7-2.7-4.7c-0.4-4.3,3.2-8.9,8.1-10.1
				c2.6-0.7,5.2-0.3,7.1,1c1.6,1.1,2.5,2.7,2.7,4.7c0.4,4.3-3.2,8.9-8.1,10.1C79.6,54.3,78.7,54.4,77.9,54.4z M81.3,39
				c-0.7,0-1.5,0.1-2.3,0.3c-4.4,1.1-7.7,5.2-7.3,9c0.2,1.6,0.9,3,2.2,3.9c1.6,1.1,3.9,1.5,6.2,0.9c4.4-1.1,7.7-5.2,7.3-9
				c-0.2-1.6-0.9-3-2.2-3.9C84.2,39.4,82.8,39,81.3,39z"/>
		</g>
		<g>
			<g>
				<path class="st9" d="M76.8,49.6c0.1,0.2,0.1,0.3,0.1,0.5c0,0.2,0.1,0.3,0.1,0.4c0,0.2-0.2,0.4-0.4,0.3s-0.4-0.2-0.3-0.4
					c0,0,0-0.1,0-0.1c0-0.1,0.1-0.3,0.2-0.4C76.6,49.8,76.7,49.7,76.8,49.6z"/>
			</g>
			<g>
				<path class="st9" d="M75.6,48.5c0,0.2-0.1,0.3-0.1,0.5c0,0.2-0.1,0.3-0.2,0.4c-0.1,0.2-0.3,0.2-0.5,0.1
					c-0.2-0.1-0.2-0.3-0.1-0.5c0,0,0-0.1,0.1-0.1c0.1-0.1,0.2-0.2,0.4-0.2C75.3,48.6,75.4,48.5,75.6,48.5z"/>
			</g>
			<g>
				<path class="st9" d="M75.3,46.7c-0.1,0.1-0.2,0.2-0.3,0.3c-0.1,0.1-0.2,0.2-0.3,0.2c-0.2,0.1-0.4,0-0.5-0.2
					c-0.1-0.2,0-0.4,0.2-0.5c0,0,0.1,0,0.1,0c0.1,0,0.3,0,0.4,0C75,46.6,75.1,46.7,75.3,46.7z"/>
			</g>
			<g>
				<path class="st9" d="M75.9,44.9c-0.1,0-0.3,0.1-0.4,0.1c-0.1,0-0.3,0-0.4,0c-0.2,0-0.3-0.2-0.3-0.5c0-0.2,0.2-0.3,0.5-0.3
					c0,0,0.1,0,0.1,0c0.1,0.1,0.2,0.2,0.3,0.3C75.8,44.7,75.9,44.8,75.9,44.9z"/>
			</g>
			<g>
				<path class="st9" d="M77.4,43.7c-0.1-0.1-0.3-0.1-0.4-0.2c-0.1-0.1-0.2-0.2-0.3-0.3c-0.1-0.2-0.1-0.4,0.1-0.5
					c0.2-0.1,0.4-0.1,0.5,0.1c0,0,0,0.1,0.1,0.1c0,0.1,0.1,0.3,0.1,0.4C77.4,43.4,77.4,43.6,77.4,43.7z"/>
			</g>
		</g>
		<g>
			<g>
				<path class="st9" d="M82.9,48c0.1,0.1,0.3,0.2,0.4,0.3c0.1,0.1,0.2,0.2,0.3,0.3c0.1,0.2,0.1,0.4-0.1,0.5
					c-0.2,0.1-0.4,0.1-0.5-0.1c0,0,0-0.1,0-0.1c0-0.1,0-0.3,0-0.4C82.8,48.3,82.9,48.1,82.9,48z"/>
			</g>
			<g>
				<path class="st9" d="M83.8,46.3c0.1,0,0.3,0,0.4,0c0.1,0,0.3,0,0.4,0c0.2,0.1,0.3,0.3,0.2,0.5c-0.1,0.2-0.3,0.3-0.5,0.2
					c0,0-0.1,0-0.1-0.1c-0.1-0.1-0.2-0.2-0.3-0.3C83.9,46.6,83.9,46.4,83.8,46.3z"/>
			</g>
			<g>
				<path class="st9" d="M83.8,44.5c0.1-0.1,0.2-0.2,0.3-0.3c0.1-0.1,0.2-0.2,0.3-0.2c0.2-0.1,0.4,0,0.5,0.2c0.1,0.2,0,0.4-0.2,0.5
					c0,0-0.1,0-0.1,0c-0.1,0-0.3,0-0.4-0.1C84.1,44.6,83.9,44.5,83.8,44.5z"/>
			</g>
			<g>
				<path class="st9" d="M82.8,43.1c0-0.2,0.1-0.3,0.1-0.5c0-0.1,0.1-0.3,0.2-0.4c0.1-0.2,0.4-0.2,0.5-0.1c0.2,0.1,0.2,0.4,0.1,0.5
					c0,0,0,0.1-0.1,0.1c-0.1,0.1-0.2,0.1-0.4,0.2C83.1,43,83,43,82.8,43.1z"/>
			</g>
			<g>
				<path class="st9" d="M81.3,42.6c-0.1-0.2-0.1-0.3-0.1-0.5c0-0.2,0-0.3,0-0.4c0-0.2,0.2-0.4,0.4-0.3c0.2,0,0.4,0.2,0.3,0.4
					c0,0,0,0.1,0,0.1c-0.1,0.1-0.1,0.3-0.2,0.4C81.5,42.4,81.4,42.5,81.3,42.6z"/>
			</g>
		</g>
		<g>
			<path class="st8" d="M81.3,51.8c-0.1,0-0.2,0-0.3-0.1c-0.1-0.1-0.2-0.2-0.3-0.4l-1-10.8c0-0.1,0-0.3,0.1-0.4s0.2-0.2,0.4-0.2
				c3.3-0.3,5.9,1.6,6.1,4.6c0.3,2.8-1.8,5.9-4.9,7.2C81.5,51.8,81.4,51.8,81.3,51.8z M80.9,41l0.9,9.5c2.3-1.3,3.8-3.7,3.6-5.9
				C85.2,42.4,83.3,41,80.9,41C80.9,41,80.9,41,80.9,41z"/>
		</g>
		<g>
			<path class="st8" d="M78.3,52.5c-3,0-5.3-1.9-5.5-4.6c-0.3-2.8,1.7-5.8,4.7-7.2c0.2-0.1,0.3-0.1,0.5,0c0.1,0.1,0.2,0.2,0.3,0.4
				l1,10.8c0,0.1,0,0.3-0.1,0.4c-0.1,0.1-0.2,0.2-0.4,0.2C78.6,52.4,78.5,52.5,78.3,52.5z M77.3,42c-2.2,1.3-3.7,3.6-3.5,5.8
				c0.2,2.2,2,3.6,4.3,3.6L77.3,42z"/>
		</g>
	</g>
	<g>
		<g>
			<ellipse transform="matrix(0.8397 -0.543 0.543 0.8397 -25.7771 43.5917)" class="st7" cx="61" cy="65.5" rx="8.4" ry="6.7"/>
		</g>
		<g class="st5">
			<path class="st6" d="M62.2,72.1c-4.1,1.1-7.7-1-8-4.6c-0.3-3.6,2.7-7.4,6.8-8.5c3-0.8,5.8,0.1,7.1,2.1c-1.4-2.3-4.4-3.4-7.8-2.6
				c-4.4,1.1-7.6,5.1-7.2,9c0.4,3.8,4.2,6,8.5,4.9c1.1-0.3,2.2-0.8,3.2-1.4C64,71.4,63.1,71.8,62.2,72.1z"/>
		</g>
		<g>
			<path class="st8" d="M61.6,60.1l0.9,10.1c2.7-1.2,4.5-3.8,4.3-6.3C66.6,61.4,64.4,59.9,61.6,60.1z"/>
		</g>
		<g>
			<path class="st8" d="M59.2,60.8c-2.6,1.2-4.4,3.8-4.1,6.2c0.2,2.5,2.4,4,5.1,3.8L59.2,60.8z"/>
		</g>
		<g>
			<path class="st8" d="M59.2,60.8c-2.6,1.2-4.4,3.8-4.1,6.2c0.2,2.5,2.4,4,5.1,3.8L59.2,60.8z"/>
		</g>
		<g>
			<path class="st7" d="M59.6,64.1c-0.8,0.4-1.4,1.2-1.4,2c0.1,0.8,0.8,1.3,1.7,1.3L59.6,64.1z"/>
		</g>
		<g>
			<path class="st7" d="M61.9,63.5c0.9-0.1,1.6,0.4,1.7,1.3c0.1,0.8-0.5,1.7-1.4,2L61.9,63.5z"/>
		</g>
		<g>
			<path class="st3" d="M59.4,73.2c-1.6,0-3.1-0.4-4.3-1.3c-1.5-1-2.4-2.6-2.5-4.4c-0.4-4.1,3-8.3,7.6-9.5c2.5-0.6,4.9-0.3,6.7,1
				c1.5,1,2.4,2.6,2.5,4.4l0,0c0.4,4.1-3,8.3-7.6,9.5C60.9,73.1,60.1,73.2,59.4,73.2z M62.6,58.8c-0.7,0-1.4,0.1-2.1,0.3
				c-4.1,1.1-7.2,4.8-6.8,8.4c0.1,1.5,0.9,2.8,2.1,3.6c1.5,1.1,3.6,1.4,5.8,0.8c4.1-1.1,7.2-4.8,6.8-8.4l0,0
				c-0.1-1.5-0.9-2.8-2.1-3.6C65.2,59.2,63.9,58.8,62.6,58.8z"/>
		</g>
		<g>
			<g>
				<path class="st9" d="M59.1,68.8c0.1,0.1,0.1,0.2,0.2,0.4c0.1,0.1,0.1,0.2,0.1,0.4c0,0.2-0.1,0.3-0.2,0.4c-0.2,0-0.3-0.1-0.4-0.2
					c0,0,0-0.1,0-0.1c0-0.1,0-0.3,0.1-0.4C59,69,59,68.9,59.1,68.8z"/>
			</g>
			<g>
				<path class="st9" d="M57.7,68.2c0,0.2,0,0.3,0,0.4c0,0.1,0,0.3-0.1,0.4c-0.1,0.2-0.2,0.2-0.4,0.2S57,69,57,68.8c0,0,0,0,0-0.1
					c0.1-0.1,0.2-0.2,0.3-0.3C57.4,68.4,57.6,68.3,57.7,68.2z"/>
			</g>
			<g>
				<path class="st9" d="M56.9,66.8c-0.1,0.1-0.1,0.3-0.2,0.4s-0.2,0.2-0.3,0.3c-0.1,0.1-0.3,0.1-0.4,0c-0.1-0.1-0.1-0.3,0-0.4
					c0,0,0,0,0.1,0c0.1-0.1,0.2-0.1,0.4-0.1C56.7,66.9,56.8,66.8,56.9,66.8z"/>
			</g>
			<g>
				<path class="st9" d="M57.1,65.1c-0.1,0.1-0.2,0.1-0.3,0.2c-0.1,0.1-0.2,0.1-0.3,0.1c-0.2,0-0.3-0.1-0.3-0.3
					c0-0.2,0.1-0.3,0.3-0.3c0,0,0.1,0,0.1,0c0.1,0,0.2,0.1,0.3,0.1C56.9,65,57,65,57.1,65.1z"/>
			</g>
			<g>
				<path class="st9" d="M58.1,63.6c-0.1,0-0.3,0-0.4-0.1c-0.1,0-0.2-0.1-0.3-0.1c-0.1-0.1-0.2-0.3-0.1-0.4s0.3-0.2,0.4-0.1
					c0,0,0,0,0.1,0.1c0.1,0.1,0.1,0.2,0.2,0.3C58.1,63.4,58.1,63.5,58.1,63.6z"/>
			</g>
		</g>
		<g>
			<g>
				<path class="st9" d="M64,67.1c0.1,0.1,0.2,0.2,0.3,0.2c0.1,0.1,0.2,0.2,0.3,0.3c0.1,0.1,0,0.3-0.1,0.4s-0.3,0-0.4-0.1
					c0,0,0,0,0-0.1c0-0.1,0-0.2,0-0.4C64,67.4,64,67.3,64,67.1z"/>
			</g>
			<g>
				<path class="st9" d="M64.9,65.6c0.1,0,0.3,0,0.4,0c0.1,0,0.2,0,0.4,0c0.2,0.1,0.2,0.2,0.2,0.4c-0.1,0.2-0.2,0.2-0.4,0.2
					c0,0-0.1,0-0.1,0c-0.1-0.1-0.2-0.2-0.2-0.3C65,65.8,64.9,65.7,64.9,65.6z"/>
			</g>
			<g>
				<path class="st9" d="M64.9,63.9c0.1-0.1,0.2-0.2,0.3-0.3c0.1-0.1,0.2-0.1,0.3-0.2c0.2-0.1,0.3,0,0.4,0.2c0.1,0.2,0,0.3-0.2,0.4
					c0,0-0.1,0-0.1,0c-0.1,0-0.2,0-0.4,0C65.1,63.9,65,63.9,64.9,63.9z"/>
			</g>
			<g>
				<path class="st9" d="M64,62.6c0-0.1,0.1-0.3,0.1-0.4c0-0.1,0.1-0.3,0.2-0.4c0.1-0.1,0.3-0.2,0.4-0.1c0.1,0.1,0.2,0.3,0.1,0.4
					c0,0,0,0-0.1,0.1c-0.1,0.1-0.2,0.1-0.4,0.2C64.2,62.5,64.1,62.5,64,62.6z"/>
			</g>
			<g>
				<path class="st9" d="M62.5,62.1c0-0.1-0.1-0.3-0.1-0.4c0-0.1,0-0.3,0-0.4c0-0.2,0.2-0.3,0.3-0.3c0.2,0,0.3,0.2,0.3,0.3
					c0,0,0,0,0,0.1c0,0.1-0.1,0.2-0.2,0.4C62.7,61.9,62.6,62,62.5,62.1z"/>
			</g>
		</g>
		<g>
			<path class="st8" d="M62.6,70.8c-0.1,0-0.2,0-0.3-0.1c-0.1-0.1-0.2-0.2-0.3-0.4l-0.9-10.1c0-0.1,0-0.3,0.1-0.4
				c0.1-0.1,0.2-0.2,0.4-0.2c3.1-0.3,5.5,1.5,5.8,4.3c0.3,2.7-1.7,5.6-4.6,6.8C62.7,70.8,62.6,70.8,62.6,70.8z M62.2,60.6l0.8,8.8
				c2.1-1.2,3.5-3.4,3.3-5.4C66.1,62,64.4,60.6,62.2,60.6z"/>
		</g>
		<g>
			<path class="st8" d="M59.8,71.4c-2.8,0-5-1.8-5.2-4.3c-0.3-2.7,1.6-5.5,4.5-6.8c0.2-0.1,0.3-0.1,0.5,0s0.2,0.2,0.3,0.4l0.9,10.1
				c0,0.1,0,0.3-0.1,0.4s-0.2,0.2-0.4,0.2C60.1,71.4,59.9,71.4,59.8,71.4z M58.8,61.6c-2,1.2-3.3,3.4-3.1,5.3c0.2,2,1.8,3.3,4,3.4
				L58.8,61.6z"/>
		</g>
	</g>
	<g>
		<g>
			<g>
				<path class="st10" d="M49.9,64.4c-5.7,0.2-5.8,3.1-4,7.6C49.4,70.5,51.6,68,49.9,64.4z"/>
			</g>
			<g>
				<path class="st11" d="M45.8,72.9c-0.1,0-0.1,0-0.2,0c-0.1-0.1-0.2-0.2-0.3-0.3c-0.9-2.5-1.5-5.1-0.3-6.9
					c0.8-1.2,2.5-1.8,4.9-1.9c0.2,0,0.4,0.1,0.5,0.3c0.7,1.4,0.8,2.8,0.4,4.2c-0.6,1.8-2.3,3.4-4.8,4.6C46,72.9,45.9,72.9,45.8,72.9
					z M49.6,64.9c-1.9,0.1-3.1,0.5-3.7,1.4c-0.9,1.2-0.4,3.3,0.2,5.3c1.8-1,3.2-2.3,3.6-3.7C50.1,67,50.1,66,49.6,64.9z"/>
			</g>
			<g>
				<path class="st12" d="M50.1,64.9c-0.4,0.2-0.7,0.4-1.1,0.7c-0.3,0.3-0.7,0.6-1,1c-0.6,0.7-1.1,1.6-1.5,2.5c0-0.5,0.1-1,0.2-1.5
					c0.1-0.5,0.3-1,0.6-1.5c0.2-0.5,0.5-0.9,0.9-1.3c0.4-0.4,0.9-0.7,1.5-0.9c0.3-0.1,0.6,0.1,0.7,0.4
					C50.5,64.5,50.4,64.8,50.1,64.9L50.1,64.9z"/>
			</g>
		</g>
		<g>
			<g>
				<path class="st10" d="M60.2,48.9c5-2.7,6.6-0.2,7.2,4.5C63.8,53.9,60.6,52.8,60.2,48.9z"/>
			</g>
			<g>
				<path class="st11" d="M66.6,54.3c-2.1,0-3.9-0.6-5.2-1.6c-1.1-0.9-1.7-2.2-1.8-3.8c0-0.2,0.1-0.4,0.3-0.5
					c2.2-1.2,3.9-1.5,5.2-0.9c1.9,0.9,2.7,3.4,3.2,6.1c0,0.1,0,0.3-0.1,0.4c-0.1,0.1-0.2,0.2-0.4,0.2C67.4,54.3,67,54.3,66.6,54.3z
					 M60.8,49.2c0.1,1.1,0.6,2,1.4,2.7c1.1,1,2.9,1.4,5,1.3c-0.4-2.1-1.1-4.1-2.5-4.7C63.8,48.1,62.5,48.3,60.8,49.2z"/>
			</g>
			<g>
				<path class="st12" d="M60.1,48.3c0.6-0.2,1.2-0.1,1.7,0c0.5,0.1,1,0.4,1.5,0.7c0.4,0.3,0.8,0.6,1.2,1c0.4,0.4,0.7,0.8,0.9,1.2
					c-0.8-0.6-1.7-1.1-2.5-1.4c-0.4-0.2-0.9-0.3-1.3-0.3c-0.4-0.1-0.8-0.1-1.3,0l0,0c-0.3,0-0.6-0.2-0.6-0.5
					C59.7,48.6,59.9,48.4,60.1,48.3z"/>
			</g>
		</g>
		<g>
			<g>
				<path class="st10" d="M82.6,66.7c-3.9-3.6-5.9-1.8-7.6,2.3C78.1,70.4,81.3,70.2,82.6,66.7z"/>
			</g>
			<g>
				<path class="st11" d="M77.9,70.5c-1.1,0-2.3-0.2-3.5-0.7c-0.1,0-0.2-0.2-0.3-0.3c-0.1-0.1,0-0.3,0-0.4c1.1-2.2,2.4-4.4,4.4-4.7
					c1.4-0.2,2.8,0.4,4.5,2c0.1,0.1,0.2,0.3,0.1,0.5c-0.5,1.4-1.3,2.4-2.5,3C79.8,70.3,78.9,70.5,77.9,70.5z M75.3,69
					c1.9,0.6,3.6,0.6,4.8,0c0.9-0.4,1.5-1.1,1.9-2.1c-1.3-1.2-2.4-1.7-3.4-1.5C77.3,65.6,76.2,67.3,75.3,69z"/>
			</g>
			<g>
				<path class="st12" d="M82.4,67.2c-0.4-0.1-0.7-0.2-1.1-0.3c-0.4,0-0.8,0-1.3,0c-0.9,0.1-1.8,0.3-2.6,0.6
					c0.3-0.3,0.7-0.6,1.1-0.9c0.4-0.2,0.9-0.4,1.3-0.6c0.5-0.1,1-0.2,1.5-0.2c0.5,0,1.1,0.1,1.5,0.4c0.2,0.1,0.3,0.5,0.2,0.7
					C82.9,67.2,82.6,67.3,82.4,67.2L82.4,67.2z"/>
			</g>
		</g>
		<g>
			<g>
				<path class="st10" d="M38.1,75.9c0.3,0,0.6,0,0.9,0.1c0.3,0,0.6,0.1,0.9,0.1c0.3,0.1,0.6,0.1,0.9,0.2c0.3,0.1,0.6,0.2,1,0.4l0,0
					c0.4,0.2,0.5,0.7,0.2,1s-0.7,0.5-1,0.2c0,0-0.1-0.1-0.1-0.1c-0.1-0.1-0.4-0.2-0.6-0.3c-0.2-0.1-0.5-0.2-0.7-0.3
					c-0.3-0.1-0.5-0.2-0.8-0.2c-0.3-0.1-0.5-0.1-0.8-0.2l0,0c-0.3-0.1-0.4-0.3-0.4-0.6C37.7,76,37.9,75.8,38.1,75.9z"/>
			</g>
			<g class="st2">
				<path class="st3" d="M38.1,75.9c0.3,0,0.6,0,0.9,0.1c0.3,0,0.6,0.1,0.9,0.1c0.3,0.1,0.6,0.1,0.9,0.2c0.3,0.1,0.6,0.2,1,0.4l0,0
					c0.4,0.2,0.5,0.7,0.2,1s-0.7,0.5-1,0.2c0,0-0.1-0.1-0.1-0.1c-0.1-0.1-0.4-0.2-0.6-0.3c-0.2-0.1-0.5-0.2-0.7-0.3
					c-0.3-0.1-0.5-0.2-0.8-0.2c-0.3-0.1-0.5-0.1-0.8-0.2l0,0c-0.3-0.1-0.4-0.3-0.4-0.6C37.7,76,37.9,75.8,38.1,75.9z"/>
			</g>
			<g>
				<path class="st11" d="M41.5,78.5c-0.2,0-0.4-0.1-0.6-0.2c-0.1,0-0.1-0.1-0.2-0.1c0,0-0.1-0.1-0.5-0.3c-0.2-0.1-0.4-0.2-0.7-0.3
					c-0.2-0.1-0.5-0.2-0.8-0.2c-0.3-0.1-0.5-0.1-0.8-0.2c-0.3-0.1-0.5-0.2-0.6-0.4c-0.1-0.2-0.2-0.5-0.1-0.7c0.1-0.4,0.5-0.8,1-0.7
					l0,0c0.3,0,0.6,0,0.9,0.1c0.3,0,0.6,0.1,0.9,0.1c0.4,0.1,0.7,0.1,1,0.2c0.4,0.1,0.7,0.2,1.1,0.5l0,0c0.6,0.3,0.7,1.1,0.4,1.6
					C42.2,78.3,41.9,78.5,41.5,78.5z M38.1,76.3C38.1,76.3,38.1,76.3,38.1,76.3C38.1,76.4,38.1,76.4,38.1,76.3c0,0.1,0,0.1,0,0.1
					c0.3,0.1,0.6,0.1,0.8,0.2c0.3,0.1,0.6,0.2,0.8,0.2c0.3,0.1,0.6,0.2,0.8,0.3c0.3,0.1,0.5,0.3,0.7,0.4c0,0,0,0,0,0
					c0.1,0.1,0.3,0,0.4-0.1c0.1-0.1,0-0.3-0.1-0.4l0,0c-0.3-0.2-0.6-0.3-0.9-0.4c-0.3-0.1-0.5-0.1-0.9-0.2c-0.3,0-0.6-0.1-0.9-0.1
					C38.7,76.3,38.4,76.3,38.1,76.3C38.1,76.3,38.1,76.3,38.1,76.3z"/>
			</g>
			<g>
				<g>
					<path class="st10" d="M38.8,76.4c-1.7-6.3-9-1.2-9-1.2S35.5,82.1,38.8,76.4z"/>
				</g>
				<g class="st5">
					<path class="st6" d="M38.8,76.5C38.8,76.5,38.8,76.5,38.8,76.5c-1.7-6.4-9-1.2-9-1.2s0.2,0.2,0.5,0.6C31.7,75,37,72,38.8,76.5z
						"/>
				</g>
				<g>
					<path class="st11" d="M35.4,79.1c-3.2,0-6.3-3.4-6.4-3.6c-0.1-0.1-0.1-0.2-0.1-0.3c0-0.1,0.1-0.2,0.2-0.3
						c0.2-0.1,4.5-2.9,7.6-1.8c1.3,0.5,2.2,1.6,2.6,3.2c0,0.1,0,0.2,0,0.3c-0.9,1.5-2,2.3-3.3,2.4C35.7,79.1,35.6,79.1,35.4,79.1z
						 M30,75.4c0.9,0.9,3.5,3.1,5.8,2.9c1-0.1,1.9-0.7,2.6-1.9c-0.4-1.3-1.1-2.1-2-2.4C34.2,73.1,31.1,74.7,30,75.4z"/>
				</g>
				<g>
					<g>
						<line class="st13" x1="38.8" y1="76.4" x2="33.9" y2="75.8"/>
					</g>
					<g>
						<path class="st12" d="M38.8,76.9c-0.4,0-0.8-0.1-1.2-0.1c-0.4-0.1-0.8-0.2-1.2-0.3c-0.8-0.2-1.6-0.4-2.4-0.7
							c0.8-0.1,1.7-0.1,2.5,0c0.4,0,0.8,0,1.2,0.1c0.4,0,0.8,0.1,1.2,0.2c0.2,0,0.4,0.3,0.3,0.5C39.2,76.7,39,76.9,38.8,76.9z"/>
					</g>
				</g>
			</g>
			<g>
				<path class="st11" d="M35.3,79.1c0.6-0.5,1.1-1,1.7-1.4c0.6-0.5,1.1-0.9,1.7-1.4c0.2-0.1,0.5-0.1,0.6,0.1
					c0.1,0.2,0.1,0.5-0.1,0.6c0,0,0,0-0.1,0l0,0c-0.6,0.3-1.3,0.7-1.9,1C36.5,78.4,35.9,78.8,35.3,79.1z"/>
			</g>
			<g>
				<g>
					<path class="st10" d="M38.8,76.5c0,0-3.7,0.2-4.5,6.6C34.3,83.2,41.9,80.7,38.8,76.5z"/>
				</g>
				<g class="st5">
					<path class="st6" d="M35.4,82.6c0.7-5.2,3.7-5.5,3.8-5.5c-0.1-0.2-0.2-0.3-0.3-0.5c0,0-3.7,0.2-4.5,6.6c0,0,1.6-0.5,3.1-1.5
						C36.3,82.2,35.4,82.6,35.4,82.6z"/>
				</g>
				<g>
					<path class="st11" d="M34.3,83.6c-0.1,0-0.2,0-0.3-0.1c-0.1-0.1-0.2-0.2-0.1-0.4c0.9-6.7,4.8-7,4.9-7c0.1,0,0.3,0.1,0.4,0.2
						c0.8,1.1,1,2.1,0.6,3.2c-0.9,2.7-5.2,4.1-5.4,4.1C34.4,83.6,34.3,83.6,34.3,83.6z M38.6,77c-0.7,0.2-3,1-3.8,5.5
						c1.2-0.5,3.6-1.6,4.2-3.3C39.2,78.5,39.1,77.8,38.6,77z"/>
				</g>
				<g>
					<path class="st11" d="M36.8,79.3c0.3-0.5,0.6-1,0.8-1.5c0.3-0.5,0.6-1,0.9-1.5c0.1-0.2,0.4-0.3,0.6-0.1
						c0.2,0.1,0.3,0.4,0.1,0.6c0,0,0,0.1-0.1,0.1c-0.4,0.4-0.8,0.8-1.2,1.2C37.5,78.4,37.2,78.9,36.8,79.3z"/>
				</g>
			</g>
			<g>
				<g>
					<path class="st10" d="M38.8,76.5c0,0-3.4-1.4-2.3-7.7C36.5,68.8,43,73.4,38.8,76.5z"/>
				</g>
				<g class="st5">
					<path class="st6" d="M37.5,69.6c-0.6-0.5-1-0.8-1-0.8c-1.2,6.3,2.3,7.7,2.3,7.7c0.1,0,0.1-0.1,0.1-0.1
						C38.3,75.9,36.5,74.1,37.5,69.6z"/>
				</g>
				<g>
					<path class="st11" d="M38.8,76.9c-0.1,0-0.1,0-0.2,0c-0.2-0.1-3.8-1.6-2.5-8.2c0-0.1,0.1-0.3,0.3-0.3c0.1-0.1,0.3,0,0.4,0
						c0.2,0.1,3.8,2.8,3.9,5.6c0,1.1-0.5,2-1.6,2.8C39,76.9,38.9,76.9,38.8,76.9z M36.8,69.6c-0.6,4.5,1.3,6,1.9,6.4
						c0.7-0.6,1-1.2,1-2C39.8,72.3,37.8,70.4,36.8,69.6z"/>
				</g>
				<g>
					<path class="st11" d="M37.7,73.2c0.2,0.5,0.5,1.1,0.7,1.6c0.3,0.5,0.5,1,0.8,1.5c0.1,0.2,0,0.5-0.2,0.6c-0.2,0.1-0.5,0-0.6-0.2
						c0,0,0-0.1,0-0.1c-0.2-0.6-0.3-1.2-0.4-1.7C37.9,74.4,37.8,73.8,37.7,73.2z"/>
				</g>
			</g>
		</g>
	</g>
	<g>
		<path class="st3" d="M32.3,93.8C32.3,93.9,32.3,93.9,32.3,93.8c0.1,0.1,0.1,0.1,0.1,0.1c0.1,0,0.3,0,0.4,0c0.3,0,0.7-0.2,1.1-0.3
			c0.7-0.3,1.4-0.7,2.1-1.1c1.4-0.9,2.7-1.8,4-2.8c1.3-1,2.6-2,3.8-3.1c0.3-0.3,0.6-0.5,0.9-0.8c0.3-0.3,0.6-0.6,0.9-0.8
			c0.2-0.1,0.3-0.3,0.5-0.4l0.5-0.4l0.2-0.2l0.3-0.2l0.5-0.4c2.7-1.9,5.8-3.4,8.9-4.5c1.6-0.6,3.2-1,4.8-1.4c1.6-0.4,3.2-0.7,4.9-1
			c-3.2,0.7-6.4,1.6-9.5,2.8c-1.5,0.6-3,1.3-4.5,2c-1.5,0.8-2.8,1.6-4.2,2.6l-0.5,0.4l-0.2,0.2l-0.2,0.2L46.6,85
			c-0.2,0.1-0.3,0.3-0.4,0.4c-0.3,0.3-0.6,0.6-0.9,0.8c-0.3,0.3-0.6,0.6-0.9,0.8c-1.2,1.1-2.5,2.2-3.8,3.3c-1.3,1-2.6,2.1-4,3
			c-0.7,0.5-1.4,0.9-2.2,1.2c-0.4,0.2-0.8,0.3-1.3,0.4c-0.2,0-0.5,0.1-0.8,0c-0.2,0-0.3-0.1-0.5-0.2c-0.2-0.1-0.3-0.2-0.4-0.4
			c-0.1-0.3-0.1-0.6,0.2-0.7C31.8,93.5,32.1,93.6,32.3,93.8L32.3,93.8z"/>
	</g>
	<g>
		<g class="st2">
			<ellipse transform="matrix(0.968 -0.2508 0.2508 0.968 -14.1561 25.9195)" class="st3" cx="94.6" cy="68.5" rx="0.9" ry="0.6"/>
		</g>
		<g class="st2">
			<ellipse transform="matrix(0.968 -0.2508 0.2508 0.968 -13.7322 24.8574)" class="st3" cx="90.7" cy="66.3" rx="1.4" ry="1"/>
		</g>
		<g class="st2">
			
				<ellipse transform="matrix(0.9355 -0.3532 0.3532 0.9355 -16.0453 32.7599)" class="st3" cx="81.7" cy="60.3" rx="1.1" ry="0.9"/>
		</g>
		<g class="st2">
			
				<ellipse transform="matrix(0.9355 -0.3532 0.3532 0.9355 -11.7004 35.7316)" class="st3" cx="92.1" cy="49.9" rx="0.8" ry="0.6"/>
		</g>
		<g class="st2">
			
				<ellipse transform="matrix(0.9355 -0.3532 0.3532 0.9355 -14.3729 36.7148)" class="st3" cx="93.4" cy="57.7" rx="0.9" ry="0.7"/>
		</g>
		<g class="st2">
			<path class="st3" d="M85.3,55c0.1,0.3-0.1,0.6-0.5,0.8c-0.4,0.1-0.7,0-0.9-0.3c-0.1-0.3,0.1-0.6,0.5-0.8
				C84.8,54.6,85.2,54.8,85.3,55z"/>
		</g>
		<g class="st2">
			<ellipse transform="matrix(0.8111 -0.5849 0.5849 0.8111 -24.2998 54.7543)" class="st3" cx="72.6" cy="65" rx="0.8" ry="0.6"/>
		</g>
		<g class="st2">
			
				<ellipse transform="matrix(0.8111 -0.5849 0.5849 0.8111 -19.6294 54.3653)" class="st3" cx="74.4" cy="57.6" rx="0.8" ry="0.6"/>
		</g>
		<g class="st2">
			<ellipse transform="matrix(0.8111 -0.5849 0.5849 0.8111 -35.5568 44.2767)" class="st3" cx="50.8" cy="77.2" rx="1" ry="0.8"/>
		</g>
		<g class="st2">
			
				<ellipse transform="matrix(0.8111 -0.5849 0.5849 0.8111 -32.2839 43.5417)" class="st3" cx="51.3" cy="71.8" rx="0.9" ry="0.7"/>
		</g>
		<g class="st2">
			<ellipse transform="matrix(0.8111 -0.5849 0.5849 0.8111 -40.069 40.7158)" class="st3" cx="43" cy="82.4" rx="0.6" ry="0.4"/>
		</g>
		<g class="st2">
			<ellipse transform="matrix(0.8111 -0.5849 0.5849 0.8111 -26.4385 41.777)" class="st3" cx="51.5" cy="61.8" rx="0.9" ry="0.7"/>
		</g>
		<g class="st2">
			<ellipse transform="matrix(0.8111 -0.5849 0.5849 0.8111 -21.8348 45.1692)" class="st3" cx="59" cy="56.4" rx="1.1" ry="0.9"/>
		</g>
	</g>
	<g>
		<g>
			<g>
				<g>
					<path class="st14" d="M102.1,70.1c-1.1,6.2,13,7.2,13,7.2s8.9-20.9-5.5-38.7S75.7,23.5,73.6,27.7s2.1,6.1,2.1,6.1
						S108,36.7,102.1,70.1z"/>
				</g>
				<g class="st5">
					<path class="st6" d="M109.6,38.6C95.3,20.8,75.7,23.5,73.6,27.7c-1.9,3.7,1.2,5.7,2,6.1c-0.9-0.9-1.6-2.4-0.5-4.6
						c0.5-0.9,1.8-1.8,3.8-2.3c-0.5,0.3-0.7,0.6-0.7,0.9c0.1,0.6,1.4,0.9,3,0.6c1.5-0.3,2.7-1,2.6-1.6c0-0.2-0.2-0.4-0.5-0.5
						c7-0.2,17.1,2.8,25.4,13c13.4,16.5,5.1,35.9,5.1,35.9s-9.3-0.7-11.6-4.3c0.3,5.4,13,6.3,13,6.3S124,56.4,109.6,38.6z"/>
				</g>
				<g class="st2">
					<path class="st3" d="M115.1,77.2c0,0,1.2-2.8,2-7.3c-1.5-1.4-3.7-2.6-6.1-3.5c-2.1-0.8-3.4-2.9-3.2-5.1
						c0.5-5.7,0.5-13-4.5-19.2c-11.2-13.9-26.5-12-28.5-8.8c0.4,0.3,0.8,0.5,0.8,0.5s32.3,2.8,26.4,36.3
						C101,76.2,115.1,77.2,115.1,77.2z"/>
				</g>
				<g>
					<path class="st3" d="M115.1,77.9C115.1,77.9,115.1,77.9,115.1,77.9c-0.4,0-9.8-0.7-12.7-4.5c-0.8-1-1.1-2.1-0.9-3.4
						c1.7-9.9,0.2-18.1-4.5-24.2c-7.6-10-21.3-11.3-21.4-11.3c-0.1,0-0.1,0-0.2-0.1c-0.1,0-2.1-1-2.8-3c-0.4-1.2-0.3-2.6,0.4-4
						c0.8-1.6,3.7-2.9,7.4-3.3c8.1-0.9,20.2,2.4,29.7,14.1c7.5,9.3,8.7,19.5,8.3,26.4c-0.4,7.5-2.6,12.6-2.7,12.9
						C115.6,77.7,115.3,77.9,115.1,77.9z M102.1,70.1l0.6,0.1c-0.2,0.9,0,1.7,0.6,2.4c2.3,2.9,9.5,3.8,11.4,4
						c0.5-1.4,2.1-6,2.4-12.1c0.4-6.7-0.7-16.5-8-25.5C100,27.6,88.4,24.5,80.6,25.3c-3.7,0.4-5.9,1.6-6.4,2.6
						c-0.6,1.1-0.7,2.1-0.4,3c0.5,1.3,1.7,2.1,2.1,2.3c0.7,0.1,3.9,0.5,8,1.9c4.2,1.5,10,4.4,14.2,9.8c4.9,6.4,6.5,14.9,4.7,25.2
						L102.1,70.1z"/>
				</g>
			</g>
			<g>
				<path class="st1" d="M115.1,77.2c0,0-2.8,3.1-8.2,1.4c-5.4-1.7-6.7-5.4-4.8-8.6C104,66.9,119,70.9,115.1,77.2z"/>
			</g>
			<g class="st2">
				<path class="st3" d="M115.1,77.2c0,0-2.8,3.1-8.2,1.4c-5.4-1.7-6.7-5.4-4.8-8.6C104,66.9,119,70.9,115.1,77.2z"/>
			</g>
			<g>
				<path class="st3" d="M110,79.8c-1,0-2.1-0.2-3.3-0.5c-3.8-1.2-5.2-3.1-5.7-4.5c-0.6-1.6-0.4-3.3,0.6-4.9c0.7-1.2,2.6-1.4,4-1.4
					c3.7,0.1,8.7,2,10.2,4.8c0.7,1.4,0.7,2.9-0.2,4.3c0,0,0,0.1-0.1,0.1C115.5,77.8,113.6,79.8,110,79.8z M105.3,69.6
					c-1.4,0-2.4,0.3-2.7,0.8c-0.8,1.3-1,2.6-0.5,3.9c0.6,1.7,2.4,3,4.9,3.8c4.7,1.5,7.2-0.9,7.5-1.2c0.6-1.1,0.7-2.1,0.2-3.1
					c-1.3-2.4-5.8-4.1-9.2-4.2C105.5,69.6,105.4,69.6,105.3,69.6z M115.1,77.2L115.1,77.2L115.1,77.2z"/>
			</g>
		</g>
		<g>
			<g>
				<path class="st15" d="M83.3,31.1c-0.1-0.3-0.2-0.6-0.2-0.9c0-0.3,0.1-0.6,0.2-0.9c0.1-0.3,0.3-0.6,0.5-0.8
					c0.2-0.2,0.5-0.4,0.8-0.4c-0.1,0.3-0.3,0.5-0.4,0.7c-0.1,0.2-0.2,0.4-0.3,0.7c-0.1,0.2-0.2,0.5-0.3,0.7
					C83.5,30.6,83.4,30.9,83.3,31.1z"/>
			</g>
			<g>
				<path class="st15" d="M84.9,32.2c-0.1-0.4-0.1-0.8,0-1.2c0.1-0.4,0.2-0.8,0.4-1.2c0.2-0.4,0.5-0.7,0.8-1
					c0.1-0.1,0.2-0.1,0.3-0.2c0.1-0.1,0.2-0.1,0.3-0.1c0.1,0,0.2-0.1,0.3-0.1c0.1,0,0.2-0.1,0.3-0.1c-0.3,0.3-0.6,0.6-0.8,0.9
					c-0.2,0.3-0.4,0.6-0.6,0.9c-0.2,0.3-0.3,0.7-0.5,1C85.2,31.5,85.1,31.8,84.9,32.2z"/>
			</g>
		</g>
		<g>
			<g>
				<path class="st15" d="M107.9,58.4c0.3-0.3,0.7-0.5,1.2-0.6c0.4-0.1,0.9-0.2,1.3-0.2c0.4,0,0.9,0.1,1.3,0.3
					c0.1,0,0.2,0.1,0.3,0.1c0.1,0.1,0.2,0.1,0.3,0.2c0.1,0.1,0.2,0.1,0.3,0.2c0.1,0.1,0.2,0.2,0.2,0.2c-0.4-0.1-0.8-0.3-1.2-0.3
					c-0.4-0.1-0.8-0.1-1.2-0.2c-0.4,0-0.8,0-1.2,0C108.8,58.3,108.4,58.4,107.9,58.4z"/>
			</g>
			<g>
				<path class="st15" d="M107.3,61.3c0.5-0.3,1.1-0.4,1.7-0.5c0.6-0.1,1.2-0.1,1.8,0c0.1,0,0.3,0,0.5,0.1c0.1,0,0.3,0.1,0.4,0.1
					c0.1,0,0.3,0.1,0.4,0.2l0.2,0.1l0.2,0.1c0.1,0.1,0.3,0.2,0.4,0.2c0.1,0.1,0.2,0.2,0.4,0.3c0.1,0,0.1,0.1,0.2,0.1l0.2,0.2
					c0.1,0.1,0.2,0.2,0.3,0.3c-0.5-0.3-1-0.6-1.6-0.8l-0.2-0.1l-0.2-0.1c-0.1,0-0.3-0.1-0.4-0.1c-0.1,0-0.3-0.1-0.4-0.1
					c-0.1,0-0.3-0.1-0.4-0.1c-0.6-0.1-1.1-0.1-1.7-0.2C108.4,61.2,107.9,61.2,107.3,61.3z"/>
			</g>
		</g>
	</g>
	<g>
		<g>
			<path class="st10" d="M89.7,56.4c4.4-2.3,5.7-0.2,6.3,3.9C92.8,60.7,90,59.8,89.7,56.4z"/>
		</g>
		<g>
			<path class="st11" d="M95.3,61.1c-1.8,0-3.4-0.5-4.5-1.4c-0.9-0.8-1.5-1.9-1.5-3.3c0-0.2,0.1-0.3,0.2-0.4c1.9-1,3.3-1.3,4.5-0.7
				c1.7,0.8,2.3,3,2.8,5.3c0,0.1,0,0.3-0.1,0.4c-0.1,0.1-0.2,0.2-0.3,0.2C96,61.1,95.6,61.1,95.3,61.1z M90.2,56.6
				c0.1,1,0.5,1.8,1.2,2.4c1,0.8,2.5,1.2,4.3,1.2c-0.4-1.8-1-3.5-2.1-4.1C92.8,55.7,91.6,55.9,90.2,56.6z"/>
		</g>
		<g>
			<path class="st12" d="M89.6,55.9c0.5-0.1,1-0.1,1.5,0c0.5,0.1,0.9,0.3,1.3,0.6c0.4,0.2,0.7,0.5,1.1,0.8c0.3,0.3,0.6,0.7,0.8,1
				c-0.7-0.5-1.4-0.9-2.2-1.2c-0.4-0.1-0.8-0.2-1.1-0.3c-0.4-0.1-0.7-0.1-1.1,0l0,0c-0.3,0-0.5-0.2-0.5-0.4
				C89.2,56.2,89.4,56,89.6,55.9z"/>
		</g>
	</g>
</g>
<g>
	<path d="M164,37.8h-5.9c-0.5-1.3-0.8-2.5-0.8-3.7c0-0.8,0.2-1.4,0.6-1.8c0.4-0.4,1.1-0.6,1.9-0.6h21.4c11.5,0,19.2,1.4,23.2,4.2
		c4,2.8,6,7.3,6,13.7c0,6.5-2.4,11.6-7.2,15.4c-4.8,3.7-12.5,5.6-23.2,5.6H178c0,7.7,0.1,12.9,0.2,15.8h7.3c0.5,1.1,0.8,2.2,0.8,3.3
		c0,1-0.2,1.8-0.6,2.2c-0.4,0.4-1,0.6-1.9,0.6H158c-0.5-1.3-0.8-2.6-0.8-3.8c0-0.8,0.2-1.4,0.7-1.8c0.4-0.4,1.1-0.6,2-0.6h4.1
		c0.1-3.8,0.2-13.7,0.2-29.8C164.2,47.8,164.2,41.6,164,37.8z M181.9,63.2c4.6,0,7.9-0.8,10.1-2.4c2.1-1.6,3.2-4.5,3.2-8.5
		c0-3.8-1-6.8-3-8.9c-2-2.1-5.2-3.2-9.4-3.2c-1.8,0-3.3,0.1-4.5,0.4c-0.1,1.9-0.2,7.2-0.2,15.9v6.7H181.9z"/>
	<path d="M233.8,86.3h5.2c0.5,1,0.8,2.1,0.8,3.3c0,1-0.2,1.8-0.6,2.2c-0.4,0.4-1.3,0.6-2.5,0.6h-21.3c-0.5-1.2-0.8-2.4-0.8-3.5
		c0-0.9,0.2-1.6,0.6-2c0.4-0.4,1.1-0.6,2-0.6h3.6c0.1-3.8,0.2-7.8,0.2-12.1c0-6.5-0.1-10.9-0.2-13c-0.1-2.1-0.3-3.7-0.7-4.7
		c-0.4-1-0.9-1.6-1.6-1.9c-0.7-0.3-1.8-0.4-3.2-0.4c-0.5-0.8-0.8-1.8-0.8-2.9c0-1.7,0.7-2.7,2-3.1c1.4-0.4,4.1-0.6,8.3-0.6
		c3.1,0,5.3,0.1,6.4,0.4c1.1,0.2,1.8,0.7,2,1.4c0.2,0.7,0.2,1.7,0.2,2.9v21.9C233.6,78.4,233.7,82.5,233.8,86.3z M225.7,41.8
		c-2.7,0-4.6-0.5-5.8-1.5c-1.2-1-1.8-2.5-1.8-4.3c0-2,0.8-3.6,2.3-4.8c1.5-1.3,3.7-1.9,6.4-1.9c2.8,0,4.9,0.5,6,1.6
		c1.2,1.1,1.8,2.5,1.8,4.2c0,1.9-0.7,3.5-2.1,4.8C231.1,41.2,228.8,41.8,225.7,41.8z"/>
	<path d="M281.3,51.3c0,1.4-0.6,3-1.8,5c-1.2,2-3.2,5.2-6.1,9.6c-2.8,4.4-5.3,8.5-7.5,12.1c-2.2,3.6-3.5,6.2-3.8,7.8h6.6
		c2.5,0,6.9-1.1,13.2-3.3c0.9,2,1.4,3.9,1.3,5.8c0,1.5-0.4,2.5-1.2,3.1c-0.8,0.6-2.6,0.9-5.3,0.9h-29.4c-2.1,0-3.2-1-3.2-3
		c0-1,0.5-2.3,1.5-3.8c1-1.5,3.4-4.8,7-9.8c3.7-5,6.4-9.1,8.2-12.4c1.8-3.2,3.2-6.1,4.2-8.4h-8.7c-2.1,0-5.5,1.1-10.4,3.3
		c-1.5-2.1-2.2-4.2-2.2-6.4c0-1.2,0.3-2.1,1-2.6c0.7-0.6,2-0.9,3.9-0.9h28.3c1.4,0,2.4,0.2,3.1,0.6C281,49.4,281.3,50.1,281.3,51.3z
		"/>
	<path d="M326,51.3c0,1.4-0.6,3-1.8,5c-1.2,2-3.2,5.2-6.1,9.6c-2.8,4.4-5.3,8.5-7.5,12.1c-2.2,3.6-3.5,6.2-3.8,7.8h6.6
		c2.5,0,6.9-1.1,13.2-3.3c0.9,2,1.4,3.9,1.3,5.8c0,1.5-0.4,2.5-1.2,3.1c-0.8,0.6-2.6,0.9-5.3,0.9H292c-2.1,0-3.2-1-3.2-3
		c0-1,0.5-2.3,1.5-3.8c1-1.5,3.4-4.8,7-9.8c3.7-5,6.4-9.1,8.2-12.4c1.8-3.2,3.2-6.1,4.2-8.4h-8.7c-2.1,0-5.5,1.1-10.4,3.3
		c-1.5-2.1-2.2-4.2-2.2-6.4c0-1.2,0.3-2.1,1-2.6c0.7-0.6,2-0.9,3.9-0.9h28.3c1.4,0,2.4,0.2,3.1,0.6C325.6,49.4,326,50.1,326,51.3z"
		/>
	<path d="M362.1,88.9c-2.2,1.1-4.8,2.1-7.6,3c-2.8,0.9-5.5,1.3-8,1.3c-4.3,0-7.4-1-9.4-3c-2-2-3-4.8-3-8.4c0-5,1.7-8.7,5.2-11.2
		c3.4-2.4,8.9-3.6,16.3-3.6h4.8c-0.3-4.6-1-7.7-2.3-9.4c-1.2-1.7-3.1-2.5-5.6-2.5c-1.4,0-2.8,0.2-4.4,0.5c-1,2-1.7,3-1.8,3.1
		c-0.2,0.1-1.2,0.4-3.1,0.8c-1.9,0.4-3.2,0.3-3.9-0.4c-0.8-0.7-1.5-1.9-2.3-3.6c-0.8-1.7-1.2-3.2-1.2-4.4c0-0.7,0.3-1.3,0.9-1.7
		c0.6-0.4,2.9-0.9,6.7-1.3c3.9-0.5,8-0.7,12.4-0.7c5.2,0,9.3,0.9,12.3,2.7c3,1.8,4.4,5.3,4.4,10.4v11.8c0,6.5,0.3,10.6,0.8,12.1
		c0.6,1.5,1.6,2.1,3,1.8c0.4,0.8,0.7,1.6,0.7,2.4c0,1.3-0.8,2.3-2.4,3c-1.6,0.7-3.7,1-6.4,1c-1.2,0-2.1-0.1-2.8-0.4
		C364.6,92,363.5,90.9,362.1,88.9z M360.3,74.2c-2.1-0.4-4.3-0.7-6.5-0.7c-2.5,0-4.3,0.4-5.3,1.2c-1.1,0.8-1.6,2.4-1.6,4.7
		c0,2,0.5,3.5,1.6,4.6c1.1,1,2.6,1.5,4.6,1.5c1.6,0,3-0.3,4.2-1c1.2-0.7,2-1.7,2.4-2.9c0.4-1.3,0.6-2.9,0.6-4.9V74.2z"/>
	<path d="M386.8,31.7h40.4c1.9,0,3.3,0.3,4.1,0.9c0.8,0.6,1.2,1.8,1.2,3.6c0,2.2-0.7,4.4-2.2,6.8c-6.2-2.5-14.2-3.8-23.9-3.8h-2.1
		c-0.2,2.9-0.3,9.3-0.3,19.1h21.8c0.5,1.6,0.8,3.2,0.8,4.9c0,1-0.2,1.7-0.5,2c-0.4,0.3-1,0.5-2,0.5h-20c0,10.8,0.1,17.6,0.3,20.7
		h7.7c0.5,1.1,0.8,2.2,0.8,3.3c0,1-0.2,1.8-0.6,2.2c-0.4,0.4-1,0.6-1.9,0.6h-25.3c-0.5-1.3-0.8-2.6-0.8-3.8c0-0.8,0.2-1.4,0.7-1.8
		c0.4-0.4,1.1-0.6,2-0.6h3.2c0.2-3.8,0.3-13.7,0.3-29.8c0-8.7-0.1-14.9-0.3-18.7h-5.1c-0.5-1.3-0.8-2.5-0.8-3.7
		c0-0.8,0.2-1.4,0.7-1.8C385.2,31.9,385.9,31.7,386.8,31.7z"/>
	<path d="M454.4,86.3h5.2c0.5,1,0.8,2.1,0.8,3.3c0,1-0.2,1.8-0.6,2.2c-0.4,0.4-1.3,0.6-2.5,0.6H436c-0.5-1.2-0.8-2.4-0.8-3.5
		c0-0.9,0.2-1.6,0.6-2c0.4-0.4,1.1-0.6,2-0.6h3.6c0.1-3.8,0.2-7.8,0.2-12.1c0-6.5-0.1-10.9-0.2-13c-0.1-2.1-0.3-3.7-0.7-4.7
		c-0.4-1-0.9-1.6-1.6-1.9c-0.7-0.3-1.8-0.4-3.2-0.4c-0.5-0.8-0.8-1.8-0.8-2.9c0-1.7,0.7-2.7,2-3.1c1.4-0.4,4.1-0.6,8.3-0.6
		c3.1,0,5.3,0.1,6.4,0.4c1.1,0.2,1.8,0.7,2,1.4c0.2,0.7,0.2,1.7,0.2,2.9v21.9C454.2,78.4,454.3,82.5,454.4,86.3z M446.3,41.8
		c-2.7,0-4.6-0.5-5.8-1.5c-1.2-1-1.8-2.5-1.8-4.3c0-2,0.8-3.6,2.3-4.8c1.5-1.3,3.7-1.9,6.4-1.9c2.8,0,4.9,0.5,6,1.6
		c1.2,1.1,1.8,2.5,1.8,4.2c0,1.9-0.7,3.5-2.1,4.8C451.7,41.2,449.5,41.8,446.3,41.8z"/>
	<path d="M481.2,52.7c3.2-2,6.3-3.4,9.3-4.3s5.5-1.3,7.5-1.3c4.2,0,7.3,0.9,9.3,2.8c2,1.8,3,5.5,3,11.1c0,14.6,0.3,22.4,0.8,23.6
		c0.5,1.1,1.7,1.7,3.5,1.7c0.4,1.1,0.7,2.2,0.7,3.3c0,1.1-0.3,1.8-1,2.2c-0.7,0.4-2,0.6-4,0.6c-4.8,0-7.8-0.1-9.1-0.2
		c-1.3-0.1-2.1-0.6-2.6-1.4c-0.5-0.8-0.7-2.2-0.7-4.1V70.9c0-6-0.6-10.1-1.7-12.2c-1.1-2.1-2.9-3.1-5.4-3.1c-2.1,0-3.8,0.6-5,1.8
		c-1.2,1.2-1.8,3.8-1.8,7.7v8.9c0,3.7,0.1,7.8,0.2,12.1h5.3c0.5,1,0.8,2.1,0.8,3.3c0,1-0.2,1.8-0.6,2.2c-0.4,0.4-1.3,0.6-2.5,0.6
		h-20.9c-0.5-1.2-0.8-2.4-0.8-3.5c0-0.9,0.2-1.6,0.6-2c0.4-0.4,1.1-0.6,2-0.6h3.2c0.1-4.9,0.2-9.9,0.2-15.2c0-8.3-0.4-13.2-1.2-14.7
		c-0.8-1.5-2.2-2.3-4.1-2.3c-0.5-1.2-0.8-2.4-0.8-3.6c0-1.1,0.4-1.8,1.2-2.1c0.8-0.3,5.7-0.6,14.7-0.9
		C481.3,48.8,481.3,50.5,481.2,52.7z"/>
	<path d="M549.3,88.9c-2.2,1.1-4.8,2.1-7.6,3c-2.8,0.9-5.5,1.3-8,1.3c-4.3,0-7.4-1-9.4-3c-2-2-3-4.8-3-8.4c0-5,1.7-8.7,5.2-11.2
		c3.4-2.4,8.9-3.6,16.3-3.6h4.8c-0.3-4.6-1-7.7-2.3-9.4c-1.2-1.7-3.1-2.5-5.6-2.5c-1.4,0-2.8,0.2-4.4,0.5c-1,2-1.7,3-1.8,3.1
		c-0.2,0.1-1.2,0.4-3.1,0.8c-1.9,0.4-3.2,0.3-3.9-0.4c-0.8-0.7-1.5-1.9-2.3-3.6c-0.8-1.7-1.2-3.2-1.2-4.4c0-0.7,0.3-1.3,0.9-1.7
		c0.6-0.4,2.9-0.9,6.7-1.3c3.9-0.5,8-0.7,12.4-0.7c5.2,0,9.3,0.9,12.3,2.7c3,1.8,4.4,5.3,4.4,10.4v11.8c0,6.5,0.3,10.6,0.8,12.1
		c0.6,1.5,1.6,2.1,3,1.8c0.4,0.8,0.7,1.6,0.7,2.4c0,1.3-0.8,2.3-2.4,3c-1.6,0.7-3.7,1-6.4,1c-1.2,0-2.1-0.1-2.8-0.4
		C551.9,92,550.8,90.9,549.3,88.9z M547.5,74.2c-2.1-0.4-4.3-0.7-6.5-0.7c-2.5,0-4.3,0.4-5.3,1.2c-1.1,0.8-1.6,2.4-1.6,4.7
		c0,2,0.5,3.5,1.6,4.6c1.1,1,2.6,1.5,4.6,1.5c1.6,0,3-0.3,4.2-1c1.2-0.7,2-1.7,2.4-2.9c0.4-1.3,0.6-2.9,0.6-4.9V74.2z"/>
	<path d="M586.3,52.7c3.2-2,6.3-3.4,9.3-4.3s5.5-1.3,7.5-1.3c4.2,0,7.3,0.9,9.3,2.8c2,1.8,3,5.5,3,11.1c0,14.6,0.3,22.4,0.8,23.6
		c0.5,1.1,1.7,1.7,3.5,1.7c0.4,1.1,0.7,2.2,0.7,3.3c0,1.1-0.3,1.8-1,2.2c-0.7,0.4-2,0.6-4,0.6c-4.8,0-7.8-0.1-9.1-0.2
		c-1.3-0.1-2.1-0.6-2.6-1.4c-0.5-0.8-0.7-2.2-0.7-4.1V70.9c0-6-0.6-10.1-1.7-12.2c-1.1-2.1-2.9-3.1-5.4-3.1c-2.1,0-3.8,0.6-5,1.8
		c-1.2,1.2-1.8,3.8-1.8,7.7v8.9c0,3.7,0.1,7.8,0.2,12.1h5.3c0.5,1,0.8,2.1,0.8,3.3c0,1-0.2,1.8-0.6,2.2c-0.4,0.4-1.3,0.6-2.5,0.6
		h-20.9c-0.5-1.2-0.8-2.4-0.8-3.5c0-0.9,0.2-1.6,0.6-2c0.4-0.4,1.1-0.6,2-0.6h3.2c0.1-4.9,0.2-9.9,0.2-15.2c0-8.3-0.4-13.2-1.2-14.7
		c-0.8-1.5-2.2-2.3-4.1-2.3c-0.5-1.2-0.8-2.4-0.8-3.6c0-1.1,0.4-1.8,1.2-2.1c0.8-0.3,5.7-0.6,14.7-0.9
		C586.4,48.8,586.4,50.5,586.3,52.7z"/>
	<path d="M648.4,93.2c-8.2,0-13.9-1.5-17.2-4.6c-3.3-3-4.9-8.2-4.9-15.6c0-8.3,2.1-14.7,6.4-19.2c4.3-4.5,10.6-6.8,19-6.8
		c4.4,0,7.5,0.4,9.2,1.2c1.7,0.8,2.6,2.1,2.6,3.9c0,2.3-0.7,4.4-2.2,6.3c-4.9-2.4-8.9-3.6-12-3.6c-3.1,0-5.4,1.1-6.8,3.3
		c-1.5,2.2-2.2,6-2.2,11.5c0,5.4,0.7,9.4,2.2,12.1c1.4,2.6,4.1,3.9,7.8,3.9c3.1,0,7-1.1,11.9-3.4c1.2,1.7,1.9,3.5,1.9,5.4
		c0,1.9-1.6,3.4-4.7,4.3C656.2,92.8,652.6,93.2,648.4,93.2z"/>
	<path d="M692.5,47.1c6.2,0,10.6,1.4,13.4,4.2c2.8,2.8,4.2,7.2,4.2,13.3c0,3-0.6,5.1-1.8,6.4c-1.2,1.3-3.8,1.9-7.8,1.9H684
		c0.1,3.9,1,6.9,2.6,9.1c1.7,2.2,4.6,3.3,8.8,3.3c4.1,0,8.3-1.2,12.6-3.6c1.5,1.5,2.3,3.1,2.3,4.9c0,2.4-1.7,4-5.2,5
		c-3.5,0.9-7.6,1.4-12.2,1.4c-8.1,0-13.9-1.6-17.6-4.9c-3.6-3.3-5.5-8.6-5.5-16.1c0-7.8,2.1-13.9,6.2-18.3
		C680.1,49.3,685.6,47.1,692.5,47.1z M690.8,54.8c-2.2,0-3.9,0.9-5,2.7c-1.2,1.8-1.7,4.9-1.8,9.3h2.4c3.3,0,5.8-0.1,7.5-0.3
		c1.7-0.2,2.7-0.5,3-1c0.3-0.5,0.4-1.2,0.4-2.3c0-2.7-0.6-4.7-1.7-6.2S692.8,54.8,690.8,54.8z"/>
</g>
</svg>
